G75*
%MOIN*%
%OFA0B0*%
%FSLAX24Y24*%
%IPPOS*%
%LPD*%
%AMOC8*
5,1,8,0,0,1.08239X$1,22.5*
%
%ADD10C,0.0000*%
%ADD11R,0.0137X0.0550*%
%ADD12C,0.0540*%
%ADD13C,0.0531*%
%ADD14R,0.0880X0.0480*%
%ADD15R,0.0866X0.1417*%
%ADD16R,0.0630X0.0709*%
%ADD17R,0.0394X0.0433*%
%ADD18C,0.0600*%
%ADD19C,0.0317*%
%ADD20C,0.0413*%
%ADD21R,0.0433X0.0394*%
%ADD22C,0.0740*%
%ADD23R,0.0354X0.0585*%
%ADD24R,0.0256X0.0413*%
%ADD25R,0.0413X0.0256*%
%ADD26C,0.0160*%
%ADD27C,0.0100*%
%ADD28C,0.0240*%
%ADD29C,0.0240*%
%ADD30C,0.0138*%
%ADD31C,0.0500*%
%ADD32C,0.0354*%
%ADD33C,0.1000*%
%ADD34C,0.0320*%
%ADD35C,0.0660*%
%ADD36C,0.0400*%
%ADD37C,0.0356*%
%ADD38C,0.0472*%
D10*
X001699Y000307D02*
X000714Y002276D01*
X000714Y018024D01*
X001699Y019993D01*
X017447Y019993D01*
X018431Y018024D01*
X018431Y002276D01*
X017447Y000307D01*
X001699Y000307D01*
X002053Y001292D02*
X002055Y001342D01*
X002061Y001392D01*
X002071Y001441D01*
X002085Y001489D01*
X002102Y001536D01*
X002123Y001581D01*
X002148Y001625D01*
X002176Y001666D01*
X002208Y001705D01*
X002242Y001742D01*
X002279Y001776D01*
X002319Y001806D01*
X002361Y001833D01*
X002405Y001857D01*
X002451Y001878D01*
X002498Y001894D01*
X002546Y001907D01*
X002596Y001916D01*
X002645Y001921D01*
X002696Y001922D01*
X002746Y001919D01*
X002795Y001912D01*
X002844Y001901D01*
X002892Y001886D01*
X002938Y001868D01*
X002983Y001846D01*
X003026Y001820D01*
X003067Y001791D01*
X003106Y001759D01*
X003142Y001724D01*
X003174Y001686D01*
X003204Y001646D01*
X003231Y001603D01*
X003254Y001559D01*
X003273Y001513D01*
X003289Y001465D01*
X003301Y001416D01*
X003309Y001367D01*
X003313Y001317D01*
X003313Y001267D01*
X003309Y001217D01*
X003301Y001168D01*
X003289Y001119D01*
X003273Y001071D01*
X003254Y001025D01*
X003231Y000981D01*
X003204Y000938D01*
X003174Y000898D01*
X003142Y000860D01*
X003106Y000825D01*
X003067Y000793D01*
X003026Y000764D01*
X002983Y000738D01*
X002938Y000716D01*
X002892Y000698D01*
X002844Y000683D01*
X002795Y000672D01*
X002746Y000665D01*
X002696Y000662D01*
X002645Y000663D01*
X002596Y000668D01*
X002546Y000677D01*
X002498Y000690D01*
X002451Y000706D01*
X002405Y000727D01*
X002361Y000751D01*
X002319Y000778D01*
X002279Y000808D01*
X002242Y000842D01*
X002208Y000879D01*
X002176Y000918D01*
X002148Y000959D01*
X002123Y001003D01*
X002102Y001048D01*
X002085Y001095D01*
X002071Y001143D01*
X002061Y001192D01*
X002055Y001242D01*
X002053Y001292D01*
X015832Y001292D02*
X015834Y001342D01*
X015840Y001392D01*
X015850Y001441D01*
X015864Y001489D01*
X015881Y001536D01*
X015902Y001581D01*
X015927Y001625D01*
X015955Y001666D01*
X015987Y001705D01*
X016021Y001742D01*
X016058Y001776D01*
X016098Y001806D01*
X016140Y001833D01*
X016184Y001857D01*
X016230Y001878D01*
X016277Y001894D01*
X016325Y001907D01*
X016375Y001916D01*
X016424Y001921D01*
X016475Y001922D01*
X016525Y001919D01*
X016574Y001912D01*
X016623Y001901D01*
X016671Y001886D01*
X016717Y001868D01*
X016762Y001846D01*
X016805Y001820D01*
X016846Y001791D01*
X016885Y001759D01*
X016921Y001724D01*
X016953Y001686D01*
X016983Y001646D01*
X017010Y001603D01*
X017033Y001559D01*
X017052Y001513D01*
X017068Y001465D01*
X017080Y001416D01*
X017088Y001367D01*
X017092Y001317D01*
X017092Y001267D01*
X017088Y001217D01*
X017080Y001168D01*
X017068Y001119D01*
X017052Y001071D01*
X017033Y001025D01*
X017010Y000981D01*
X016983Y000938D01*
X016953Y000898D01*
X016921Y000860D01*
X016885Y000825D01*
X016846Y000793D01*
X016805Y000764D01*
X016762Y000738D01*
X016717Y000716D01*
X016671Y000698D01*
X016623Y000683D01*
X016574Y000672D01*
X016525Y000665D01*
X016475Y000662D01*
X016424Y000663D01*
X016375Y000668D01*
X016325Y000677D01*
X016277Y000690D01*
X016230Y000706D01*
X016184Y000727D01*
X016140Y000751D01*
X016098Y000778D01*
X016058Y000808D01*
X016021Y000842D01*
X015987Y000879D01*
X015955Y000918D01*
X015927Y000959D01*
X015902Y001003D01*
X015881Y001048D01*
X015864Y001095D01*
X015850Y001143D01*
X015840Y001192D01*
X015834Y001242D01*
X015832Y001292D01*
X015832Y019008D02*
X015834Y019058D01*
X015840Y019108D01*
X015850Y019157D01*
X015864Y019205D01*
X015881Y019252D01*
X015902Y019297D01*
X015927Y019341D01*
X015955Y019382D01*
X015987Y019421D01*
X016021Y019458D01*
X016058Y019492D01*
X016098Y019522D01*
X016140Y019549D01*
X016184Y019573D01*
X016230Y019594D01*
X016277Y019610D01*
X016325Y019623D01*
X016375Y019632D01*
X016424Y019637D01*
X016475Y019638D01*
X016525Y019635D01*
X016574Y019628D01*
X016623Y019617D01*
X016671Y019602D01*
X016717Y019584D01*
X016762Y019562D01*
X016805Y019536D01*
X016846Y019507D01*
X016885Y019475D01*
X016921Y019440D01*
X016953Y019402D01*
X016983Y019362D01*
X017010Y019319D01*
X017033Y019275D01*
X017052Y019229D01*
X017068Y019181D01*
X017080Y019132D01*
X017088Y019083D01*
X017092Y019033D01*
X017092Y018983D01*
X017088Y018933D01*
X017080Y018884D01*
X017068Y018835D01*
X017052Y018787D01*
X017033Y018741D01*
X017010Y018697D01*
X016983Y018654D01*
X016953Y018614D01*
X016921Y018576D01*
X016885Y018541D01*
X016846Y018509D01*
X016805Y018480D01*
X016762Y018454D01*
X016717Y018432D01*
X016671Y018414D01*
X016623Y018399D01*
X016574Y018388D01*
X016525Y018381D01*
X016475Y018378D01*
X016424Y018379D01*
X016375Y018384D01*
X016325Y018393D01*
X016277Y018406D01*
X016230Y018422D01*
X016184Y018443D01*
X016140Y018467D01*
X016098Y018494D01*
X016058Y018524D01*
X016021Y018558D01*
X015987Y018595D01*
X015955Y018634D01*
X015927Y018675D01*
X015902Y018719D01*
X015881Y018764D01*
X015864Y018811D01*
X015850Y018859D01*
X015840Y018908D01*
X015834Y018958D01*
X015832Y019008D01*
X002053Y019008D02*
X002055Y019058D01*
X002061Y019108D01*
X002071Y019157D01*
X002085Y019205D01*
X002102Y019252D01*
X002123Y019297D01*
X002148Y019341D01*
X002176Y019382D01*
X002208Y019421D01*
X002242Y019458D01*
X002279Y019492D01*
X002319Y019522D01*
X002361Y019549D01*
X002405Y019573D01*
X002451Y019594D01*
X002498Y019610D01*
X002546Y019623D01*
X002596Y019632D01*
X002645Y019637D01*
X002696Y019638D01*
X002746Y019635D01*
X002795Y019628D01*
X002844Y019617D01*
X002892Y019602D01*
X002938Y019584D01*
X002983Y019562D01*
X003026Y019536D01*
X003067Y019507D01*
X003106Y019475D01*
X003142Y019440D01*
X003174Y019402D01*
X003204Y019362D01*
X003231Y019319D01*
X003254Y019275D01*
X003273Y019229D01*
X003289Y019181D01*
X003301Y019132D01*
X003309Y019083D01*
X003313Y019033D01*
X003313Y018983D01*
X003309Y018933D01*
X003301Y018884D01*
X003289Y018835D01*
X003273Y018787D01*
X003254Y018741D01*
X003231Y018697D01*
X003204Y018654D01*
X003174Y018614D01*
X003142Y018576D01*
X003106Y018541D01*
X003067Y018509D01*
X003026Y018480D01*
X002983Y018454D01*
X002938Y018432D01*
X002892Y018414D01*
X002844Y018399D01*
X002795Y018388D01*
X002746Y018381D01*
X002696Y018378D01*
X002645Y018379D01*
X002596Y018384D01*
X002546Y018393D01*
X002498Y018406D01*
X002451Y018422D01*
X002405Y018443D01*
X002361Y018467D01*
X002319Y018494D01*
X002279Y018524D01*
X002242Y018558D01*
X002208Y018595D01*
X002176Y018634D01*
X002148Y018675D01*
X002123Y018719D01*
X002102Y018764D01*
X002085Y018811D01*
X002071Y018859D01*
X002061Y018908D01*
X002055Y018958D01*
X002053Y019008D01*
D11*
X009181Y008589D03*
X009437Y008589D03*
X009693Y008589D03*
X009949Y008589D03*
X010205Y008589D03*
X010460Y008589D03*
X010716Y008589D03*
X010972Y008589D03*
X011228Y008589D03*
X011484Y008589D03*
X011740Y008589D03*
X011996Y008589D03*
X011996Y005711D03*
X011740Y005711D03*
X011484Y005711D03*
X011228Y005711D03*
X010972Y005711D03*
X010716Y005711D03*
X010460Y005711D03*
X010205Y005711D03*
X009949Y005711D03*
X009693Y005711D03*
X009437Y005711D03*
X009181Y005711D03*
D12*
X017088Y015650D03*
D13*
X017088Y013650D03*
X017088Y012650D03*
X017088Y011650D03*
X017088Y010650D03*
X013588Y004150D03*
X012588Y004150D03*
X010088Y004150D03*
X009088Y004150D03*
X012338Y019150D03*
X013338Y019150D03*
X014338Y019150D03*
D14*
X013118Y016310D03*
X013118Y015400D03*
X013118Y014490D03*
D15*
X015559Y015400D03*
D16*
X016037Y017150D03*
X017140Y017150D03*
X013140Y013400D03*
X012037Y013400D03*
D17*
X010463Y013065D03*
X010463Y013735D03*
X009213Y013735D03*
X009213Y013065D03*
X013088Y009860D03*
X013088Y009190D03*
X014088Y006485D03*
X014088Y005815D03*
D18*
X016088Y006150D03*
X016088Y007150D03*
X016088Y008150D03*
X017588Y008150D03*
X017588Y007150D03*
X017588Y006150D03*
X007088Y007150D03*
X006088Y007150D03*
X005088Y007150D03*
D19*
X005588Y004308D02*
X005588Y003992D01*
X006088Y003992D02*
X006088Y004308D01*
X006581Y004308D02*
X006581Y003992D01*
X015930Y004150D02*
X016247Y004150D01*
X016247Y004642D02*
X015930Y004642D01*
X015930Y003650D02*
X016247Y003650D01*
X017430Y003650D02*
X017747Y003650D01*
X017747Y004150D02*
X017430Y004150D01*
X017430Y004642D02*
X017747Y004642D01*
D20*
X010357Y016150D03*
X009570Y016150D03*
D21*
X006673Y018775D03*
X006004Y018775D03*
X004923Y018775D03*
X004254Y018775D03*
X004173Y009400D03*
X003504Y009400D03*
X002423Y009400D03*
X001754Y009400D03*
X003129Y007400D03*
X003798Y007400D03*
X005254Y009400D03*
X005923Y009400D03*
D22*
X001838Y008150D03*
X001838Y007150D03*
X001838Y006150D03*
X001838Y005150D03*
X001838Y004150D03*
X001838Y003150D03*
D23*
X003534Y010524D03*
X004125Y010524D03*
X004715Y010524D03*
X005306Y010524D03*
X005897Y010524D03*
X006487Y010524D03*
X007078Y010524D03*
X007668Y010524D03*
X008259Y010524D03*
X008259Y017526D03*
X007668Y017526D03*
X007078Y017526D03*
X006487Y017526D03*
X005897Y017526D03*
X005306Y017526D03*
X004715Y017526D03*
X004125Y017526D03*
X003534Y017526D03*
D24*
X003165Y005967D03*
X004012Y005967D03*
X004012Y004333D03*
X003165Y004333D03*
D25*
X010022Y010977D03*
X010022Y011823D03*
X011655Y011823D03*
X011655Y010977D03*
D26*
X013088Y010650D02*
X013088Y009860D01*
X014651Y007713D02*
X014463Y007525D01*
X014338Y007525D01*
X010460Y008589D02*
X010338Y008711D01*
X010338Y008900D01*
X010460Y008589D02*
X010205Y008589D01*
X009140Y007552D02*
X009140Y007276D01*
X009139Y007275D01*
X007713Y008150D02*
X007588Y008150D01*
X009181Y005124D02*
X009088Y005032D01*
X006588Y004150D02*
X006581Y004150D01*
X003504Y009400D02*
X002423Y009400D01*
X003504Y009400D02*
X003504Y010494D01*
X010357Y016150D02*
X010463Y016150D01*
X010463Y018150D02*
X010713Y018150D01*
X011463Y019025D01*
X010463Y018275D02*
X010463Y018150D01*
X013213Y019150D02*
X013338Y019150D01*
X014463Y017900D02*
X014463Y017775D01*
X004963Y018735D02*
X004923Y018775D01*
D27*
X001803Y001234D02*
X001515Y001234D01*
X001466Y001332D02*
X001803Y001332D01*
X001803Y001431D02*
X001417Y001431D01*
X001367Y001529D02*
X001829Y001529D01*
X001803Y001467D02*
X001803Y001117D01*
X001937Y000793D01*
X002173Y000557D01*
X001853Y000557D01*
X000964Y002335D01*
X000964Y010025D01*
X003088Y010025D01*
X003220Y010157D01*
X003274Y010103D01*
X003274Y009747D01*
X003225Y009747D01*
X003137Y009659D01*
X003137Y009630D01*
X002790Y009630D01*
X002790Y009659D01*
X002702Y009747D01*
X002144Y009747D01*
X002088Y009691D01*
X002062Y009717D01*
X002028Y009737D01*
X001990Y009747D01*
X001802Y009747D01*
X001802Y009448D01*
X001705Y009448D01*
X001705Y009352D01*
X001387Y009352D01*
X001387Y009183D01*
X001397Y009145D01*
X001417Y009111D01*
X001445Y009083D01*
X001479Y009063D01*
X001518Y009053D01*
X001705Y009053D01*
X001705Y009352D01*
X001802Y009352D01*
X001802Y009053D01*
X001990Y009053D01*
X002028Y009063D01*
X002062Y009083D01*
X002088Y009109D01*
X002144Y009053D01*
X002702Y009053D01*
X002790Y009141D01*
X002790Y009170D01*
X003137Y009170D01*
X003137Y009141D01*
X003225Y009053D01*
X003304Y009053D01*
X003304Y008398D01*
X002929Y008023D01*
X002929Y007747D01*
X002850Y007747D01*
X002762Y007659D01*
X002762Y007141D01*
X002850Y007053D01*
X003407Y007053D01*
X003463Y007109D01*
X003519Y007053D01*
X004077Y007053D01*
X004138Y007115D01*
X004138Y007108D01*
X003812Y006781D01*
X003812Y006314D01*
X003734Y006236D01*
X003734Y005698D01*
X003812Y005620D01*
X003812Y004680D01*
X003734Y004602D01*
X003734Y004064D01*
X003822Y003976D01*
X004202Y003976D01*
X004290Y004064D01*
X004290Y004602D01*
X004212Y004680D01*
X004212Y005620D01*
X004290Y005698D01*
X004290Y006236D01*
X004212Y006314D01*
X004212Y006615D01*
X004421Y006825D01*
X004538Y006942D01*
X004538Y007567D01*
X004921Y007950D01*
X005407Y007950D01*
X005435Y007921D01*
X005535Y007880D01*
X005642Y007880D01*
X005741Y007921D01*
X005817Y007997D01*
X005858Y008096D01*
X005858Y008204D01*
X005817Y008303D01*
X005741Y008379D01*
X005690Y008400D01*
X005741Y008421D01*
X005817Y008497D01*
X005858Y008596D01*
X005858Y008704D01*
X005817Y008803D01*
X005741Y008879D01*
X005642Y008920D01*
X005535Y008920D01*
X005435Y008879D01*
X005407Y008850D01*
X004506Y008850D01*
X004388Y008733D01*
X003826Y008170D01*
X003756Y008100D01*
X003598Y007942D01*
X003598Y007747D01*
X003519Y007747D01*
X003463Y007691D01*
X003407Y007747D01*
X003329Y007747D01*
X003329Y007858D01*
X003704Y008233D01*
X003704Y009053D01*
X003782Y009053D01*
X003838Y009109D01*
X003894Y009053D01*
X004452Y009053D01*
X004540Y009141D01*
X004540Y009659D01*
X004452Y009747D01*
X004373Y009747D01*
X004373Y010091D01*
X004420Y010138D01*
X004476Y010082D01*
X004955Y010082D01*
X005011Y010138D01*
X005067Y010082D01*
X005545Y010082D01*
X005601Y010138D01*
X005657Y010082D01*
X006136Y010082D01*
X006192Y010138D01*
X006248Y010082D01*
X006287Y010082D01*
X006287Y009662D01*
X006202Y009747D01*
X005644Y009747D01*
X005588Y009691D01*
X005562Y009717D01*
X005528Y009737D01*
X005490Y009747D01*
X005302Y009747D01*
X005302Y009448D01*
X005205Y009448D01*
X005205Y009352D01*
X004887Y009352D01*
X004887Y009183D01*
X004897Y009145D01*
X004917Y009111D01*
X004945Y009083D01*
X004979Y009063D01*
X005018Y009053D01*
X005205Y009053D01*
X005205Y009352D01*
X005302Y009352D01*
X005302Y009053D01*
X005490Y009053D01*
X005528Y009063D01*
X005562Y009083D01*
X005588Y009109D01*
X005644Y009053D01*
X006202Y009053D01*
X006290Y009141D01*
X006290Y009200D01*
X006381Y009200D01*
X006404Y009176D01*
X006513Y009067D01*
X006631Y008950D01*
X008986Y008950D01*
X008962Y008927D01*
X008962Y008755D01*
X008911Y008703D01*
X008870Y008604D01*
X008870Y007813D01*
X008860Y007803D01*
X008812Y007755D01*
X008674Y007755D01*
X007940Y008489D01*
X007793Y008550D01*
X006509Y008550D01*
X006362Y008489D01*
X006249Y008377D01*
X005749Y007877D01*
X005688Y007730D01*
X005688Y007360D01*
X005638Y007240D01*
X005638Y007060D01*
X005688Y006940D01*
X005688Y005110D01*
X005749Y004963D01*
X005778Y004934D01*
X005778Y004555D01*
X005763Y004570D01*
X005650Y004617D01*
X005527Y004617D01*
X005440Y004581D01*
X005288Y004733D01*
X005288Y006746D01*
X005343Y006769D01*
X005470Y006895D01*
X005538Y007060D01*
X005538Y007240D01*
X005470Y007405D01*
X005343Y007531D01*
X005178Y007600D01*
X004999Y007600D01*
X004834Y007531D01*
X004707Y007405D01*
X004638Y007240D01*
X004638Y007060D01*
X004707Y006895D01*
X004834Y006769D01*
X004888Y006746D01*
X004888Y004567D01*
X005006Y004450D01*
X005280Y004176D01*
X005280Y003930D01*
X005327Y003817D01*
X005414Y003730D01*
X005527Y003683D01*
X005650Y003683D01*
X005763Y003730D01*
X005838Y003805D01*
X005914Y003730D01*
X006027Y003683D01*
X006150Y003683D01*
X006263Y003730D01*
X006336Y003803D01*
X006341Y003795D01*
X006384Y003752D01*
X006434Y003718D01*
X006491Y003695D01*
X006550Y003683D01*
X006581Y003683D01*
X006611Y003683D01*
X006671Y003695D01*
X006727Y003718D01*
X006777Y003752D01*
X006820Y003795D01*
X006854Y003845D01*
X006877Y003902D01*
X006889Y003961D01*
X006889Y004150D01*
X006889Y004339D01*
X006877Y004398D01*
X006854Y004455D01*
X006820Y004505D01*
X006777Y004548D01*
X006727Y004582D01*
X006671Y004605D01*
X006611Y004617D01*
X006581Y004617D01*
X006581Y004150D01*
X006889Y004150D01*
X006581Y004150D01*
X006581Y004150D01*
X006581Y004150D01*
X006581Y003683D01*
X006581Y004150D01*
X006581Y004150D01*
X006581Y004617D01*
X006550Y004617D01*
X006491Y004605D01*
X006434Y004582D01*
X006398Y004558D01*
X006398Y004934D01*
X006428Y004963D01*
X006488Y005110D01*
X006488Y006940D01*
X006538Y007060D01*
X006538Y007240D01*
X006488Y007360D01*
X006488Y007484D01*
X006754Y007750D01*
X007548Y007750D01*
X008108Y007189D01*
X008108Y007180D01*
X008182Y007003D01*
X008317Y006868D01*
X008493Y006795D01*
X009234Y006795D01*
X009237Y006796D01*
X011862Y006802D01*
X011987Y006750D01*
X013742Y006750D01*
X013742Y006206D01*
X013798Y006150D01*
X013772Y006124D01*
X013752Y006090D01*
X013742Y006052D01*
X013742Y005864D01*
X014040Y005864D01*
X014040Y005767D01*
X013742Y005767D01*
X013742Y005579D01*
X013752Y005541D01*
X013772Y005507D01*
X013799Y005479D01*
X013834Y005459D01*
X013872Y005449D01*
X014040Y005449D01*
X014040Y005767D01*
X014137Y005767D01*
X014137Y005864D01*
X014435Y005864D01*
X014435Y006052D01*
X014425Y006090D01*
X014405Y006124D01*
X014379Y006150D01*
X014435Y006206D01*
X014435Y006750D01*
X014550Y006750D01*
X014752Y006548D01*
X014778Y006484D01*
X014778Y004588D01*
X014826Y004474D01*
X014913Y004387D01*
X015413Y003887D01*
X015527Y003840D01*
X015684Y003840D01*
X015669Y003825D01*
X015622Y003711D01*
X015622Y003589D01*
X015669Y003475D01*
X015755Y003389D01*
X015869Y003342D01*
X016308Y003342D01*
X016422Y003389D01*
X016508Y003475D01*
X016555Y003589D01*
X016555Y003711D01*
X016508Y003825D01*
X016493Y003840D01*
X017184Y003840D01*
X017169Y003825D01*
X017122Y003711D01*
X017122Y003589D01*
X017169Y003475D01*
X017255Y003389D01*
X017369Y003342D01*
X017808Y003342D01*
X017922Y003389D01*
X018008Y003475D01*
X018055Y003589D01*
X018055Y003711D01*
X018008Y003825D01*
X017933Y003900D01*
X018008Y003975D01*
X018055Y004089D01*
X018055Y004211D01*
X018008Y004325D01*
X017936Y004397D01*
X017943Y004403D01*
X017986Y004446D01*
X018020Y004496D01*
X018043Y004552D01*
X018055Y004612D01*
X018055Y004642D01*
X017588Y004642D01*
X017122Y004642D01*
X017122Y004612D01*
X017133Y004552D01*
X017157Y004496D01*
X017181Y004460D01*
X016496Y004460D01*
X016520Y004496D01*
X016543Y004552D01*
X016555Y004612D01*
X016555Y004642D01*
X016088Y004642D01*
X015622Y004642D01*
X015622Y004612D01*
X015633Y004552D01*
X015640Y004537D01*
X015398Y004778D01*
X015398Y006465D01*
X015683Y006750D01*
X015878Y006750D01*
X015999Y006700D01*
X016178Y006700D01*
X016299Y006750D01*
X017378Y006750D01*
X017499Y006700D01*
X017678Y006700D01*
X017843Y006769D01*
X017970Y006895D01*
X018038Y007060D01*
X018038Y007240D01*
X017970Y007405D01*
X017843Y007531D01*
X017678Y007600D01*
X017499Y007600D01*
X017378Y007550D01*
X016299Y007550D01*
X016178Y007600D01*
X015999Y007600D01*
X015878Y007550D01*
X015252Y007550D01*
X014988Y007813D01*
X014988Y014629D01*
X015005Y014599D01*
X015033Y014571D01*
X015068Y014552D01*
X015106Y014541D01*
X015509Y014541D01*
X015509Y015350D01*
X015609Y015350D01*
X015609Y015450D01*
X016142Y015450D01*
X016142Y016128D01*
X016131Y016167D01*
X016112Y016201D01*
X016084Y016229D01*
X016049Y016248D01*
X016011Y016259D01*
X015609Y016259D01*
X015609Y015450D01*
X015509Y015450D01*
X015509Y016259D01*
X015106Y016259D01*
X015068Y016248D01*
X015033Y016229D01*
X015005Y016201D01*
X014988Y016171D01*
X014988Y016971D01*
X015071Y017465D01*
X015109Y017465D01*
X015572Y017114D01*
X015572Y016734D01*
X015660Y016646D01*
X016414Y016646D01*
X016502Y016734D01*
X016502Y017566D01*
X016414Y017654D01*
X015885Y017654D01*
X015418Y018009D01*
X015389Y018038D01*
X015369Y018046D01*
X015352Y018059D01*
X015313Y018070D01*
X015275Y018085D01*
X015253Y018085D01*
X015232Y018091D01*
X015192Y018085D01*
X015113Y018085D01*
X015113Y019279D01*
X015014Y019518D01*
X014832Y019701D01*
X014731Y019743D01*
X015952Y019743D01*
X015716Y019507D01*
X015583Y019183D01*
X015583Y018833D01*
X015716Y018510D01*
X015964Y018262D01*
X016287Y018128D01*
X016637Y018128D01*
X016961Y018262D01*
X017208Y018510D01*
X017342Y018833D01*
X017342Y019183D01*
X017208Y019507D01*
X016973Y019743D01*
X017292Y019743D01*
X018181Y017965D01*
X018181Y002335D01*
X017292Y000557D01*
X016973Y000557D01*
X017208Y000793D01*
X017342Y001117D01*
X017342Y001467D01*
X017208Y001790D01*
X016961Y002038D01*
X016637Y002172D01*
X016287Y002172D01*
X015964Y002038D01*
X015716Y001790D01*
X015583Y001467D01*
X015583Y001117D01*
X015716Y000793D01*
X015952Y000557D01*
X003193Y000557D01*
X003429Y000793D01*
X003563Y001117D01*
X003563Y001467D01*
X003429Y001790D01*
X003181Y002038D01*
X002858Y002172D01*
X002508Y002172D01*
X002184Y002038D01*
X001937Y001790D01*
X001803Y001467D01*
X001870Y001628D02*
X001318Y001628D01*
X001269Y001726D02*
X001910Y001726D01*
X001971Y001825D02*
X001220Y001825D01*
X001170Y001923D02*
X002070Y001923D01*
X002168Y002022D02*
X001121Y002022D01*
X001072Y002120D02*
X002383Y002120D01*
X002133Y002709D02*
X001942Y002630D01*
X001735Y002630D01*
X001544Y002709D01*
X001398Y002855D01*
X001318Y003047D01*
X001318Y003253D01*
X001398Y003445D01*
X001544Y003591D01*
X001687Y003650D01*
X001544Y003709D01*
X001398Y003855D01*
X001318Y004047D01*
X001318Y004253D01*
X001398Y004445D01*
X001544Y004591D01*
X001687Y004650D01*
X001544Y004709D01*
X001398Y004855D01*
X001318Y005047D01*
X001318Y005253D01*
X001398Y005445D01*
X001544Y005591D01*
X001687Y005650D01*
X001544Y005709D01*
X001398Y005855D01*
X001318Y006047D01*
X001318Y006253D01*
X001398Y006445D01*
X001544Y006591D01*
X001690Y006651D01*
X001639Y006668D01*
X001566Y006705D01*
X001500Y006753D01*
X001442Y006811D01*
X001394Y006877D01*
X001357Y006950D01*
X001331Y007028D01*
X001320Y007100D01*
X001788Y007100D01*
X001788Y007200D01*
X001320Y007200D01*
X001331Y007272D01*
X001357Y007350D01*
X001394Y007423D01*
X001442Y007489D01*
X001500Y007547D01*
X001566Y007595D01*
X001639Y007632D01*
X001695Y007650D01*
X001639Y007668D01*
X001566Y007705D01*
X001500Y007753D01*
X001442Y007811D01*
X001394Y007877D01*
X001357Y007950D01*
X001331Y008028D01*
X001320Y008100D01*
X001788Y008100D01*
X001788Y008200D01*
X001320Y008200D01*
X001331Y008272D01*
X001357Y008350D01*
X001394Y008423D01*
X001442Y008489D01*
X001500Y008547D01*
X001566Y008595D01*
X001639Y008632D01*
X001717Y008657D01*
X001788Y008669D01*
X001788Y008200D01*
X001888Y008200D01*
X001888Y008669D01*
X001960Y008657D01*
X002038Y008632D01*
X002111Y008595D01*
X002177Y008547D01*
X002235Y008489D01*
X002283Y008423D01*
X002320Y008350D01*
X002346Y008272D01*
X002357Y008200D01*
X001888Y008200D01*
X001888Y008100D01*
X001888Y007631D01*
X001888Y007200D01*
X001788Y007200D01*
X001788Y008100D01*
X001888Y008100D01*
X002357Y008100D01*
X002346Y008028D01*
X002320Y007950D01*
X002283Y007877D01*
X002235Y007811D01*
X002177Y007753D01*
X002111Y007705D01*
X002038Y007668D01*
X001982Y007650D01*
X002038Y007632D01*
X002111Y007595D01*
X002177Y007547D01*
X002235Y007489D01*
X002283Y007423D01*
X002320Y007350D01*
X002346Y007272D01*
X002357Y007200D01*
X001888Y007200D01*
X001888Y007100D01*
X002357Y007100D01*
X002346Y007028D01*
X002320Y006950D01*
X002283Y006877D01*
X002235Y006811D01*
X002177Y006753D01*
X002111Y006705D01*
X002038Y006668D01*
X001987Y006651D01*
X002133Y006591D01*
X002279Y006445D01*
X002358Y006253D01*
X002358Y006047D01*
X002279Y005855D01*
X002133Y005709D01*
X001990Y005650D01*
X002133Y005591D01*
X002279Y005445D01*
X002358Y005253D01*
X002358Y005047D01*
X002279Y004855D01*
X002133Y004709D01*
X001990Y004650D01*
X002133Y004591D01*
X002279Y004445D01*
X002358Y004253D01*
X002358Y004047D01*
X002279Y003855D01*
X002133Y003709D01*
X001990Y003650D01*
X002133Y003591D01*
X002279Y003445D01*
X002358Y003253D01*
X002358Y003047D01*
X002279Y002855D01*
X002133Y002709D01*
X002135Y002711D02*
X018181Y002711D01*
X018181Y002613D02*
X000964Y002613D01*
X000964Y002711D02*
X001542Y002711D01*
X001444Y002810D02*
X000964Y002810D01*
X000964Y002908D02*
X001376Y002908D01*
X001335Y003007D02*
X000964Y003007D01*
X000964Y003105D02*
X001318Y003105D01*
X001318Y003204D02*
X000964Y003204D01*
X000964Y003302D02*
X001339Y003302D01*
X001379Y003401D02*
X000964Y003401D01*
X000964Y003499D02*
X001452Y003499D01*
X001560Y003598D02*
X000964Y003598D01*
X000964Y003696D02*
X001576Y003696D01*
X001459Y003795D02*
X000964Y003795D01*
X000964Y003893D02*
X001382Y003893D01*
X001341Y003992D02*
X000964Y003992D01*
X000964Y004090D02*
X001318Y004090D01*
X001318Y004189D02*
X000964Y004189D01*
X000964Y004287D02*
X001332Y004287D01*
X001373Y004386D02*
X000964Y004386D01*
X000964Y004484D02*
X001437Y004484D01*
X001536Y004583D02*
X000964Y004583D01*
X000964Y004681D02*
X001612Y004681D01*
X001474Y004780D02*
X000964Y004780D01*
X000964Y004878D02*
X001388Y004878D01*
X001347Y004977D02*
X000964Y004977D01*
X000964Y005075D02*
X001318Y005075D01*
X001318Y005174D02*
X000964Y005174D01*
X000964Y005272D02*
X001326Y005272D01*
X001367Y005371D02*
X000964Y005371D01*
X000964Y005469D02*
X001422Y005469D01*
X001521Y005568D02*
X000964Y005568D01*
X000964Y005666D02*
X001648Y005666D01*
X001489Y005765D02*
X000964Y005765D01*
X000964Y005863D02*
X001394Y005863D01*
X001354Y005962D02*
X000964Y005962D01*
X000964Y006060D02*
X001318Y006060D01*
X001318Y006159D02*
X000964Y006159D01*
X000964Y006257D02*
X001320Y006257D01*
X001361Y006356D02*
X000964Y006356D01*
X000964Y006454D02*
X001407Y006454D01*
X001506Y006553D02*
X000964Y006553D01*
X000964Y006651D02*
X001689Y006651D01*
X001505Y006750D02*
X000964Y006750D01*
X000964Y006848D02*
X001415Y006848D01*
X001359Y006947D02*
X000964Y006947D01*
X000964Y007045D02*
X001329Y007045D01*
X001327Y007242D02*
X000964Y007242D01*
X000964Y007144D02*
X001788Y007144D01*
X001788Y007242D02*
X001888Y007242D01*
X001888Y007144D02*
X002762Y007144D01*
X002762Y007242D02*
X002350Y007242D01*
X002323Y007341D02*
X002762Y007341D01*
X002762Y007439D02*
X002271Y007439D01*
X002186Y007538D02*
X002762Y007538D01*
X002762Y007636D02*
X002025Y007636D01*
X001888Y007636D02*
X001788Y007636D01*
X001788Y007538D02*
X001888Y007538D01*
X001888Y007439D02*
X001788Y007439D01*
X001788Y007341D02*
X001888Y007341D01*
X001651Y007636D02*
X000964Y007636D01*
X000964Y007538D02*
X001491Y007538D01*
X001406Y007439D02*
X000964Y007439D01*
X000964Y007341D02*
X001354Y007341D01*
X001526Y007735D02*
X000964Y007735D01*
X000964Y007833D02*
X001426Y007833D01*
X001366Y007932D02*
X000964Y007932D01*
X000964Y008030D02*
X001331Y008030D01*
X001324Y008227D02*
X000964Y008227D01*
X000964Y008129D02*
X001788Y008129D01*
X001788Y008227D02*
X001888Y008227D01*
X001888Y008129D02*
X003034Y008129D01*
X003133Y008227D02*
X002353Y008227D01*
X002328Y008326D02*
X003231Y008326D01*
X003304Y008424D02*
X002282Y008424D01*
X002201Y008523D02*
X003304Y008523D01*
X003304Y008621D02*
X002059Y008621D01*
X001888Y008621D02*
X001788Y008621D01*
X001788Y008523D02*
X001888Y008523D01*
X001888Y008424D02*
X001788Y008424D01*
X001788Y008326D02*
X001888Y008326D01*
X001617Y008621D02*
X000964Y008621D01*
X000964Y008523D02*
X001476Y008523D01*
X001395Y008424D02*
X000964Y008424D01*
X000964Y008326D02*
X001349Y008326D01*
X001788Y008030D02*
X001888Y008030D01*
X001888Y007932D02*
X001788Y007932D01*
X001788Y007833D02*
X001888Y007833D01*
X001888Y007735D02*
X001788Y007735D01*
X002151Y007735D02*
X002838Y007735D01*
X002929Y007833D02*
X002251Y007833D01*
X002311Y007932D02*
X002929Y007932D01*
X002936Y008030D02*
X002346Y008030D01*
X003129Y007940D02*
X003129Y007400D01*
X003420Y007735D02*
X003507Y007735D01*
X003598Y007833D02*
X003329Y007833D01*
X003403Y007932D02*
X003598Y007932D01*
X003686Y008030D02*
X003501Y008030D01*
X003600Y008129D02*
X003784Y008129D01*
X003698Y008227D02*
X003883Y008227D01*
X003981Y008326D02*
X003704Y008326D01*
X003704Y008424D02*
X004080Y008424D01*
X004178Y008523D02*
X003704Y008523D01*
X003704Y008621D02*
X004277Y008621D01*
X004375Y008720D02*
X003704Y008720D01*
X003704Y008818D02*
X004474Y008818D01*
X004588Y008650D02*
X005588Y008650D01*
X005828Y008523D02*
X006443Y008523D01*
X006297Y008424D02*
X005744Y008424D01*
X005795Y008326D02*
X006198Y008326D01*
X006100Y008227D02*
X005849Y008227D01*
X005858Y008129D02*
X006001Y008129D01*
X005903Y008030D02*
X005831Y008030D01*
X005804Y007932D02*
X005752Y007932D01*
X005731Y007833D02*
X004804Y007833D01*
X004706Y007735D02*
X005690Y007735D01*
X005688Y007636D02*
X004607Y007636D01*
X004538Y007538D02*
X004848Y007538D01*
X004741Y007439D02*
X004538Y007439D01*
X004538Y007341D02*
X004680Y007341D01*
X004639Y007242D02*
X004538Y007242D01*
X004538Y007144D02*
X004638Y007144D01*
X004645Y007045D02*
X004538Y007045D01*
X004538Y006947D02*
X004686Y006947D01*
X004754Y006848D02*
X004444Y006848D01*
X004346Y006750D02*
X004879Y006750D01*
X004888Y006651D02*
X004247Y006651D01*
X004212Y006553D02*
X004888Y006553D01*
X004888Y006454D02*
X004212Y006454D01*
X004212Y006356D02*
X004888Y006356D01*
X004888Y006257D02*
X004268Y006257D01*
X004290Y006159D02*
X004888Y006159D01*
X004888Y006060D02*
X004290Y006060D01*
X004290Y005962D02*
X004888Y005962D01*
X004888Y005863D02*
X004290Y005863D01*
X004290Y005765D02*
X004888Y005765D01*
X004888Y005666D02*
X004258Y005666D01*
X004212Y005568D02*
X004888Y005568D01*
X004888Y005469D02*
X004212Y005469D01*
X004212Y005371D02*
X004888Y005371D01*
X004888Y005272D02*
X004212Y005272D01*
X004212Y005174D02*
X004888Y005174D01*
X004888Y005075D02*
X004212Y005075D01*
X004212Y004977D02*
X004888Y004977D01*
X004888Y004878D02*
X004212Y004878D01*
X004212Y004780D02*
X004888Y004780D01*
X004888Y004681D02*
X004212Y004681D01*
X004290Y004583D02*
X004888Y004583D01*
X004972Y004484D02*
X004290Y004484D01*
X004290Y004386D02*
X005070Y004386D01*
X005169Y004287D02*
X004290Y004287D01*
X004290Y004189D02*
X005267Y004189D01*
X005280Y004090D02*
X004290Y004090D01*
X004217Y003992D02*
X005280Y003992D01*
X005295Y003893D02*
X002295Y003893D01*
X002336Y003992D02*
X002971Y003992D01*
X002979Y003987D02*
X003018Y003976D01*
X003151Y003976D01*
X003151Y004319D01*
X002887Y004319D01*
X002887Y004107D01*
X002897Y004068D01*
X002917Y004034D01*
X002945Y004006D01*
X002979Y003987D01*
X002892Y004090D02*
X002358Y004090D01*
X002358Y004189D02*
X002887Y004189D01*
X002887Y004287D02*
X002345Y004287D01*
X002304Y004386D02*
X002887Y004386D01*
X002887Y004347D02*
X003151Y004347D01*
X003151Y004319D01*
X003179Y004319D01*
X003179Y003976D01*
X003313Y003976D01*
X003351Y003987D01*
X003385Y004006D01*
X003413Y004034D01*
X003433Y004068D01*
X003443Y004107D01*
X003443Y004319D01*
X003179Y004319D01*
X003179Y004347D01*
X003151Y004347D01*
X003151Y004690D01*
X003018Y004690D01*
X002979Y004680D01*
X002945Y004660D01*
X002917Y004632D01*
X002897Y004598D01*
X002887Y004560D01*
X002887Y004347D01*
X002887Y004484D02*
X002240Y004484D01*
X002141Y004583D02*
X002893Y004583D01*
X002985Y004681D02*
X002065Y004681D01*
X002203Y004780D02*
X003812Y004780D01*
X003812Y004878D02*
X002289Y004878D01*
X002329Y004977D02*
X003812Y004977D01*
X003812Y005075D02*
X002358Y005075D01*
X002358Y005174D02*
X003812Y005174D01*
X003812Y005272D02*
X002351Y005272D01*
X002310Y005371D02*
X003812Y005371D01*
X003812Y005469D02*
X002255Y005469D01*
X002156Y005568D02*
X003812Y005568D01*
X003766Y005666D02*
X003411Y005666D01*
X003413Y005668D02*
X003433Y005702D01*
X003443Y005740D01*
X003443Y005953D01*
X003179Y005953D01*
X003179Y005610D01*
X003313Y005610D01*
X003351Y005620D01*
X003385Y005640D01*
X003413Y005668D01*
X003443Y005765D02*
X003734Y005765D01*
X003734Y005863D02*
X003443Y005863D01*
X003443Y005981D02*
X003443Y006193D01*
X003433Y006232D01*
X003413Y006266D01*
X003385Y006294D01*
X003351Y006313D01*
X003313Y006324D01*
X003179Y006324D01*
X003179Y005981D01*
X003151Y005981D01*
X003151Y005953D01*
X002887Y005953D01*
X002887Y005740D01*
X002897Y005702D01*
X002917Y005668D01*
X002945Y005640D01*
X002979Y005620D01*
X003018Y005610D01*
X003151Y005610D01*
X003151Y005953D01*
X003179Y005953D01*
X003179Y005981D01*
X003443Y005981D01*
X003443Y006060D02*
X003734Y006060D01*
X003734Y005962D02*
X003179Y005962D01*
X003151Y005962D02*
X002323Y005962D01*
X002358Y006060D02*
X002887Y006060D01*
X002887Y005981D02*
X002887Y006193D01*
X002897Y006232D01*
X002917Y006266D01*
X002945Y006294D01*
X002979Y006313D01*
X003018Y006324D01*
X003151Y006324D01*
X003151Y005981D01*
X002887Y005981D01*
X002887Y005863D02*
X002282Y005863D01*
X002188Y005765D02*
X002887Y005765D01*
X002919Y005666D02*
X002029Y005666D01*
X002358Y006159D02*
X002887Y006159D01*
X002912Y006257D02*
X002357Y006257D01*
X002316Y006356D02*
X003812Y006356D01*
X003812Y006454D02*
X002270Y006454D01*
X002171Y006553D02*
X003812Y006553D01*
X003812Y006651D02*
X001988Y006651D01*
X002172Y006750D02*
X003812Y006750D01*
X003879Y006848D02*
X002262Y006848D01*
X002318Y006947D02*
X003977Y006947D01*
X004076Y007045D02*
X002348Y007045D01*
X003151Y006257D02*
X003179Y006257D01*
X003179Y006159D02*
X003151Y006159D01*
X003151Y006060D02*
X003179Y006060D01*
X003179Y005863D02*
X003151Y005863D01*
X003151Y005765D02*
X003179Y005765D01*
X003179Y005666D02*
X003151Y005666D01*
X003443Y006159D02*
X003734Y006159D01*
X003755Y006257D02*
X003418Y006257D01*
X004012Y005967D02*
X004012Y006698D01*
X004338Y007025D01*
X004338Y007650D01*
X004838Y008150D01*
X005588Y008150D01*
X005425Y007932D02*
X004903Y007932D01*
X005329Y007538D02*
X005688Y007538D01*
X005688Y007439D02*
X005436Y007439D01*
X005497Y007341D02*
X005680Y007341D01*
X005639Y007242D02*
X005537Y007242D01*
X005538Y007144D02*
X005638Y007144D01*
X005645Y007045D02*
X005532Y007045D01*
X005491Y006947D02*
X005686Y006947D01*
X005688Y006848D02*
X005423Y006848D01*
X005297Y006750D02*
X005688Y006750D01*
X005688Y006651D02*
X005288Y006651D01*
X005288Y006553D02*
X005688Y006553D01*
X005688Y006454D02*
X005288Y006454D01*
X005288Y006356D02*
X005688Y006356D01*
X005688Y006257D02*
X005288Y006257D01*
X005288Y006159D02*
X005688Y006159D01*
X005688Y006060D02*
X005288Y006060D01*
X005288Y005962D02*
X005688Y005962D01*
X005688Y005863D02*
X005288Y005863D01*
X005288Y005765D02*
X005688Y005765D01*
X005688Y005666D02*
X005288Y005666D01*
X005288Y005568D02*
X005688Y005568D01*
X005688Y005469D02*
X005288Y005469D01*
X005288Y005371D02*
X005688Y005371D01*
X005688Y005272D02*
X005288Y005272D01*
X005288Y005174D02*
X005688Y005174D01*
X005703Y005075D02*
X005288Y005075D01*
X005288Y004977D02*
X005744Y004977D01*
X005778Y004878D02*
X005288Y004878D01*
X005288Y004780D02*
X005778Y004780D01*
X005778Y004681D02*
X005340Y004681D01*
X005439Y004583D02*
X005444Y004583D01*
X005733Y004583D02*
X005778Y004583D01*
X005588Y004150D02*
X005088Y004650D01*
X005088Y007150D01*
X004026Y008088D02*
X004588Y008650D01*
X004512Y009114D02*
X004916Y009114D01*
X004887Y009212D02*
X004540Y009212D01*
X004540Y009311D02*
X004887Y009311D01*
X004887Y009448D02*
X005205Y009448D01*
X005205Y009747D01*
X005018Y009747D01*
X004979Y009737D01*
X004945Y009717D01*
X004917Y009689D01*
X004897Y009655D01*
X004887Y009617D01*
X004887Y009448D01*
X004887Y009508D02*
X004540Y009508D01*
X004540Y009606D02*
X004887Y009606D01*
X004933Y009705D02*
X004494Y009705D01*
X004373Y009803D02*
X006287Y009803D01*
X006287Y009705D02*
X006244Y009705D01*
X006287Y009902D02*
X004373Y009902D01*
X004373Y010000D02*
X006287Y010000D01*
X006231Y010099D02*
X006153Y010099D01*
X005897Y010524D02*
X005897Y011333D01*
X006213Y011650D01*
X008463Y011650D01*
X008713Y011400D01*
X008713Y010275D01*
X009088Y009900D01*
X010463Y009900D01*
X010963Y009400D01*
X010963Y008598D01*
X010972Y008589D01*
X010716Y008589D02*
X010716Y008589D01*
X010716Y008589D01*
X010716Y008164D01*
X010628Y008164D01*
X010599Y008172D01*
X010591Y008164D01*
X009562Y008164D01*
X009410Y008164D01*
X009410Y007836D01*
X009489Y007757D01*
X011317Y007761D01*
X011529Y007972D01*
X011529Y008164D01*
X010842Y008164D01*
X010834Y008172D01*
X010805Y008164D01*
X010716Y008164D01*
X010716Y008589D01*
X010716Y009014D01*
X010648Y009014D01*
X010648Y009291D01*
X010667Y009335D01*
X010667Y009414D01*
X010763Y009317D01*
X010763Y009014D01*
X010716Y009014D01*
X010716Y008589D01*
X010716Y008621D02*
X010716Y008621D01*
X010716Y008523D02*
X010716Y008523D01*
X010716Y008424D02*
X010716Y008424D01*
X010716Y008326D02*
X010716Y008326D01*
X010716Y008227D02*
X010716Y008227D01*
X010716Y008720D02*
X010716Y008720D01*
X010716Y008818D02*
X010716Y008818D01*
X010716Y008917D02*
X010716Y008917D01*
X010763Y009015D02*
X010648Y009015D01*
X010648Y009114D02*
X010763Y009114D01*
X010763Y009212D02*
X010648Y009212D01*
X010657Y009311D02*
X010763Y009311D01*
X010672Y009409D02*
X010667Y009409D01*
X011228Y009510D02*
X010588Y010150D01*
X009213Y010150D01*
X008963Y010400D01*
X008963Y011525D01*
X008588Y011900D01*
X005838Y011900D01*
X005306Y011368D01*
X005306Y010524D01*
X005562Y010099D02*
X005640Y010099D01*
X005602Y009705D02*
X005575Y009705D01*
X005302Y009705D02*
X005205Y009705D01*
X005205Y009606D02*
X005302Y009606D01*
X005302Y009508D02*
X005205Y009508D01*
X005205Y009409D02*
X004540Y009409D01*
X004173Y009400D02*
X004173Y010476D01*
X004125Y010524D01*
X004420Y010910D02*
X004364Y010966D01*
X003886Y010966D01*
X003844Y010925D01*
X003844Y011967D01*
X004703Y012715D01*
X007508Y012715D01*
X007655Y012776D01*
X007768Y012888D01*
X008068Y013189D01*
X008068Y013096D01*
X008110Y012997D01*
X008185Y012921D01*
X008285Y012880D01*
X008392Y012880D01*
X008491Y012921D01*
X008520Y012950D01*
X008867Y012950D01*
X008867Y012787D01*
X008954Y012699D01*
X009472Y012699D01*
X009560Y012787D01*
X009560Y013344D01*
X009504Y013400D01*
X009560Y013456D01*
X009560Y014013D01*
X009484Y014090D01*
X010193Y014090D01*
X010117Y014013D01*
X010117Y013456D01*
X010173Y013400D01*
X010117Y013344D01*
X010117Y013265D01*
X010083Y013265D01*
X010067Y013303D01*
X009991Y013379D01*
X009892Y013420D01*
X009785Y013420D01*
X009685Y013379D01*
X009610Y013303D01*
X009568Y013204D01*
X009568Y013096D01*
X009610Y012997D01*
X009685Y012921D01*
X009785Y012880D01*
X009826Y012880D01*
X009840Y012865D01*
X010117Y012865D01*
X010117Y012787D01*
X010204Y012699D01*
X010263Y012699D01*
X010263Y012608D01*
X010006Y012350D01*
X009888Y012233D01*
X009888Y012101D01*
X009753Y012101D01*
X009665Y012013D01*
X009665Y011633D01*
X009753Y011545D01*
X010290Y011545D01*
X010368Y011623D01*
X011309Y011623D01*
X011387Y011545D01*
X011924Y011545D01*
X012012Y011633D01*
X012012Y012013D01*
X011924Y012101D01*
X011387Y012101D01*
X011309Y012023D01*
X010368Y012023D01*
X010306Y012085D01*
X010663Y012442D01*
X010663Y012699D01*
X010722Y012699D01*
X010810Y012787D01*
X010810Y013344D01*
X010754Y013400D01*
X010810Y013456D01*
X010810Y014013D01*
X010734Y014090D01*
X012830Y014090D01*
X012830Y013904D01*
X012763Y013904D01*
X012675Y013816D01*
X012675Y012984D01*
X012763Y012896D01*
X012830Y012896D01*
X012830Y010937D01*
X012761Y010869D01*
X012702Y010727D01*
X012702Y010573D01*
X012761Y010431D01*
X012858Y010334D01*
X012858Y010226D01*
X012829Y010226D01*
X012742Y010138D01*
X012742Y009581D01*
X012798Y009525D01*
X012772Y009499D01*
X012752Y009465D01*
X012742Y009427D01*
X012742Y009239D01*
X013040Y009239D01*
X013040Y009142D01*
X012742Y009142D01*
X012742Y008954D01*
X012752Y008916D01*
X012772Y008882D01*
X012799Y008854D01*
X012834Y008834D01*
X012872Y008824D01*
X013040Y008824D01*
X013040Y009142D01*
X013137Y009142D01*
X013137Y009239D01*
X013435Y009239D01*
X013435Y009427D01*
X013425Y009465D01*
X013405Y009499D01*
X013379Y009525D01*
X013435Y009581D01*
X013435Y010138D01*
X013347Y010226D01*
X013318Y010226D01*
X013318Y010334D01*
X013416Y010431D01*
X013475Y010573D01*
X013475Y010727D01*
X013450Y010787D01*
X013450Y012896D01*
X013517Y012896D01*
X013605Y012984D01*
X013605Y013816D01*
X013517Y013904D01*
X013450Y013904D01*
X013450Y014100D01*
X013621Y014100D01*
X013688Y014168D01*
X013688Y007813D01*
X013425Y007550D01*
X012627Y007550D01*
X012183Y007994D01*
X012183Y008221D01*
X012214Y008252D01*
X012214Y008927D01*
X012127Y009014D01*
X011927Y009014D01*
X011921Y009017D01*
X011791Y009017D01*
X011785Y009014D01*
X011684Y009014D01*
X011684Y009712D01*
X010796Y010600D01*
X009421Y010600D01*
X009413Y010608D01*
X009413Y011733D01*
X009296Y011850D01*
X008796Y012350D01*
X005381Y012350D01*
X005263Y012233D01*
X004515Y011485D01*
X004515Y010966D01*
X004476Y010966D01*
X004420Y010910D01*
X004515Y010985D02*
X003844Y010985D01*
X003844Y011084D02*
X004515Y011084D01*
X004515Y011182D02*
X003844Y011182D01*
X003844Y011281D02*
X004515Y011281D01*
X004515Y011379D02*
X003844Y011379D01*
X003844Y011478D02*
X004515Y011478D01*
X004607Y011576D02*
X003844Y011576D01*
X003844Y011675D02*
X004705Y011675D01*
X004804Y011773D02*
X003844Y011773D01*
X003844Y011872D02*
X004902Y011872D01*
X005001Y011970D02*
X003847Y011970D01*
X003960Y012069D02*
X005099Y012069D01*
X005198Y012167D02*
X004074Y012167D01*
X004187Y012266D02*
X005296Y012266D01*
X005463Y012150D02*
X008713Y012150D01*
X009213Y011650D01*
X009213Y010525D01*
X009338Y010400D01*
X010713Y010400D01*
X011484Y009629D01*
X011484Y008589D01*
X011228Y008589D02*
X011228Y009510D01*
X011684Y009508D02*
X012780Y009508D01*
X012742Y009606D02*
X011684Y009606D01*
X011684Y009705D02*
X012742Y009705D01*
X012742Y009803D02*
X011593Y009803D01*
X011495Y009902D02*
X012742Y009902D01*
X012742Y010000D02*
X011396Y010000D01*
X011298Y010099D02*
X012742Y010099D01*
X012800Y010197D02*
X011199Y010197D01*
X011101Y010296D02*
X012858Y010296D01*
X012798Y010394D02*
X011002Y010394D01*
X010904Y010493D02*
X012736Y010493D01*
X012702Y010591D02*
X010805Y010591D01*
X010368Y010791D02*
X010378Y010829D01*
X010378Y010963D01*
X010035Y010963D01*
X010035Y010699D01*
X010248Y010699D01*
X010286Y010709D01*
X010320Y010729D01*
X010348Y010757D01*
X010368Y010791D01*
X010366Y010788D02*
X011311Y010788D01*
X011309Y010791D02*
X011329Y010757D01*
X011357Y010729D01*
X011391Y010709D01*
X011429Y010699D01*
X011641Y010699D01*
X011641Y010963D01*
X011299Y010963D01*
X011299Y010829D01*
X011309Y010791D01*
X011299Y010887D02*
X010378Y010887D01*
X010378Y010991D02*
X010378Y011124D01*
X010368Y011163D01*
X010348Y011197D01*
X010320Y011225D01*
X010286Y011245D01*
X010248Y011255D01*
X010035Y011255D01*
X010035Y010991D01*
X010008Y010991D01*
X010008Y011255D01*
X009795Y011255D01*
X009757Y011245D01*
X009723Y011225D01*
X009695Y011197D01*
X009675Y011163D01*
X009665Y011124D01*
X009665Y010991D01*
X010008Y010991D01*
X010008Y010963D01*
X010035Y010963D01*
X010035Y010991D01*
X010378Y010991D01*
X010378Y011084D02*
X011299Y011084D01*
X011299Y011124D02*
X011299Y010991D01*
X011641Y010991D01*
X011641Y010963D01*
X011669Y010963D01*
X011669Y010699D01*
X011882Y010699D01*
X011920Y010709D01*
X011954Y010729D01*
X011982Y010757D01*
X012002Y010791D01*
X012012Y010829D01*
X012012Y010963D01*
X011669Y010963D01*
X011669Y010991D01*
X011641Y010991D01*
X011641Y011255D01*
X011429Y011255D01*
X011391Y011245D01*
X011357Y011225D01*
X011329Y011197D01*
X011309Y011163D01*
X011299Y011124D01*
X011320Y011182D02*
X010357Y011182D01*
X010321Y011576D02*
X011356Y011576D01*
X011655Y011823D02*
X010022Y011823D01*
X010088Y011890D01*
X010088Y012150D01*
X010463Y012525D01*
X010463Y013065D01*
X009923Y013065D01*
X009838Y013150D01*
X009568Y013152D02*
X009560Y013152D01*
X009560Y013054D02*
X009586Y013054D01*
X009560Y012955D02*
X009652Y012955D01*
X009560Y012857D02*
X010117Y012857D01*
X010145Y012758D02*
X009532Y012758D01*
X009213Y013065D02*
X009129Y013150D01*
X008338Y013150D01*
X008068Y013152D02*
X008031Y013152D01*
X008086Y013054D02*
X007933Y013054D01*
X007834Y012955D02*
X008152Y012955D01*
X007736Y012857D02*
X008867Y012857D01*
X008895Y012758D02*
X007612Y012758D01*
X007488Y013741D02*
X007488Y015399D01*
X007535Y015380D01*
X007642Y015380D01*
X007741Y015421D01*
X007817Y015497D01*
X007858Y015596D01*
X007858Y015637D01*
X008038Y015817D01*
X008038Y016483D01*
X007921Y016600D01*
X007788Y016733D01*
X007788Y017084D01*
X007907Y017084D01*
X007963Y017140D01*
X008019Y017084D01*
X008498Y017084D01*
X008586Y017172D01*
X008586Y017326D01*
X008906Y017326D01*
X008935Y017296D01*
X009035Y017255D01*
X009142Y017255D01*
X009241Y017296D01*
X009317Y017372D01*
X009358Y017471D01*
X009358Y017579D01*
X009317Y017678D01*
X009241Y017754D01*
X009142Y017795D01*
X009035Y017795D01*
X008935Y017754D01*
X008908Y017726D01*
X008586Y017726D01*
X008586Y017880D01*
X009813Y017880D01*
X009813Y017782D02*
X009175Y017782D01*
X009312Y017683D02*
X009813Y017683D01*
X009813Y017585D02*
X009356Y017585D01*
X009358Y017486D02*
X009813Y017486D01*
X009813Y017388D02*
X009324Y017388D01*
X009224Y017289D02*
X009813Y017289D01*
X009813Y017191D02*
X008586Y017191D01*
X008586Y017289D02*
X008953Y017289D01*
X009088Y017525D02*
X009087Y017526D01*
X008259Y017526D01*
X008586Y017782D02*
X009002Y017782D01*
X008586Y017880D02*
X008498Y017968D01*
X008019Y017968D01*
X007963Y017912D01*
X007907Y017968D01*
X007429Y017968D01*
X007373Y017912D01*
X007317Y017968D01*
X006838Y017968D01*
X006782Y017912D01*
X006756Y017938D01*
X006722Y017958D01*
X006684Y017968D01*
X006526Y017968D01*
X006526Y017565D01*
X006448Y017565D01*
X006448Y017968D01*
X006290Y017968D01*
X006252Y017958D01*
X006218Y017938D01*
X006192Y017912D01*
X006136Y017968D01*
X005657Y017968D01*
X005601Y017912D01*
X005545Y017968D01*
X005067Y017968D01*
X005011Y017912D01*
X004997Y017926D01*
X005116Y018046D01*
X005192Y018122D01*
X005233Y018221D01*
X005233Y018460D01*
X005279Y018505D01*
X005648Y018505D01*
X005725Y018428D01*
X006282Y018428D01*
X006338Y018484D01*
X006394Y018428D01*
X006952Y018428D01*
X007029Y018505D01*
X007644Y018505D01*
X007653Y018497D01*
X007773Y018447D01*
X007904Y018447D01*
X008024Y018497D01*
X008117Y018589D01*
X008167Y018710D01*
X008167Y018840D01*
X008117Y018961D01*
X008024Y019053D01*
X007904Y019103D01*
X007773Y019103D01*
X007653Y019053D01*
X007644Y019045D01*
X007029Y019045D01*
X006952Y019122D01*
X006394Y019122D01*
X006338Y019066D01*
X006282Y019122D01*
X005725Y019122D01*
X005648Y019045D01*
X005279Y019045D01*
X005202Y019122D01*
X004644Y019122D01*
X004588Y019066D01*
X004562Y019092D01*
X004528Y019112D01*
X004490Y019122D01*
X004302Y019122D01*
X004302Y018823D01*
X004205Y018823D01*
X004205Y018727D01*
X003887Y018727D01*
X003887Y018558D01*
X003897Y018520D01*
X003917Y018486D01*
X003945Y018458D01*
X003979Y018438D01*
X004018Y018428D01*
X004205Y018428D01*
X004205Y018727D01*
X004302Y018727D01*
X004302Y018428D01*
X004490Y018428D01*
X004528Y018438D01*
X004562Y018458D01*
X004588Y018484D01*
X004644Y018428D01*
X004693Y018428D01*
X004693Y018387D01*
X004487Y018180D01*
X004445Y018081D01*
X004445Y017938D01*
X004420Y017912D01*
X004364Y017968D01*
X003886Y017968D01*
X003830Y017912D01*
X003804Y017938D01*
X003769Y017958D01*
X003731Y017968D01*
X003573Y017968D01*
X003573Y017565D01*
X003496Y017565D01*
X003496Y017968D01*
X003338Y017968D01*
X003338Y018419D01*
X003429Y018510D01*
X003563Y018833D01*
X003563Y019183D01*
X003429Y019507D01*
X003338Y019597D01*
X003338Y019743D01*
X010945Y019743D01*
X010804Y019671D01*
X009886Y018600D01*
X009805Y018354D01*
X009813Y018250D01*
X009813Y016411D01*
X009797Y016427D01*
X009739Y016466D01*
X009674Y016493D01*
X009605Y016507D01*
X009589Y016507D01*
X009589Y016169D01*
X009551Y016169D01*
X009551Y016507D01*
X009535Y016507D01*
X009466Y016493D01*
X009401Y016466D01*
X009342Y016427D01*
X009293Y016377D01*
X009254Y016319D01*
X009227Y016254D01*
X009213Y016185D01*
X009213Y016169D01*
X009551Y016169D01*
X009551Y016131D01*
X009589Y016131D01*
X009589Y015793D01*
X009605Y015793D01*
X009674Y015807D01*
X009739Y015834D01*
X009797Y015873D01*
X009847Y015923D01*
X009851Y015929D01*
X009912Y015782D01*
X010095Y015599D01*
X010334Y015500D01*
X010593Y015500D01*
X010832Y015599D01*
X011014Y015782D01*
X011113Y016021D01*
X011113Y018035D01*
X011512Y018500D01*
X013343Y018500D01*
X013582Y018599D01*
X013764Y018782D01*
X013813Y018900D01*
X013813Y017829D01*
X013709Y017205D01*
X013688Y017154D01*
X013688Y017079D01*
X013676Y017004D01*
X013688Y016951D01*
X013688Y016710D01*
X013039Y016710D01*
X013015Y016700D01*
X012616Y016700D01*
X012528Y016612D01*
X012528Y016008D01*
X012616Y015920D01*
X013015Y015920D01*
X013039Y015910D01*
X013688Y015910D01*
X013688Y015715D01*
X013678Y015732D01*
X013651Y015760D01*
X013616Y015780D01*
X013578Y015790D01*
X013168Y015790D01*
X013168Y015450D01*
X013068Y015450D01*
X013068Y015350D01*
X012528Y015350D01*
X012528Y015140D01*
X012539Y015102D01*
X012558Y015068D01*
X012586Y015040D01*
X012621Y015020D01*
X012659Y015010D01*
X013068Y015010D01*
X013068Y015350D01*
X013168Y015350D01*
X013168Y015010D01*
X013578Y015010D01*
X013616Y015020D01*
X013651Y015040D01*
X013678Y015068D01*
X013688Y015085D01*
X013688Y014812D01*
X013621Y014880D01*
X013222Y014880D01*
X013198Y014890D01*
X008724Y014890D01*
X008577Y014829D01*
X007488Y013741D01*
X007488Y013743D02*
X007491Y013743D01*
X007488Y013842D02*
X007589Y013842D01*
X007688Y013940D02*
X007488Y013940D01*
X007488Y014039D02*
X007786Y014039D01*
X007885Y014137D02*
X007488Y014137D01*
X007488Y014236D02*
X007983Y014236D01*
X008082Y014334D02*
X007488Y014334D01*
X007488Y014433D02*
X008180Y014433D01*
X008279Y014531D02*
X007488Y014531D01*
X007488Y014630D02*
X008377Y014630D01*
X008476Y014728D02*
X007488Y014728D01*
X007488Y014827D02*
X008574Y014827D01*
X009213Y014490D02*
X009213Y013735D01*
X009560Y013743D02*
X010117Y013743D01*
X010117Y013645D02*
X009560Y013645D01*
X009560Y013546D02*
X010117Y013546D01*
X010125Y013448D02*
X009552Y013448D01*
X009555Y013349D02*
X009656Y013349D01*
X009588Y013251D02*
X009560Y013251D01*
X010021Y013349D02*
X010122Y013349D01*
X010117Y013842D02*
X009560Y013842D01*
X009560Y013940D02*
X010117Y013940D01*
X010142Y014039D02*
X009535Y014039D01*
X009338Y014365D02*
X009213Y014490D01*
X010080Y015615D02*
X007858Y015615D01*
X007825Y015516D02*
X010295Y015516D01*
X010631Y015516D02*
X012528Y015516D01*
X012528Y015450D02*
X012528Y015660D01*
X012539Y015698D01*
X012558Y015732D01*
X012586Y015760D01*
X012621Y015780D01*
X012659Y015790D01*
X013068Y015790D01*
X013068Y015450D01*
X012528Y015450D01*
X012528Y015319D02*
X007488Y015319D01*
X007488Y015221D02*
X012528Y015221D01*
X012533Y015122D02*
X007488Y015122D01*
X007488Y015024D02*
X012615Y015024D01*
X013068Y015024D02*
X013168Y015024D01*
X013168Y015122D02*
X013068Y015122D01*
X013068Y015221D02*
X013168Y015221D01*
X013168Y015319D02*
X013068Y015319D01*
X013068Y015418D02*
X007733Y015418D01*
X007588Y015650D02*
X007838Y015900D01*
X007838Y016400D01*
X007588Y016650D01*
X007588Y017526D01*
X007668Y017526D01*
X007916Y017092D02*
X008011Y017092D01*
X007788Y016994D02*
X009813Y016994D01*
X009813Y017092D02*
X008506Y017092D01*
X007788Y016895D02*
X009813Y016895D01*
X009813Y016797D02*
X007788Y016797D01*
X007823Y016698D02*
X009813Y016698D01*
X009813Y016600D02*
X007922Y016600D01*
X007921Y016600D02*
X007921Y016600D01*
X008020Y016501D02*
X009506Y016501D01*
X009551Y016501D02*
X009589Y016501D01*
X009633Y016501D02*
X009813Y016501D01*
X009589Y016403D02*
X009551Y016403D01*
X009551Y016304D02*
X009589Y016304D01*
X009589Y016206D02*
X009551Y016206D01*
X009551Y016131D02*
X009213Y016131D01*
X009213Y016115D01*
X009227Y016046D01*
X009254Y015981D01*
X009293Y015923D01*
X009342Y015873D01*
X009401Y015834D01*
X009466Y015807D01*
X009535Y015793D01*
X009551Y015793D01*
X009551Y016131D01*
X009551Y016107D02*
X009589Y016107D01*
X009589Y016009D02*
X009551Y016009D01*
X009551Y015910D02*
X009589Y015910D01*
X009589Y015812D02*
X009551Y015812D01*
X009455Y015812D02*
X008033Y015812D01*
X008038Y015910D02*
X009305Y015910D01*
X009242Y016009D02*
X008038Y016009D01*
X008038Y016107D02*
X009215Y016107D01*
X009217Y016206D02*
X008038Y016206D01*
X008038Y016304D02*
X009247Y016304D01*
X009318Y016403D02*
X008038Y016403D01*
X007934Y015713D02*
X009981Y015713D01*
X009900Y015812D02*
X009685Y015812D01*
X009834Y015910D02*
X009859Y015910D01*
X010847Y015615D02*
X012528Y015615D01*
X012547Y015713D02*
X010946Y015713D01*
X011027Y015812D02*
X013688Y015812D01*
X013168Y015713D02*
X013068Y015713D01*
X013068Y015615D02*
X013168Y015615D01*
X013168Y015516D02*
X013068Y015516D01*
X013039Y015910D02*
X011068Y015910D01*
X011108Y016009D02*
X012528Y016009D01*
X012528Y016107D02*
X011113Y016107D01*
X011113Y016206D02*
X012528Y016206D01*
X012528Y016304D02*
X011113Y016304D01*
X011113Y016403D02*
X012528Y016403D01*
X012528Y016501D02*
X011113Y016501D01*
X011113Y016600D02*
X012528Y016600D01*
X012614Y016698D02*
X011113Y016698D01*
X011113Y016797D02*
X013688Y016797D01*
X013688Y016895D02*
X011113Y016895D01*
X011113Y016994D02*
X013679Y016994D01*
X013688Y017092D02*
X011113Y017092D01*
X011113Y017191D02*
X013703Y017191D01*
X013723Y017289D02*
X011113Y017289D01*
X011113Y017388D02*
X013740Y017388D01*
X013756Y017486D02*
X011113Y017486D01*
X011113Y017585D02*
X013773Y017585D01*
X013789Y017683D02*
X011113Y017683D01*
X011113Y017782D02*
X013806Y017782D01*
X013813Y017880D02*
X011113Y017880D01*
X011113Y017979D02*
X013813Y017979D01*
X013813Y018077D02*
X011150Y018077D01*
X011234Y018176D02*
X013813Y018176D01*
X013813Y018274D02*
X011319Y018274D01*
X011403Y018373D02*
X013813Y018373D01*
X013813Y018471D02*
X011488Y018471D01*
X010535Y019358D02*
X003491Y019358D01*
X003450Y019456D02*
X010620Y019456D01*
X010704Y019555D02*
X003381Y019555D01*
X003338Y019653D02*
X010789Y019653D01*
X010451Y019259D02*
X003531Y019259D01*
X003563Y019161D02*
X010366Y019161D01*
X010282Y019062D02*
X008003Y019062D01*
X008114Y018964D02*
X010198Y018964D01*
X010113Y018865D02*
X008156Y018865D01*
X008167Y018767D02*
X010029Y018767D01*
X009944Y018668D02*
X008149Y018668D01*
X008097Y018570D02*
X009876Y018570D01*
X009844Y018471D02*
X007962Y018471D01*
X007715Y018471D02*
X006995Y018471D01*
X007012Y019062D02*
X007674Y019062D01*
X006526Y017880D02*
X006448Y017880D01*
X006448Y017782D02*
X006526Y017782D01*
X006526Y017683D02*
X006448Y017683D01*
X006448Y017585D02*
X006526Y017585D01*
X006526Y017487D02*
X006448Y017487D01*
X006448Y017084D01*
X006290Y017084D01*
X006252Y017094D01*
X006218Y017114D01*
X006192Y017140D01*
X006158Y017106D01*
X006349Y016920D01*
X006392Y016920D01*
X006491Y016879D01*
X006567Y016803D01*
X006608Y016704D01*
X006608Y016596D01*
X006567Y016497D01*
X006491Y016421D01*
X006392Y016380D01*
X006285Y016380D01*
X006185Y016421D01*
X006110Y016497D01*
X006068Y016596D01*
X006068Y016635D01*
X005815Y016883D01*
X005814Y016883D01*
X005756Y016941D01*
X005697Y016998D01*
X005697Y016999D01*
X005697Y017000D01*
X005697Y017082D01*
X005696Y017084D01*
X005657Y017084D01*
X005601Y017140D01*
X005545Y017084D01*
X005506Y017084D01*
X005506Y016864D01*
X005567Y016803D01*
X005608Y016704D01*
X005608Y016596D01*
X005567Y016497D01*
X005491Y016421D01*
X005392Y016380D01*
X005285Y016380D01*
X005185Y016421D01*
X005110Y016497D01*
X005068Y016596D01*
X005068Y016704D01*
X005106Y016794D01*
X005106Y017084D01*
X005067Y017084D01*
X005011Y017140D01*
X004955Y017084D01*
X004476Y017084D01*
X004420Y017140D01*
X004364Y017084D01*
X004325Y017084D01*
X004325Y015219D01*
X004360Y015303D01*
X004388Y015332D01*
X004388Y015733D01*
X004506Y015850D01*
X005006Y016350D01*
X006506Y016350D01*
X006878Y016722D01*
X006878Y017084D01*
X006838Y017084D01*
X006782Y017140D01*
X006756Y017114D01*
X006722Y017094D01*
X006684Y017084D01*
X006526Y017084D01*
X006526Y017487D01*
X006526Y017486D02*
X006448Y017486D01*
X006448Y017388D02*
X006526Y017388D01*
X006526Y017289D02*
X006448Y017289D01*
X006448Y017191D02*
X006526Y017191D01*
X006526Y017092D02*
X006448Y017092D01*
X006259Y017092D02*
X006173Y017092D01*
X006274Y016994D02*
X006878Y016994D01*
X006878Y016895D02*
X006452Y016895D01*
X006570Y016797D02*
X006878Y016797D01*
X006854Y016698D02*
X006608Y016698D01*
X006608Y016600D02*
X006755Y016600D01*
X006657Y016501D02*
X006569Y016501D01*
X006558Y016403D02*
X006447Y016403D01*
X006230Y016403D02*
X005447Y016403D01*
X005569Y016501D02*
X006108Y016501D01*
X006068Y016600D02*
X005608Y016600D01*
X005608Y016698D02*
X006004Y016698D01*
X005903Y016797D02*
X005570Y016797D01*
X005506Y016895D02*
X005802Y016895D01*
X005702Y016994D02*
X005506Y016994D01*
X005554Y017092D02*
X005649Y017092D01*
X005897Y017083D02*
X005897Y017526D01*
X005897Y017083D02*
X006338Y016650D01*
X006588Y016150D02*
X005088Y016150D01*
X004588Y015650D01*
X004588Y015150D01*
X004788Y015332D02*
X004788Y015567D01*
X004938Y015717D01*
X004938Y013515D01*
X004567Y013515D01*
X004502Y013520D01*
X004488Y013515D01*
X004474Y013515D01*
X004413Y013490D01*
X004351Y013469D01*
X004340Y013460D01*
X004327Y013454D01*
X004280Y013408D01*
X003338Y012588D01*
X003338Y017084D01*
X003496Y017084D01*
X003496Y017487D01*
X003573Y017487D01*
X003573Y017084D01*
X003731Y017084D01*
X003769Y017094D01*
X003804Y017114D01*
X003830Y017140D01*
X003886Y017084D01*
X003925Y017084D01*
X003925Y014531D01*
X003338Y014531D01*
X003338Y014433D02*
X004023Y014433D01*
X003925Y014531D02*
X004318Y014137D01*
X003338Y014137D01*
X003338Y014039D02*
X004342Y014039D01*
X004360Y013997D02*
X004435Y013921D01*
X004535Y013880D01*
X004642Y013880D01*
X004741Y013921D01*
X004817Y013997D01*
X004858Y014096D01*
X004858Y014204D01*
X004817Y014303D01*
X004741Y014379D01*
X004642Y014420D01*
X004601Y014420D01*
X004325Y014696D01*
X004325Y015081D01*
X004360Y014997D01*
X004435Y014921D01*
X004535Y014880D01*
X004642Y014880D01*
X004741Y014921D01*
X004817Y014997D01*
X004858Y015096D01*
X004858Y015204D01*
X004817Y015303D01*
X004788Y015332D01*
X004801Y015319D02*
X004938Y015319D01*
X004938Y015221D02*
X004851Y015221D01*
X004858Y015122D02*
X004938Y015122D01*
X004938Y015024D02*
X004828Y015024D01*
X004745Y014925D02*
X004938Y014925D01*
X004938Y014827D02*
X004325Y014827D01*
X004325Y014925D02*
X004432Y014925D01*
X004349Y015024D02*
X004325Y015024D01*
X004325Y015221D02*
X004325Y015221D01*
X004325Y015319D02*
X004376Y015319D01*
X004388Y015418D02*
X004325Y015418D01*
X004325Y015516D02*
X004388Y015516D01*
X004388Y015615D02*
X004325Y015615D01*
X004325Y015713D02*
X004388Y015713D01*
X004325Y015812D02*
X004467Y015812D01*
X004566Y015910D02*
X004325Y015910D01*
X004325Y016009D02*
X004664Y016009D01*
X004763Y016107D02*
X004325Y016107D01*
X004325Y016206D02*
X004861Y016206D01*
X004960Y016304D02*
X004325Y016304D01*
X004325Y016403D02*
X005230Y016403D01*
X005108Y016501D02*
X004325Y016501D01*
X004325Y016600D02*
X005068Y016600D01*
X005068Y016698D02*
X004325Y016698D01*
X004325Y016797D02*
X005106Y016797D01*
X005106Y016895D02*
X004325Y016895D01*
X004325Y016994D02*
X005106Y016994D01*
X005058Y017092D02*
X004963Y017092D01*
X005306Y016682D02*
X005338Y016650D01*
X005306Y016682D02*
X005306Y017526D01*
X005049Y017979D02*
X009813Y017979D01*
X009813Y018077D02*
X005147Y018077D01*
X005214Y018176D02*
X009813Y018176D01*
X009812Y018274D02*
X005233Y018274D01*
X005233Y018373D02*
X009811Y018373D01*
X007078Y017526D02*
X007078Y016639D01*
X006588Y016150D01*
X006715Y017092D02*
X006830Y017092D01*
X006352Y018471D02*
X006325Y018471D01*
X005682Y018471D02*
X005245Y018471D01*
X004679Y018373D02*
X003338Y018373D01*
X003338Y018274D02*
X004581Y018274D01*
X004485Y018176D02*
X003338Y018176D01*
X003338Y018077D02*
X004445Y018077D01*
X004445Y017979D02*
X003338Y017979D01*
X003496Y017880D02*
X003573Y017880D01*
X003573Y017782D02*
X003496Y017782D01*
X003496Y017683D02*
X003573Y017683D01*
X003573Y017585D02*
X003496Y017585D01*
X003496Y017486D02*
X003573Y017486D01*
X003573Y017388D02*
X003496Y017388D01*
X003496Y017289D02*
X003573Y017289D01*
X003573Y017191D02*
X003496Y017191D01*
X003496Y017092D02*
X003573Y017092D01*
X003762Y017092D02*
X003877Y017092D01*
X003925Y016994D02*
X003338Y016994D01*
X003338Y016895D02*
X003925Y016895D01*
X003925Y016797D02*
X003338Y016797D01*
X003338Y016698D02*
X003925Y016698D01*
X003925Y016600D02*
X003338Y016600D01*
X003338Y016501D02*
X003925Y016501D01*
X003925Y016403D02*
X003338Y016403D01*
X003338Y016304D02*
X003925Y016304D01*
X003925Y016206D02*
X003338Y016206D01*
X003338Y016107D02*
X003925Y016107D01*
X003925Y016009D02*
X003338Y016009D01*
X003338Y015910D02*
X003925Y015910D01*
X003925Y015812D02*
X003338Y015812D01*
X003338Y015713D02*
X003925Y015713D01*
X003925Y015615D02*
X003338Y015615D01*
X003338Y015516D02*
X003925Y015516D01*
X003925Y015418D02*
X003338Y015418D01*
X003338Y015319D02*
X003925Y015319D01*
X003925Y015221D02*
X003338Y015221D01*
X003338Y015122D02*
X003925Y015122D01*
X003925Y015024D02*
X003338Y015024D01*
X003338Y014925D02*
X003925Y014925D01*
X003925Y014827D02*
X003338Y014827D01*
X003338Y014728D02*
X003925Y014728D01*
X003925Y014630D02*
X003338Y014630D01*
X003338Y014334D02*
X004122Y014334D01*
X004220Y014236D02*
X003338Y014236D01*
X003338Y013940D02*
X004417Y013940D01*
X004360Y013997D02*
X004318Y014096D01*
X004318Y014137D01*
X004588Y014150D02*
X004125Y014614D01*
X004125Y017526D01*
X004373Y017092D02*
X004468Y017092D01*
X004934Y015713D02*
X004938Y015713D01*
X004938Y015615D02*
X004836Y015615D01*
X004788Y015516D02*
X004938Y015516D01*
X004938Y015418D02*
X004788Y015418D01*
X004938Y014728D02*
X004325Y014728D01*
X004392Y014630D02*
X004938Y014630D01*
X004938Y014531D02*
X004490Y014531D01*
X004589Y014433D02*
X004938Y014433D01*
X004938Y014334D02*
X004786Y014334D01*
X004845Y014236D02*
X004938Y014236D01*
X004938Y014137D02*
X004858Y014137D01*
X004835Y014039D02*
X004938Y014039D01*
X004938Y013940D02*
X004760Y013940D01*
X004938Y013842D02*
X003338Y013842D01*
X003338Y013743D02*
X004938Y013743D01*
X004938Y013645D02*
X003338Y013645D01*
X003338Y013546D02*
X004938Y013546D01*
X004320Y013448D02*
X003338Y013448D01*
X003338Y013349D02*
X004213Y013349D01*
X004100Y013251D02*
X003338Y013251D01*
X003338Y013152D02*
X003987Y013152D01*
X003874Y013054D02*
X003338Y013054D01*
X003338Y012955D02*
X003760Y012955D01*
X003647Y012857D02*
X003338Y012857D01*
X003338Y012758D02*
X003534Y012758D01*
X003421Y012660D02*
X003338Y012660D01*
X004300Y012364D02*
X010020Y012364D01*
X010118Y012463D02*
X004413Y012463D01*
X004526Y012561D02*
X010217Y012561D01*
X010263Y012660D02*
X004639Y012660D01*
X005463Y012150D02*
X004715Y011402D01*
X004715Y010524D01*
X004459Y010099D02*
X004381Y010099D01*
X004972Y010099D02*
X005050Y010099D01*
X005205Y009311D02*
X005302Y009311D01*
X005302Y009212D02*
X005205Y009212D01*
X005205Y009114D02*
X005302Y009114D01*
X005526Y008917D02*
X003704Y008917D01*
X003704Y009015D02*
X006566Y009015D01*
X006467Y009114D02*
X006262Y009114D01*
X006463Y009400D02*
X005923Y009400D01*
X005651Y008917D02*
X008962Y008917D01*
X008962Y008818D02*
X005802Y008818D01*
X005852Y008720D02*
X008927Y008720D01*
X008877Y008621D02*
X005858Y008621D01*
X006487Y009376D02*
X006463Y009400D01*
X006487Y009376D02*
X006713Y009150D01*
X009213Y009150D01*
X009437Y008927D01*
X009437Y008589D01*
X009181Y008589D02*
X009140Y008550D01*
X008870Y008523D02*
X007859Y008523D01*
X008005Y008424D02*
X008870Y008424D01*
X008870Y008326D02*
X008104Y008326D01*
X008202Y008227D02*
X008870Y008227D01*
X008870Y008129D02*
X008301Y008129D01*
X008399Y008030D02*
X008870Y008030D01*
X008870Y007932D02*
X008498Y007932D01*
X008596Y007833D02*
X008870Y007833D01*
X009412Y007833D02*
X011390Y007833D01*
X011488Y007932D02*
X009410Y007932D01*
X009410Y008030D02*
X011529Y008030D01*
X011529Y008129D02*
X009410Y008129D01*
X009693Y008589D02*
X009693Y009046D01*
X009338Y009400D01*
X007338Y009400D01*
X007088Y009650D01*
X007078Y009661D01*
X007078Y010524D01*
X007373Y010910D02*
X007317Y010966D01*
X006838Y010966D01*
X006782Y010910D01*
X006726Y010966D01*
X006248Y010966D01*
X006192Y010910D01*
X006136Y010966D01*
X006097Y010966D01*
X006097Y011250D01*
X006296Y011450D01*
X008381Y011450D01*
X008513Y011317D01*
X008513Y010945D01*
X008494Y010956D01*
X008456Y010966D01*
X008297Y010966D01*
X008297Y010563D01*
X008220Y010563D01*
X008220Y010966D01*
X008062Y010966D01*
X008024Y010956D01*
X007989Y010936D01*
X007963Y010910D01*
X007910Y010964D01*
X007942Y010997D01*
X007983Y011096D01*
X007983Y011204D01*
X007942Y011303D01*
X007866Y011379D01*
X008452Y011379D01*
X008513Y011281D02*
X007952Y011281D01*
X007983Y011182D02*
X008513Y011182D01*
X008513Y011084D02*
X007978Y011084D01*
X007930Y010985D02*
X008513Y010985D01*
X008297Y010887D02*
X008220Y010887D01*
X008220Y010788D02*
X008297Y010788D01*
X008297Y010690D02*
X008220Y010690D01*
X008220Y010591D02*
X008297Y010591D01*
X008297Y010485D02*
X008297Y010082D01*
X008456Y010082D01*
X008494Y010092D01*
X008528Y010112D01*
X008556Y010140D01*
X008560Y010146D01*
X008856Y009850D01*
X007921Y009850D01*
X007868Y009903D01*
X007868Y010082D01*
X007907Y010082D01*
X007963Y010138D01*
X007989Y010112D01*
X008024Y010092D01*
X008062Y010082D01*
X008220Y010082D01*
X008220Y010485D01*
X008297Y010485D01*
X008297Y010394D02*
X008220Y010394D01*
X008220Y010296D02*
X008297Y010296D01*
X008297Y010197D02*
X008220Y010197D01*
X008220Y010099D02*
X008297Y010099D01*
X008505Y010099D02*
X008607Y010099D01*
X008706Y010000D02*
X007868Y010000D01*
X007870Y009902D02*
X008804Y009902D01*
X009463Y009650D02*
X007838Y009650D01*
X007668Y009820D01*
X007668Y010524D01*
X007668Y011105D01*
X007713Y011150D01*
X007468Y011037D02*
X007468Y010966D01*
X007429Y010966D01*
X007373Y010910D01*
X007468Y010985D02*
X006097Y010985D01*
X006097Y011084D02*
X007449Y011084D01*
X007443Y011096D02*
X007468Y011037D01*
X007443Y011096D02*
X007443Y011204D01*
X007485Y011303D01*
X007560Y011379D01*
X007660Y011420D01*
X007767Y011420D01*
X007866Y011379D01*
X007561Y011379D02*
X006225Y011379D01*
X006127Y011281D02*
X007475Y011281D01*
X007443Y011182D02*
X006097Y011182D01*
X006487Y010524D02*
X006487Y009376D01*
X007924Y010099D02*
X008012Y010099D01*
X009463Y009650D02*
X009949Y009165D01*
X009949Y008589D01*
X008365Y006848D02*
X007423Y006848D01*
X007432Y006857D02*
X007473Y006914D01*
X007505Y006977D01*
X007527Y007045D01*
X008164Y007045D01*
X008123Y007144D02*
X007138Y007144D01*
X007138Y007100D02*
X007138Y007200D01*
X007038Y007200D01*
X007038Y007100D01*
X006641Y007100D01*
X006650Y007045D01*
X006649Y007045D02*
X006532Y007045D01*
X006538Y007144D02*
X007038Y007144D01*
X007038Y007100D02*
X007138Y007100D01*
X007138Y006702D01*
X007194Y006711D01*
X007261Y006733D01*
X007324Y006765D01*
X007382Y006807D01*
X007432Y006857D01*
X007490Y006947D02*
X008238Y006947D01*
X008056Y007242D02*
X007529Y007242D01*
X007527Y007255D02*
X007505Y007323D01*
X007473Y007386D01*
X007432Y007443D01*
X007382Y007493D01*
X007324Y007535D01*
X007261Y007567D01*
X007194Y007589D01*
X007138Y007598D01*
X007138Y007200D01*
X007536Y007200D01*
X007527Y007255D01*
X007496Y007341D02*
X007957Y007341D01*
X007859Y007439D02*
X007435Y007439D01*
X007319Y007538D02*
X007760Y007538D01*
X007662Y007636D02*
X006640Y007636D01*
X006542Y007538D02*
X006858Y007538D01*
X006853Y007535D02*
X006795Y007493D01*
X006745Y007443D01*
X006704Y007386D01*
X006671Y007323D01*
X006650Y007255D01*
X006641Y007200D01*
X007038Y007200D01*
X007038Y007598D01*
X006983Y007589D01*
X006916Y007567D01*
X006853Y007535D01*
X006742Y007439D02*
X006488Y007439D01*
X006497Y007341D02*
X006680Y007341D01*
X006647Y007242D02*
X006537Y007242D01*
X006650Y007045D02*
X006671Y006977D01*
X006704Y006914D01*
X006745Y006857D01*
X006795Y006807D01*
X006853Y006765D01*
X006916Y006733D01*
X006983Y006711D01*
X007038Y006702D01*
X007038Y007100D01*
X007038Y007045D02*
X007138Y007045D01*
X007138Y007100D02*
X007536Y007100D01*
X007527Y007045D01*
X007294Y006750D02*
X013742Y006750D01*
X013742Y006651D02*
X006488Y006651D01*
X006488Y006553D02*
X013742Y006553D01*
X013742Y006454D02*
X006488Y006454D01*
X006488Y006356D02*
X013742Y006356D01*
X013742Y006257D02*
X006488Y006257D01*
X006488Y006159D02*
X013789Y006159D01*
X013744Y006060D02*
X012202Y006060D01*
X012214Y006048D02*
X012127Y006136D01*
X011947Y006136D01*
X011921Y006146D01*
X011791Y006146D01*
X011765Y006136D01*
X011609Y006136D01*
X011602Y006128D01*
X011572Y006136D01*
X011484Y006136D01*
X011396Y006136D01*
X011358Y006125D01*
X011356Y006125D01*
X011355Y006125D01*
X011316Y006136D01*
X011228Y006136D01*
X011140Y006136D01*
X011111Y006128D01*
X011103Y006136D01*
X010924Y006136D01*
X010898Y006146D01*
X010767Y006146D01*
X010741Y006136D01*
X010412Y006136D01*
X010386Y006146D01*
X010256Y006146D01*
X010230Y006136D01*
X010074Y006136D01*
X010066Y006128D01*
X010037Y006136D01*
X009949Y006136D01*
X009949Y005950D01*
X009949Y005950D01*
X009949Y006136D01*
X009860Y006136D01*
X009822Y006125D01*
X009821Y006125D01*
X009819Y006125D01*
X009781Y006136D01*
X009693Y006136D01*
X009693Y005950D01*
X009693Y005950D01*
X009693Y006136D01*
X009605Y006136D01*
X009575Y006128D01*
X009567Y006136D01*
X009388Y006136D01*
X009362Y006146D01*
X009232Y006146D01*
X009206Y006136D01*
X009050Y006136D01*
X008962Y006048D01*
X008962Y005950D01*
X008568Y005950D01*
X008288Y005671D01*
X008288Y005629D01*
X008288Y003921D01*
X008288Y003879D01*
X008538Y003629D01*
X008568Y003600D01*
X014109Y003600D01*
X014359Y003850D01*
X014388Y003879D01*
X014388Y004421D01*
X012888Y005921D01*
X012859Y005950D01*
X012219Y005950D01*
X012214Y005954D01*
X012214Y006048D01*
X012214Y005962D02*
X013742Y005962D01*
X013742Y005765D02*
X013045Y005765D01*
X012946Y005863D02*
X014040Y005863D01*
X014137Y005863D02*
X014778Y005863D01*
X014778Y005765D02*
X014435Y005765D01*
X014435Y005767D02*
X014137Y005767D01*
X014137Y005449D01*
X014305Y005449D01*
X014343Y005459D01*
X014377Y005479D01*
X014405Y005507D01*
X014425Y005541D01*
X014435Y005579D01*
X014435Y005767D01*
X014435Y005666D02*
X014778Y005666D01*
X014778Y005568D02*
X014432Y005568D01*
X014360Y005469D02*
X014778Y005469D01*
X014778Y005371D02*
X013439Y005371D01*
X013340Y005469D02*
X013816Y005469D01*
X013745Y005568D02*
X013242Y005568D01*
X013143Y005666D02*
X013742Y005666D01*
X014040Y005666D02*
X014137Y005666D01*
X014137Y005568D02*
X014040Y005568D01*
X014040Y005469D02*
X014137Y005469D01*
X014137Y005765D02*
X014040Y005765D01*
X014388Y006159D02*
X014778Y006159D01*
X014778Y006257D02*
X014435Y006257D01*
X014435Y006356D02*
X014778Y006356D01*
X014778Y006454D02*
X014435Y006454D01*
X014435Y006553D02*
X014748Y006553D01*
X014649Y006651D02*
X014435Y006651D01*
X014435Y006750D02*
X014551Y006750D01*
X014433Y006060D02*
X014778Y006060D01*
X014778Y005962D02*
X014435Y005962D01*
X014778Y005272D02*
X013537Y005272D01*
X013636Y005174D02*
X014778Y005174D01*
X014778Y005075D02*
X013734Y005075D01*
X013833Y004977D02*
X014778Y004977D01*
X014778Y004878D02*
X013931Y004878D01*
X014030Y004780D02*
X014778Y004780D01*
X014778Y004681D02*
X014128Y004681D01*
X014227Y004583D02*
X014781Y004583D01*
X014822Y004484D02*
X014325Y004484D01*
X014388Y004386D02*
X014915Y004386D01*
X015013Y004287D02*
X014388Y004287D01*
X014388Y004189D02*
X015112Y004189D01*
X015210Y004090D02*
X014388Y004090D01*
X014388Y003992D02*
X015309Y003992D01*
X015407Y003893D02*
X014388Y003893D01*
X014304Y003795D02*
X015656Y003795D01*
X015622Y003696D02*
X014205Y003696D01*
X015398Y004780D02*
X015653Y004780D01*
X015657Y004788D02*
X015633Y004732D01*
X015622Y004673D01*
X015622Y004642D01*
X016088Y004642D01*
X016088Y004642D01*
X016088Y004951D01*
X015900Y004951D01*
X015840Y004939D01*
X015784Y004915D01*
X015733Y004882D01*
X015690Y004839D01*
X015657Y004788D01*
X015623Y004681D02*
X015496Y004681D01*
X015594Y004583D02*
X015627Y004583D01*
X015730Y004878D02*
X015398Y004878D01*
X015398Y004977D02*
X018181Y004977D01*
X018181Y005075D02*
X015398Y005075D01*
X015398Y005174D02*
X018181Y005174D01*
X018181Y005272D02*
X015398Y005272D01*
X015398Y005371D02*
X018181Y005371D01*
X018181Y005469D02*
X015398Y005469D01*
X015398Y005568D02*
X018181Y005568D01*
X018181Y005666D02*
X015398Y005666D01*
X015398Y005765D02*
X015843Y005765D01*
X015834Y005769D02*
X015999Y005700D01*
X016178Y005700D01*
X016343Y005769D01*
X016470Y005895D01*
X016538Y006060D01*
X017139Y006060D01*
X017138Y006060D02*
X017207Y005895D01*
X017334Y005769D01*
X017499Y005700D01*
X017678Y005700D01*
X017843Y005769D01*
X017970Y005895D01*
X018038Y006060D01*
X018181Y006060D01*
X018181Y005962D02*
X017997Y005962D01*
X018038Y006060D02*
X018038Y006240D01*
X017970Y006405D01*
X017843Y006531D01*
X017678Y006600D01*
X017499Y006600D01*
X017334Y006531D01*
X017207Y006405D01*
X017138Y006240D01*
X017138Y006060D01*
X017138Y006159D02*
X016538Y006159D01*
X016538Y006240D02*
X016538Y006060D01*
X016497Y005962D02*
X017179Y005962D01*
X017239Y005863D02*
X016438Y005863D01*
X016334Y005765D02*
X017343Y005765D01*
X017834Y005765D02*
X018181Y005765D01*
X018181Y005863D02*
X017938Y005863D01*
X018038Y006159D02*
X018181Y006159D01*
X018181Y006257D02*
X018031Y006257D01*
X017990Y006356D02*
X018181Y006356D01*
X018181Y006454D02*
X017921Y006454D01*
X017793Y006553D02*
X018181Y006553D01*
X018181Y006651D02*
X015584Y006651D01*
X015486Y006553D02*
X015884Y006553D01*
X015834Y006531D02*
X015707Y006405D01*
X015638Y006240D01*
X015638Y006060D01*
X015639Y006060D02*
X015398Y006060D01*
X015398Y005962D02*
X015679Y005962D01*
X015707Y005895D02*
X015834Y005769D01*
X015739Y005863D02*
X015398Y005863D01*
X015398Y006159D02*
X015638Y006159D01*
X015646Y006257D02*
X015398Y006257D01*
X015398Y006356D02*
X015686Y006356D01*
X015756Y006454D02*
X015398Y006454D01*
X015683Y006750D02*
X015879Y006750D01*
X015999Y006600D02*
X015834Y006531D01*
X015999Y006600D02*
X016178Y006600D01*
X016343Y006531D01*
X016470Y006405D01*
X016538Y006240D01*
X016531Y006257D02*
X017146Y006257D01*
X017186Y006356D02*
X016490Y006356D01*
X016421Y006454D02*
X017256Y006454D01*
X017384Y006553D02*
X016293Y006553D01*
X016297Y006750D02*
X017379Y006750D01*
X017797Y006750D02*
X018181Y006750D01*
X018181Y006848D02*
X017923Y006848D01*
X017991Y006947D02*
X018181Y006947D01*
X018181Y007045D02*
X018032Y007045D01*
X018038Y007144D02*
X018181Y007144D01*
X018181Y007242D02*
X018037Y007242D01*
X017997Y007341D02*
X018181Y007341D01*
X018181Y007439D02*
X017936Y007439D01*
X017829Y007538D02*
X018181Y007538D01*
X018181Y007636D02*
X015166Y007636D01*
X015067Y007735D02*
X015913Y007735D01*
X015916Y007733D02*
X015983Y007711D01*
X016038Y007702D01*
X016038Y008100D01*
X015641Y008100D01*
X015650Y008045D01*
X015671Y007977D01*
X015704Y007914D01*
X015745Y007857D01*
X015795Y007807D01*
X015853Y007765D01*
X015916Y007733D01*
X016038Y007735D02*
X016138Y007735D01*
X016138Y007702D02*
X016194Y007711D01*
X016261Y007733D01*
X016324Y007765D01*
X016382Y007807D01*
X016432Y007857D01*
X016473Y007914D01*
X016505Y007977D01*
X016527Y008045D01*
X016536Y008100D01*
X016138Y008100D01*
X016138Y007702D01*
X016264Y007735D02*
X017413Y007735D01*
X017416Y007733D02*
X017483Y007711D01*
X017538Y007702D01*
X017538Y008100D01*
X017141Y008100D01*
X017150Y008045D01*
X017171Y007977D01*
X017204Y007914D01*
X017245Y007857D01*
X017295Y007807D01*
X017353Y007765D01*
X017416Y007733D01*
X017538Y007735D02*
X017638Y007735D01*
X017638Y007702D02*
X017694Y007711D01*
X017761Y007733D01*
X017824Y007765D01*
X017882Y007807D01*
X017932Y007857D01*
X017973Y007914D01*
X018005Y007977D01*
X018027Y008045D01*
X018036Y008100D01*
X017638Y008100D01*
X017638Y007702D01*
X017764Y007735D02*
X018181Y007735D01*
X018181Y007833D02*
X017908Y007833D01*
X017982Y007932D02*
X018181Y007932D01*
X018181Y008030D02*
X018023Y008030D01*
X018036Y008200D02*
X018027Y008255D01*
X018005Y008323D01*
X017973Y008386D01*
X017932Y008443D01*
X017882Y008493D01*
X017824Y008535D01*
X017761Y008567D01*
X017694Y008589D01*
X017638Y008598D01*
X017638Y008200D01*
X017538Y008200D01*
X017538Y008100D01*
X017638Y008100D01*
X017638Y008200D01*
X018036Y008200D01*
X018032Y008227D02*
X018181Y008227D01*
X018181Y008129D02*
X017638Y008129D01*
X017638Y008227D02*
X017538Y008227D01*
X017538Y008200D02*
X017538Y008598D01*
X017483Y008589D01*
X017416Y008567D01*
X017353Y008535D01*
X017295Y008493D01*
X017245Y008443D01*
X017204Y008386D01*
X017171Y008323D01*
X017150Y008255D01*
X017141Y008200D01*
X017538Y008200D01*
X017538Y008129D02*
X016138Y008129D01*
X016138Y008100D02*
X016138Y008200D01*
X016038Y008200D01*
X016038Y008100D01*
X016138Y008100D01*
X016138Y008030D02*
X016038Y008030D01*
X016038Y007932D02*
X016138Y007932D01*
X016138Y007833D02*
X016038Y007833D01*
X015769Y007833D02*
X014988Y007833D01*
X014988Y007932D02*
X015695Y007932D01*
X015654Y008030D02*
X014988Y008030D01*
X014988Y008129D02*
X016038Y008129D01*
X016038Y008200D02*
X015641Y008200D01*
X015650Y008255D01*
X015671Y008323D01*
X015704Y008386D01*
X015745Y008443D01*
X015795Y008493D01*
X015853Y008535D01*
X015916Y008567D01*
X015983Y008589D01*
X016038Y008598D01*
X016038Y008200D01*
X016038Y008227D02*
X016138Y008227D01*
X016138Y008200D02*
X016138Y008598D01*
X016194Y008589D01*
X016261Y008567D01*
X016324Y008535D01*
X016382Y008493D01*
X016432Y008443D01*
X016473Y008386D01*
X016505Y008323D01*
X016527Y008255D01*
X016536Y008200D01*
X016138Y008200D01*
X016138Y008326D02*
X016038Y008326D01*
X016038Y008424D02*
X016138Y008424D01*
X016138Y008523D02*
X016038Y008523D01*
X015836Y008523D02*
X014988Y008523D01*
X014988Y008621D02*
X018181Y008621D01*
X018181Y008523D02*
X017841Y008523D01*
X017946Y008424D02*
X018181Y008424D01*
X018181Y008326D02*
X018004Y008326D01*
X017638Y008326D02*
X017538Y008326D01*
X017538Y008424D02*
X017638Y008424D01*
X017638Y008523D02*
X017538Y008523D01*
X017336Y008523D02*
X016341Y008523D01*
X016446Y008424D02*
X017231Y008424D01*
X017173Y008326D02*
X016504Y008326D01*
X016532Y008227D02*
X017145Y008227D01*
X017154Y008030D02*
X016523Y008030D01*
X016482Y007932D02*
X017195Y007932D01*
X017269Y007833D02*
X016408Y007833D01*
X015645Y008227D02*
X014988Y008227D01*
X014988Y008326D02*
X015673Y008326D01*
X015731Y008424D02*
X014988Y008424D01*
X014988Y008720D02*
X018181Y008720D01*
X018181Y008818D02*
X014988Y008818D01*
X014988Y008917D02*
X018181Y008917D01*
X018181Y009015D02*
X014988Y009015D01*
X014988Y009114D02*
X018181Y009114D01*
X018181Y009212D02*
X014988Y009212D01*
X014988Y009311D02*
X018181Y009311D01*
X018181Y009409D02*
X014988Y009409D01*
X014988Y009508D02*
X018181Y009508D01*
X018181Y009606D02*
X014988Y009606D01*
X014988Y009705D02*
X018181Y009705D01*
X018181Y009803D02*
X014988Y009803D01*
X014988Y009902D02*
X018181Y009902D01*
X018181Y010000D02*
X014988Y010000D01*
X014988Y010099D02*
X018181Y010099D01*
X018181Y010197D02*
X014988Y010197D01*
X014988Y010296D02*
X016858Y010296D01*
X016853Y010298D02*
X017006Y010234D01*
X017171Y010234D01*
X017324Y010298D01*
X017441Y010414D01*
X017504Y010567D01*
X017504Y010733D01*
X017441Y010886D01*
X017324Y011002D01*
X017171Y011066D01*
X017006Y011066D01*
X016853Y011002D01*
X016736Y010886D01*
X016673Y010733D01*
X016673Y010567D01*
X016736Y010414D01*
X016853Y010298D01*
X016756Y010394D02*
X014988Y010394D01*
X014988Y010493D02*
X016704Y010493D01*
X016673Y010591D02*
X014988Y010591D01*
X014988Y010690D02*
X016673Y010690D01*
X016696Y010788D02*
X014988Y010788D01*
X014988Y010887D02*
X016737Y010887D01*
X016836Y010985D02*
X014988Y010985D01*
X014988Y011084D02*
X018181Y011084D01*
X018181Y011182D02*
X014988Y011182D01*
X014988Y011281D02*
X016894Y011281D01*
X016853Y011298D02*
X017006Y011234D01*
X017171Y011234D01*
X017324Y011298D01*
X017441Y011414D01*
X017504Y011567D01*
X017504Y011733D01*
X017441Y011886D01*
X017324Y012002D01*
X017171Y012066D01*
X017006Y012066D01*
X016853Y012002D01*
X016736Y011886D01*
X016673Y011733D01*
X016673Y011567D01*
X016736Y011414D01*
X016853Y011298D01*
X016771Y011379D02*
X014988Y011379D01*
X014988Y011478D02*
X016710Y011478D01*
X016673Y011576D02*
X014988Y011576D01*
X014988Y011675D02*
X016673Y011675D01*
X016689Y011773D02*
X014988Y011773D01*
X014988Y011872D02*
X016730Y011872D01*
X016821Y011970D02*
X014988Y011970D01*
X014988Y012069D02*
X018181Y012069D01*
X018181Y012167D02*
X014988Y012167D01*
X014988Y012266D02*
X016930Y012266D01*
X017006Y012234D02*
X017171Y012234D01*
X017324Y012298D01*
X017441Y012414D01*
X017504Y012567D01*
X017504Y012733D01*
X017441Y012886D01*
X017324Y013002D01*
X017171Y013066D01*
X017006Y013066D01*
X016853Y013002D01*
X016736Y012886D01*
X016673Y012733D01*
X016673Y012567D01*
X016736Y012414D01*
X016853Y012298D01*
X017006Y012234D01*
X017247Y012266D02*
X018181Y012266D01*
X018181Y012364D02*
X017390Y012364D01*
X017461Y012463D02*
X018181Y012463D01*
X018181Y012561D02*
X017502Y012561D01*
X017504Y012660D02*
X018181Y012660D01*
X018181Y012758D02*
X017494Y012758D01*
X017453Y012857D02*
X018181Y012857D01*
X018181Y012955D02*
X017371Y012955D01*
X017201Y013054D02*
X018181Y013054D01*
X018181Y013152D02*
X014988Y013152D01*
X014988Y013054D02*
X016976Y013054D01*
X016991Y013244D02*
X016929Y013265D01*
X016871Y013294D01*
X016818Y013333D01*
X016771Y013379D01*
X016733Y013432D01*
X016703Y013490D01*
X016683Y013553D01*
X016674Y013611D01*
X017050Y013611D01*
X017127Y013611D01*
X017127Y013235D01*
X017186Y013244D01*
X017248Y013265D01*
X017306Y013294D01*
X017359Y013333D01*
X017406Y013379D01*
X017444Y013432D01*
X017474Y013490D01*
X017494Y013553D01*
X017503Y013611D01*
X017127Y013611D01*
X017127Y013689D01*
X017050Y013689D01*
X017050Y014065D01*
X016991Y014056D01*
X016929Y014035D01*
X016871Y014006D01*
X016818Y013967D01*
X016771Y013921D01*
X016733Y013868D01*
X016703Y013810D01*
X016683Y013747D01*
X016674Y013689D01*
X017050Y013689D01*
X017050Y013611D01*
X017050Y013235D01*
X016991Y013244D01*
X016972Y013251D02*
X014988Y013251D01*
X014988Y013349D02*
X016801Y013349D01*
X016725Y013448D02*
X014988Y013448D01*
X014988Y013546D02*
X016685Y013546D01*
X016682Y013743D02*
X014988Y013743D01*
X014988Y013645D02*
X017050Y013645D01*
X017127Y013645D02*
X018181Y013645D01*
X018181Y013743D02*
X017495Y013743D01*
X017494Y013747D02*
X017474Y013810D01*
X017444Y013868D01*
X017406Y013921D01*
X017359Y013967D01*
X017306Y014006D01*
X017248Y014035D01*
X017186Y014056D01*
X017127Y014065D01*
X017127Y013689D01*
X017503Y013689D01*
X017494Y013747D01*
X017457Y013842D02*
X018181Y013842D01*
X018181Y013940D02*
X017386Y013940D01*
X017238Y014039D02*
X018181Y014039D01*
X018181Y014137D02*
X014988Y014137D01*
X014988Y014039D02*
X016939Y014039D01*
X017050Y014039D02*
X017127Y014039D01*
X017127Y013940D02*
X017050Y013940D01*
X017050Y013842D02*
X017127Y013842D01*
X017127Y013743D02*
X017050Y013743D01*
X017050Y013546D02*
X017127Y013546D01*
X017127Y013448D02*
X017050Y013448D01*
X017050Y013349D02*
X017127Y013349D01*
X017127Y013251D02*
X017050Y013251D01*
X017204Y013251D02*
X018181Y013251D01*
X018181Y013349D02*
X017375Y013349D01*
X017452Y013448D02*
X018181Y013448D01*
X018181Y013546D02*
X017492Y013546D01*
X018181Y014236D02*
X014988Y014236D01*
X014988Y014334D02*
X018181Y014334D01*
X018181Y014433D02*
X014988Y014433D01*
X014988Y014531D02*
X018181Y014531D01*
X018181Y014630D02*
X016129Y014630D01*
X016131Y014633D02*
X016142Y014672D01*
X016142Y015350D01*
X015609Y015350D01*
X015609Y014541D01*
X016011Y014541D01*
X016049Y014552D01*
X016084Y014571D01*
X016112Y014599D01*
X016131Y014633D01*
X016142Y014728D02*
X018181Y014728D01*
X018181Y014827D02*
X016142Y014827D01*
X016142Y014925D02*
X018181Y014925D01*
X018181Y015024D02*
X016142Y015024D01*
X016142Y015122D02*
X018181Y015122D01*
X018181Y015221D02*
X016142Y015221D01*
X016142Y015319D02*
X016829Y015319D01*
X016815Y015330D02*
X016868Y015291D01*
X016927Y015261D01*
X016990Y015240D01*
X017048Y015231D01*
X017048Y015610D01*
X016670Y015610D01*
X016679Y015552D01*
X016699Y015489D01*
X016729Y015430D01*
X016768Y015376D01*
X016815Y015330D01*
X016738Y015418D02*
X015609Y015418D01*
X015609Y015516D02*
X015509Y015516D01*
X015509Y015615D02*
X015609Y015615D01*
X015609Y015713D02*
X015509Y015713D01*
X015509Y015812D02*
X015609Y015812D01*
X015609Y015910D02*
X015509Y015910D01*
X015509Y016009D02*
X015609Y016009D01*
X015609Y016107D02*
X015509Y016107D01*
X015509Y016206D02*
X015609Y016206D01*
X015608Y016698D02*
X014988Y016698D01*
X014988Y016600D02*
X018181Y016600D01*
X018181Y016698D02*
X017569Y016698D01*
X017575Y016704D02*
X017594Y016738D01*
X017605Y016776D01*
X017605Y017100D01*
X017190Y017100D01*
X017190Y017200D01*
X017605Y017200D01*
X017605Y017524D01*
X017594Y017562D01*
X017575Y017596D01*
X017547Y017624D01*
X017512Y017644D01*
X017474Y017654D01*
X017190Y017654D01*
X017190Y017200D01*
X017090Y017200D01*
X017090Y017654D01*
X016805Y017654D01*
X016767Y017644D01*
X016733Y017624D01*
X016705Y017596D01*
X016685Y017562D01*
X016675Y017524D01*
X016675Y017200D01*
X017090Y017200D01*
X017090Y017100D01*
X017190Y017100D01*
X017190Y016646D01*
X017474Y016646D01*
X017512Y016656D01*
X017547Y016676D01*
X017575Y016704D01*
X017605Y016797D02*
X018181Y016797D01*
X018181Y016895D02*
X017605Y016895D01*
X017605Y016994D02*
X018181Y016994D01*
X018181Y017092D02*
X017605Y017092D01*
X017605Y017289D02*
X018181Y017289D01*
X018181Y017191D02*
X017190Y017191D01*
X017190Y017289D02*
X017090Y017289D01*
X017090Y017191D02*
X016502Y017191D01*
X016502Y017289D02*
X016675Y017289D01*
X016675Y017388D02*
X016502Y017388D01*
X016502Y017486D02*
X016675Y017486D01*
X016698Y017585D02*
X016484Y017585D01*
X016751Y018176D02*
X018076Y018176D01*
X018026Y018274D02*
X016973Y018274D01*
X017071Y018373D02*
X017977Y018373D01*
X017928Y018471D02*
X017170Y018471D01*
X017233Y018570D02*
X017879Y018570D01*
X017829Y018668D02*
X017274Y018668D01*
X017315Y018767D02*
X017780Y018767D01*
X017731Y018865D02*
X017342Y018865D01*
X017342Y018964D02*
X017682Y018964D01*
X017632Y019062D02*
X017342Y019062D01*
X017342Y019161D02*
X017583Y019161D01*
X017534Y019259D02*
X017311Y019259D01*
X017270Y019358D02*
X017485Y019358D01*
X017435Y019456D02*
X017229Y019456D01*
X017161Y019555D02*
X017386Y019555D01*
X017337Y019653D02*
X017062Y019653D01*
X015863Y019653D02*
X014880Y019653D01*
X014978Y019555D02*
X015764Y019555D01*
X015696Y019456D02*
X015040Y019456D01*
X015081Y019358D02*
X015655Y019358D01*
X015614Y019259D02*
X015113Y019259D01*
X015113Y019161D02*
X015583Y019161D01*
X015583Y019062D02*
X015113Y019062D01*
X015113Y018964D02*
X015583Y018964D01*
X015583Y018865D02*
X015113Y018865D01*
X015113Y018767D02*
X015610Y018767D01*
X015651Y018668D02*
X015113Y018668D01*
X015113Y018570D02*
X015692Y018570D01*
X015755Y018471D02*
X015113Y018471D01*
X015113Y018373D02*
X015854Y018373D01*
X015952Y018274D02*
X015113Y018274D01*
X015113Y018176D02*
X016173Y018176D01*
X015848Y017683D02*
X018181Y017683D01*
X018181Y017585D02*
X017581Y017585D01*
X017605Y017486D02*
X018181Y017486D01*
X018181Y017388D02*
X017605Y017388D01*
X017190Y017388D02*
X017090Y017388D01*
X017090Y017486D02*
X017190Y017486D01*
X017190Y017585D02*
X017090Y017585D01*
X017090Y017100D02*
X016675Y017100D01*
X016675Y016776D01*
X016685Y016738D01*
X016705Y016704D01*
X016733Y016676D01*
X016767Y016656D01*
X016805Y016646D01*
X017090Y016646D01*
X017090Y017100D01*
X017090Y017092D02*
X017190Y017092D01*
X017190Y016994D02*
X017090Y016994D01*
X017090Y016895D02*
X017190Y016895D01*
X017190Y016797D02*
X017090Y016797D01*
X017090Y016698D02*
X017190Y016698D01*
X016710Y016698D02*
X016467Y016698D01*
X016502Y016797D02*
X016675Y016797D01*
X016675Y016895D02*
X016502Y016895D01*
X016502Y016994D02*
X016675Y016994D01*
X016675Y017092D02*
X016502Y017092D01*
X015572Y017092D02*
X015009Y017092D01*
X015025Y017191D02*
X015471Y017191D01*
X015341Y017289D02*
X015041Y017289D01*
X015058Y017388D02*
X015211Y017388D01*
X014992Y016994D02*
X015572Y016994D01*
X015572Y016895D02*
X014988Y016895D01*
X014988Y016797D02*
X015572Y016797D01*
X016107Y016206D02*
X018181Y016206D01*
X018181Y016304D02*
X014988Y016304D01*
X014988Y016206D02*
X015010Y016206D01*
X014988Y016403D02*
X018181Y016403D01*
X018181Y016501D02*
X014988Y016501D01*
X015509Y015319D02*
X015609Y015319D01*
X015609Y015221D02*
X015509Y015221D01*
X015509Y015122D02*
X015609Y015122D01*
X015609Y015024D02*
X015509Y015024D01*
X015509Y014925D02*
X015609Y014925D01*
X015609Y014827D02*
X015509Y014827D01*
X015509Y014728D02*
X015609Y014728D01*
X015609Y014630D02*
X015509Y014630D01*
X014988Y013940D02*
X016791Y013940D01*
X016719Y013842D02*
X014988Y013842D01*
X014988Y012955D02*
X016806Y012955D01*
X016724Y012857D02*
X014988Y012857D01*
X014988Y012758D02*
X016683Y012758D01*
X016673Y012660D02*
X014988Y012660D01*
X014988Y012561D02*
X016675Y012561D01*
X016716Y012463D02*
X014988Y012463D01*
X014988Y012364D02*
X016786Y012364D01*
X017356Y011970D02*
X018181Y011970D01*
X018181Y011872D02*
X017447Y011872D01*
X017487Y011773D02*
X018181Y011773D01*
X018181Y011675D02*
X017504Y011675D01*
X017504Y011576D02*
X018181Y011576D01*
X018181Y011478D02*
X017467Y011478D01*
X017405Y011379D02*
X018181Y011379D01*
X018181Y011281D02*
X017283Y011281D01*
X017341Y010985D02*
X018181Y010985D01*
X018181Y010887D02*
X017440Y010887D01*
X017481Y010788D02*
X018181Y010788D01*
X018181Y010690D02*
X017504Y010690D01*
X017504Y010591D02*
X018181Y010591D01*
X018181Y010493D02*
X017473Y010493D01*
X017420Y010394D02*
X018181Y010394D01*
X018181Y010296D02*
X017319Y010296D01*
X017538Y008030D02*
X017638Y008030D01*
X017638Y007932D02*
X017538Y007932D01*
X017538Y007833D02*
X017638Y007833D01*
X015638Y006060D02*
X015707Y005895D01*
X016088Y004951D02*
X016088Y004642D01*
X016088Y004642D01*
X016088Y004642D01*
X016555Y004642D01*
X016555Y004673D01*
X016543Y004732D01*
X016520Y004788D01*
X016486Y004839D01*
X016443Y004882D01*
X016393Y004915D01*
X016337Y004939D01*
X016277Y004951D01*
X016088Y004951D01*
X016088Y004878D02*
X016088Y004878D01*
X016088Y004780D02*
X016088Y004780D01*
X016088Y004681D02*
X016088Y004681D01*
X016447Y004878D02*
X017230Y004878D01*
X017233Y004882D02*
X017190Y004839D01*
X017157Y004788D01*
X017133Y004732D01*
X017122Y004673D01*
X017122Y004642D01*
X017588Y004642D01*
X017588Y004642D01*
X017588Y004951D01*
X017400Y004951D01*
X017340Y004939D01*
X017284Y004915D01*
X017233Y004882D01*
X017153Y004780D02*
X016524Y004780D01*
X016554Y004681D02*
X017123Y004681D01*
X017127Y004583D02*
X016549Y004583D01*
X016512Y004484D02*
X017165Y004484D01*
X017588Y004642D02*
X017588Y004642D01*
X017588Y004951D01*
X017777Y004951D01*
X017837Y004939D01*
X017893Y004915D01*
X017943Y004882D01*
X017986Y004839D01*
X018020Y004788D01*
X018043Y004732D01*
X018055Y004673D01*
X018055Y004642D01*
X017588Y004642D01*
X017588Y004642D01*
X017588Y004681D02*
X017588Y004681D01*
X017588Y004780D02*
X017588Y004780D01*
X017588Y004878D02*
X017588Y004878D01*
X017947Y004878D02*
X018181Y004878D01*
X018181Y004780D02*
X018024Y004780D01*
X018054Y004681D02*
X018181Y004681D01*
X018181Y004583D02*
X018049Y004583D01*
X018012Y004484D02*
X018181Y004484D01*
X018181Y004386D02*
X017948Y004386D01*
X018024Y004287D02*
X018181Y004287D01*
X018181Y004189D02*
X018055Y004189D01*
X018055Y004090D02*
X018181Y004090D01*
X018181Y003992D02*
X018015Y003992D01*
X017940Y003893D02*
X018181Y003893D01*
X018181Y003795D02*
X018021Y003795D01*
X018055Y003696D02*
X018181Y003696D01*
X018181Y003598D02*
X018055Y003598D01*
X018018Y003499D02*
X018181Y003499D01*
X018181Y003401D02*
X017934Y003401D01*
X018181Y003302D02*
X002338Y003302D01*
X002358Y003204D02*
X018181Y003204D01*
X018181Y003105D02*
X002358Y003105D01*
X002342Y003007D02*
X018181Y003007D01*
X018181Y002908D02*
X002301Y002908D01*
X002233Y002810D02*
X018181Y002810D01*
X018181Y002514D02*
X000964Y002514D01*
X000964Y002416D02*
X018181Y002416D01*
X018172Y002317D02*
X000973Y002317D01*
X001023Y002219D02*
X018123Y002219D01*
X018073Y002120D02*
X016762Y002120D01*
X016977Y002022D02*
X018024Y002022D01*
X017975Y001923D02*
X017076Y001923D01*
X017174Y001825D02*
X017926Y001825D01*
X017876Y001726D02*
X017235Y001726D01*
X017276Y001628D02*
X017827Y001628D01*
X017778Y001529D02*
X017317Y001529D01*
X017342Y001431D02*
X017729Y001431D01*
X017679Y001332D02*
X017342Y001332D01*
X017342Y001234D02*
X017630Y001234D01*
X017581Y001135D02*
X017342Y001135D01*
X017309Y001037D02*
X017532Y001037D01*
X017482Y000938D02*
X017268Y000938D01*
X017228Y000840D02*
X017433Y000840D01*
X017384Y000741D02*
X017156Y000741D01*
X017058Y000643D02*
X017335Y000643D01*
X016163Y002120D02*
X002983Y002120D01*
X003198Y002022D02*
X015948Y002022D01*
X015849Y001923D02*
X003296Y001923D01*
X003395Y001825D02*
X015751Y001825D01*
X015690Y001726D02*
X003455Y001726D01*
X003496Y001628D02*
X015649Y001628D01*
X015608Y001529D02*
X003537Y001529D01*
X003563Y001431D02*
X015583Y001431D01*
X015583Y001332D02*
X003563Y001332D01*
X003563Y001234D02*
X015583Y001234D01*
X015583Y001135D02*
X003563Y001135D01*
X003530Y001037D02*
X015616Y001037D01*
X015657Y000938D02*
X003489Y000938D01*
X003448Y000840D02*
X015697Y000840D01*
X015769Y000741D02*
X003377Y000741D01*
X003278Y000643D02*
X015867Y000643D01*
X015743Y003401D02*
X002298Y003401D01*
X002225Y003499D02*
X015659Y003499D01*
X015622Y003598D02*
X002117Y003598D01*
X002101Y003696D02*
X005496Y003696D01*
X005349Y003795D02*
X002218Y003795D01*
X003151Y003992D02*
X003179Y003992D01*
X003179Y004090D02*
X003151Y004090D01*
X003151Y004189D02*
X003179Y004189D01*
X003179Y004287D02*
X003151Y004287D01*
X003179Y004347D02*
X003443Y004347D01*
X003443Y004560D01*
X003433Y004598D01*
X003413Y004632D01*
X003385Y004660D01*
X003351Y004680D01*
X003313Y004690D01*
X003179Y004690D01*
X003179Y004347D01*
X003179Y004386D02*
X003151Y004386D01*
X003151Y004484D02*
X003179Y004484D01*
X003179Y004583D02*
X003151Y004583D01*
X003151Y004681D02*
X003179Y004681D01*
X003346Y004681D02*
X003812Y004681D01*
X003734Y004583D02*
X003437Y004583D01*
X003443Y004484D02*
X003734Y004484D01*
X003734Y004386D02*
X003443Y004386D01*
X003443Y004287D02*
X003734Y004287D01*
X003734Y004189D02*
X003443Y004189D01*
X003439Y004090D02*
X003734Y004090D01*
X003806Y003992D02*
X003360Y003992D01*
X004012Y004333D02*
X004012Y005967D01*
X003798Y007400D02*
X003798Y007860D01*
X003838Y007900D01*
X004026Y008088D01*
X003504Y008315D02*
X003129Y007940D01*
X003504Y008315D02*
X003504Y009400D01*
X003304Y009015D02*
X000964Y009015D01*
X000964Y008917D02*
X003304Y008917D01*
X003304Y008818D02*
X000964Y008818D01*
X000964Y008720D02*
X003304Y008720D01*
X003165Y009114D02*
X002762Y009114D01*
X002744Y009705D02*
X003183Y009705D01*
X003274Y009803D02*
X000964Y009803D01*
X000964Y009705D02*
X001433Y009705D01*
X001445Y009717D02*
X001417Y009689D01*
X001397Y009655D01*
X001387Y009617D01*
X001387Y009448D01*
X001705Y009448D01*
X001705Y009747D01*
X001518Y009747D01*
X001479Y009737D01*
X001445Y009717D01*
X001387Y009606D02*
X000964Y009606D01*
X000964Y009508D02*
X001387Y009508D01*
X001387Y009311D02*
X000964Y009311D01*
X000964Y009409D02*
X001705Y009409D01*
X001705Y009311D02*
X001802Y009311D01*
X001802Y009212D02*
X001705Y009212D01*
X001705Y009114D02*
X001802Y009114D01*
X001802Y009508D02*
X001705Y009508D01*
X001705Y009606D02*
X001802Y009606D01*
X001802Y009705D02*
X001705Y009705D01*
X002075Y009705D02*
X002102Y009705D01*
X001387Y009212D02*
X000964Y009212D01*
X000964Y009114D02*
X001416Y009114D01*
X000964Y009902D02*
X003274Y009902D01*
X003274Y010000D02*
X000964Y010000D01*
X003162Y010099D02*
X003274Y010099D01*
X003504Y010494D02*
X003534Y010524D01*
X006739Y007735D02*
X007563Y007735D01*
X007138Y007538D02*
X007038Y007538D01*
X007038Y007439D02*
X007138Y007439D01*
X007138Y007341D02*
X007038Y007341D01*
X007038Y007242D02*
X007138Y007242D01*
X007138Y006947D02*
X007038Y006947D01*
X007038Y006848D02*
X007138Y006848D01*
X007138Y006750D02*
X007038Y006750D01*
X006883Y006750D02*
X006488Y006750D01*
X006488Y006848D02*
X006754Y006848D01*
X006687Y006947D02*
X006491Y006947D01*
X006488Y006060D02*
X008975Y006060D01*
X008962Y005962D02*
X006488Y005962D01*
X006488Y005863D02*
X008481Y005863D01*
X008382Y005765D02*
X006488Y005765D01*
X006488Y005666D02*
X008288Y005666D01*
X008288Y005568D02*
X006488Y005568D01*
X006488Y005469D02*
X008288Y005469D01*
X008288Y005371D02*
X006488Y005371D01*
X006488Y005272D02*
X008288Y005272D01*
X008288Y005174D02*
X006488Y005174D01*
X006474Y005075D02*
X008288Y005075D01*
X008288Y004977D02*
X006433Y004977D01*
X006398Y004878D02*
X008288Y004878D01*
X008288Y004780D02*
X006398Y004780D01*
X006398Y004681D02*
X008288Y004681D01*
X008288Y004583D02*
X006725Y004583D01*
X006581Y004583D02*
X006581Y004583D01*
X006581Y004484D02*
X006581Y004484D01*
X006581Y004386D02*
X006581Y004386D01*
X006581Y004287D02*
X006581Y004287D01*
X006581Y004189D02*
X006581Y004189D01*
X006581Y004090D02*
X006581Y004090D01*
X006581Y003992D02*
X006581Y003992D01*
X006581Y003893D02*
X006581Y003893D01*
X006581Y003795D02*
X006581Y003795D01*
X006581Y003696D02*
X006581Y003696D01*
X006673Y003696D02*
X008472Y003696D01*
X008373Y003795D02*
X006820Y003795D01*
X006874Y003893D02*
X008288Y003893D01*
X008288Y003992D02*
X006889Y003992D01*
X006889Y004090D02*
X008288Y004090D01*
X008288Y004189D02*
X006889Y004189D01*
X006889Y004287D02*
X008288Y004287D01*
X008288Y004386D02*
X006880Y004386D01*
X006834Y004484D02*
X008288Y004484D01*
X009181Y005711D02*
X009297Y005819D01*
X009437Y005711D01*
X009693Y005711D02*
X009809Y005583D01*
X009693Y005962D02*
X009693Y005962D01*
X009693Y006060D02*
X009693Y006060D01*
X009949Y006060D02*
X009949Y006060D01*
X009949Y005962D02*
X009949Y005962D01*
X010205Y005711D02*
X010321Y005819D01*
X010460Y005711D01*
X010716Y005711D02*
X010833Y005819D01*
X010972Y005711D01*
X011228Y005711D02*
X011344Y005583D01*
X011228Y005950D02*
X011228Y005950D01*
X011228Y006136D01*
X011228Y005950D01*
X011228Y005962D02*
X011228Y005962D01*
X011228Y006060D02*
X011228Y006060D01*
X011484Y006060D02*
X011484Y006060D01*
X011484Y006136D02*
X011484Y005950D01*
X011484Y006136D01*
X011484Y005962D02*
X011484Y005962D01*
X011484Y005950D02*
X011484Y005950D01*
X011740Y005711D02*
X011856Y005603D01*
X011996Y005711D02*
X011856Y005819D01*
X011935Y007282D02*
X011856Y007479D01*
X012245Y007932D02*
X013688Y007932D01*
X013688Y008030D02*
X012183Y008030D01*
X012183Y008129D02*
X013688Y008129D01*
X013688Y008227D02*
X012189Y008227D01*
X012214Y008326D02*
X013688Y008326D01*
X013688Y008424D02*
X012214Y008424D01*
X012214Y008523D02*
X013688Y008523D01*
X013688Y008621D02*
X012214Y008621D01*
X012214Y008720D02*
X013688Y008720D01*
X013688Y008818D02*
X012214Y008818D01*
X012214Y008917D02*
X012752Y008917D01*
X012742Y009015D02*
X011926Y009015D01*
X011786Y009015D02*
X011684Y009015D01*
X011684Y009114D02*
X012742Y009114D01*
X012742Y009311D02*
X011684Y009311D01*
X011684Y009409D02*
X012742Y009409D01*
X013040Y009212D02*
X011684Y009212D01*
X011856Y008733D02*
X011856Y008690D01*
X011996Y008589D01*
X011856Y008733D02*
X011740Y008617D01*
X011740Y008589D01*
X012344Y007833D02*
X013688Y007833D01*
X013610Y007735D02*
X012442Y007735D01*
X012541Y007636D02*
X013511Y007636D01*
X013305Y008824D02*
X013137Y008824D01*
X013137Y009142D01*
X013435Y009142D01*
X013435Y008954D01*
X013425Y008916D01*
X013405Y008882D01*
X013377Y008854D01*
X013343Y008834D01*
X013305Y008824D01*
X013425Y008917D02*
X013688Y008917D01*
X013688Y009015D02*
X013435Y009015D01*
X013435Y009114D02*
X013688Y009114D01*
X013688Y009212D02*
X013137Y009212D01*
X013137Y009114D02*
X013040Y009114D01*
X013040Y009015D02*
X013137Y009015D01*
X013137Y008917D02*
X013040Y008917D01*
X013435Y009311D02*
X013688Y009311D01*
X013688Y009409D02*
X013435Y009409D01*
X013397Y009508D02*
X013688Y009508D01*
X013688Y009606D02*
X013435Y009606D01*
X013435Y009705D02*
X013688Y009705D01*
X013688Y009803D02*
X013435Y009803D01*
X013435Y009902D02*
X013688Y009902D01*
X013688Y010000D02*
X013435Y010000D01*
X013435Y010099D02*
X013688Y010099D01*
X013688Y010197D02*
X013377Y010197D01*
X013318Y010296D02*
X013688Y010296D01*
X013688Y010394D02*
X013379Y010394D01*
X013441Y010493D02*
X013688Y010493D01*
X013688Y010591D02*
X013475Y010591D01*
X013475Y010690D02*
X013688Y010690D01*
X013688Y010788D02*
X013450Y010788D01*
X013450Y010887D02*
X013688Y010887D01*
X013688Y010985D02*
X013450Y010985D01*
X013450Y011084D02*
X013688Y011084D01*
X013688Y011182D02*
X013450Y011182D01*
X013450Y011281D02*
X013688Y011281D01*
X013688Y011379D02*
X013450Y011379D01*
X013450Y011478D02*
X013688Y011478D01*
X013688Y011576D02*
X013450Y011576D01*
X013450Y011675D02*
X013688Y011675D01*
X013688Y011773D02*
X013450Y011773D01*
X013450Y011872D02*
X013688Y011872D01*
X013688Y011970D02*
X013450Y011970D01*
X013450Y012069D02*
X013688Y012069D01*
X013688Y012167D02*
X013450Y012167D01*
X013450Y012266D02*
X013688Y012266D01*
X013688Y012364D02*
X013450Y012364D01*
X013450Y012463D02*
X013688Y012463D01*
X013688Y012561D02*
X013450Y012561D01*
X013450Y012660D02*
X013688Y012660D01*
X013688Y012758D02*
X013450Y012758D01*
X013450Y012857D02*
X013688Y012857D01*
X013688Y012955D02*
X013576Y012955D01*
X013605Y013054D02*
X013688Y013054D01*
X013688Y013152D02*
X013605Y013152D01*
X013605Y013251D02*
X013688Y013251D01*
X013688Y013349D02*
X013605Y013349D01*
X013605Y013448D02*
X013688Y013448D01*
X013688Y013546D02*
X013605Y013546D01*
X013605Y013645D02*
X013688Y013645D01*
X013688Y013743D02*
X013605Y013743D01*
X013580Y013842D02*
X013688Y013842D01*
X013688Y013940D02*
X013450Y013940D01*
X013450Y014039D02*
X013688Y014039D01*
X013688Y014137D02*
X013658Y014137D01*
X013674Y014827D02*
X013688Y014827D01*
X013688Y014925D02*
X007488Y014925D01*
X008881Y012266D02*
X009921Y012266D01*
X009888Y012167D02*
X008979Y012167D01*
X009078Y012069D02*
X009720Y012069D01*
X009665Y011970D02*
X009176Y011970D01*
X009275Y011872D02*
X009665Y011872D01*
X009665Y011773D02*
X009373Y011773D01*
X009413Y011675D02*
X009665Y011675D01*
X009722Y011576D02*
X009413Y011576D01*
X009413Y011478D02*
X012830Y011478D01*
X012830Y011576D02*
X011955Y011576D01*
X012012Y011675D02*
X012830Y011675D01*
X012830Y011773D02*
X012012Y011773D01*
X012012Y011872D02*
X012830Y011872D01*
X012830Y011970D02*
X012012Y011970D01*
X011957Y012069D02*
X012830Y012069D01*
X012830Y012167D02*
X010388Y012167D01*
X010323Y012069D02*
X011354Y012069D01*
X010663Y012463D02*
X012830Y012463D01*
X012830Y012561D02*
X010663Y012561D01*
X010663Y012660D02*
X012830Y012660D01*
X012830Y012758D02*
X010782Y012758D01*
X010810Y012857D02*
X012830Y012857D01*
X012703Y012955D02*
X012473Y012955D01*
X012472Y012954D02*
X012492Y012988D01*
X012502Y013026D01*
X012502Y013350D01*
X012087Y013350D01*
X012087Y012896D01*
X012372Y012896D01*
X012410Y012906D01*
X012444Y012926D01*
X012472Y012954D01*
X012502Y013054D02*
X012675Y013054D01*
X012675Y013152D02*
X012502Y013152D01*
X012502Y013251D02*
X012675Y013251D01*
X012675Y013349D02*
X012502Y013349D01*
X012502Y013450D02*
X012502Y013774D01*
X012492Y013812D01*
X012472Y013846D01*
X012444Y013874D01*
X012410Y013894D01*
X012372Y013904D01*
X012087Y013904D01*
X012087Y013450D01*
X011987Y013450D01*
X011987Y013350D01*
X011572Y013350D01*
X011572Y013026D01*
X011583Y012988D01*
X011602Y012954D01*
X011630Y012926D01*
X011664Y012906D01*
X011703Y012896D01*
X011987Y012896D01*
X011987Y013350D01*
X012087Y013350D01*
X012087Y013450D01*
X012502Y013450D01*
X012502Y013546D02*
X012675Y013546D01*
X012675Y013448D02*
X012087Y013448D01*
X012087Y013546D02*
X011987Y013546D01*
X011987Y013450D02*
X011987Y013904D01*
X011703Y013904D01*
X011664Y013894D01*
X011630Y013874D01*
X011602Y013846D01*
X011583Y013812D01*
X011572Y013774D01*
X011572Y013450D01*
X011987Y013450D01*
X011987Y013448D02*
X010802Y013448D01*
X010810Y013546D02*
X011572Y013546D01*
X011572Y013645D02*
X010810Y013645D01*
X010810Y013743D02*
X011572Y013743D01*
X011599Y013842D02*
X010810Y013842D01*
X010810Y013940D02*
X012830Y013940D01*
X012830Y014039D02*
X010785Y014039D01*
X010463Y013735D02*
X010463Y014365D01*
X010338Y014490D01*
X010805Y013349D02*
X011572Y013349D01*
X011572Y013251D02*
X010810Y013251D01*
X010810Y013152D02*
X011572Y013152D01*
X011572Y013054D02*
X010810Y013054D01*
X010810Y012955D02*
X011601Y012955D01*
X011987Y012955D02*
X012087Y012955D01*
X012087Y013054D02*
X011987Y013054D01*
X011987Y013152D02*
X012087Y013152D01*
X012087Y013251D02*
X011987Y013251D01*
X011987Y013349D02*
X012087Y013349D01*
X012087Y013645D02*
X011987Y013645D01*
X011987Y013743D02*
X012087Y013743D01*
X012087Y013842D02*
X011987Y013842D01*
X012475Y013842D02*
X012700Y013842D01*
X012675Y013743D02*
X012502Y013743D01*
X012502Y013645D02*
X012675Y013645D01*
X012830Y012364D02*
X010585Y012364D01*
X010487Y012266D02*
X012830Y012266D01*
X012830Y011379D02*
X009413Y011379D01*
X009413Y011281D02*
X012830Y011281D01*
X012830Y011182D02*
X011991Y011182D01*
X011982Y011197D02*
X011954Y011225D01*
X011920Y011245D01*
X011882Y011255D01*
X011669Y011255D01*
X011669Y010991D01*
X012012Y010991D01*
X012012Y011124D01*
X012002Y011163D01*
X011982Y011197D01*
X012012Y011084D02*
X012830Y011084D01*
X012830Y010985D02*
X011669Y010985D01*
X011641Y010985D02*
X010035Y010985D01*
X010008Y010985D02*
X009413Y010985D01*
X009413Y010887D02*
X009665Y010887D01*
X009665Y010829D02*
X009675Y010791D01*
X009695Y010757D01*
X009723Y010729D01*
X009757Y010709D01*
X009795Y010699D01*
X010008Y010699D01*
X010008Y010963D01*
X009665Y010963D01*
X009665Y010829D01*
X009677Y010788D02*
X009413Y010788D01*
X009413Y010690D02*
X012702Y010690D01*
X012728Y010788D02*
X012000Y010788D01*
X012012Y010887D02*
X012779Y010887D01*
X011669Y010887D02*
X011641Y010887D01*
X011641Y010788D02*
X011669Y010788D01*
X011669Y011084D02*
X011641Y011084D01*
X011641Y011182D02*
X011669Y011182D01*
X010035Y011182D02*
X010008Y011182D01*
X010008Y011084D02*
X010035Y011084D01*
X010035Y010887D02*
X010008Y010887D01*
X010008Y010788D02*
X010035Y010788D01*
X009665Y011084D02*
X009413Y011084D01*
X009413Y011182D02*
X009686Y011182D01*
X013622Y015024D02*
X013688Y015024D01*
X016142Y015516D02*
X016690Y015516D01*
X016670Y015690D02*
X017048Y015690D01*
X017048Y015610D01*
X017128Y015610D01*
X017128Y015231D01*
X017187Y015240D01*
X017250Y015261D01*
X017309Y015291D01*
X017362Y015330D01*
X017409Y015376D01*
X017448Y015430D01*
X017478Y015489D01*
X017498Y015552D01*
X017507Y015610D01*
X017128Y015610D01*
X017128Y015690D01*
X017048Y015690D01*
X017048Y016069D01*
X016990Y016060D01*
X016927Y016039D01*
X016868Y016009D01*
X016815Y015970D01*
X016768Y015924D01*
X016729Y015870D01*
X016699Y015811D01*
X016679Y015748D01*
X016670Y015690D01*
X016673Y015713D02*
X016142Y015713D01*
X016142Y015615D02*
X017048Y015615D01*
X017128Y015615D02*
X018181Y015615D01*
X018181Y015713D02*
X017504Y015713D01*
X017507Y015690D02*
X017498Y015748D01*
X017478Y015811D01*
X017448Y015870D01*
X017409Y015924D01*
X017362Y015970D01*
X017309Y016009D01*
X017250Y016039D01*
X017187Y016060D01*
X017128Y016069D01*
X017128Y015690D01*
X017507Y015690D01*
X017478Y015812D02*
X018181Y015812D01*
X018181Y015910D02*
X017419Y015910D01*
X017309Y016009D02*
X018181Y016009D01*
X018181Y016107D02*
X016142Y016107D01*
X016142Y016009D02*
X016867Y016009D01*
X016758Y015910D02*
X016142Y015910D01*
X016142Y015812D02*
X016699Y015812D01*
X017048Y015812D02*
X017128Y015812D01*
X017128Y015910D02*
X017048Y015910D01*
X017048Y016009D02*
X017128Y016009D01*
X017128Y015713D02*
X017048Y015713D01*
X017048Y015516D02*
X017128Y015516D01*
X017128Y015418D02*
X017048Y015418D01*
X017048Y015319D02*
X017128Y015319D01*
X017347Y015319D02*
X018181Y015319D01*
X018181Y015418D02*
X017439Y015418D01*
X017487Y015516D02*
X018181Y015516D01*
X018181Y017782D02*
X015718Y017782D01*
X015588Y017880D02*
X018181Y017880D01*
X018174Y017979D02*
X015458Y017979D01*
X015294Y018077D02*
X018125Y018077D01*
X013813Y018570D02*
X013511Y018570D01*
X013651Y018668D02*
X013813Y018668D01*
X013813Y018767D02*
X013749Y018767D01*
X013799Y018865D02*
X013813Y018865D01*
X005665Y019062D02*
X005262Y019062D01*
X004602Y018471D02*
X004575Y018471D01*
X004302Y018471D02*
X004205Y018471D01*
X004205Y018570D02*
X004302Y018570D01*
X004302Y018668D02*
X004205Y018668D01*
X004205Y018767D02*
X003535Y018767D01*
X003563Y018865D02*
X003887Y018865D01*
X003887Y018823D02*
X004205Y018823D01*
X004205Y019122D01*
X004018Y019122D01*
X003979Y019112D01*
X003945Y019092D01*
X003917Y019064D01*
X003897Y019030D01*
X003887Y018992D01*
X003887Y018823D01*
X003887Y018964D02*
X003563Y018964D01*
X003563Y019062D02*
X003916Y019062D01*
X004205Y019062D02*
X004302Y019062D01*
X004302Y018964D02*
X004205Y018964D01*
X004205Y018865D02*
X004302Y018865D01*
X003887Y018668D02*
X003494Y018668D01*
X003454Y018570D02*
X003887Y018570D01*
X003932Y018471D02*
X003390Y018471D01*
X006398Y004583D02*
X006436Y004583D01*
X006341Y003795D02*
X006328Y003795D01*
X006181Y003696D02*
X006488Y003696D01*
X005996Y003696D02*
X005681Y003696D01*
X005828Y003795D02*
X005849Y003795D01*
X002088Y000643D02*
X001811Y000643D01*
X001761Y000741D02*
X001989Y000741D01*
X001918Y000840D02*
X001712Y000840D01*
X001663Y000938D02*
X001877Y000938D01*
X001836Y001037D02*
X001614Y001037D01*
X001564Y001135D02*
X001803Y001135D01*
X016434Y003401D02*
X017243Y003401D01*
X017159Y003499D02*
X016518Y003499D01*
X016555Y003598D02*
X017122Y003598D01*
X017122Y003696D02*
X016555Y003696D01*
X016521Y003795D02*
X017156Y003795D01*
D28*
X017088Y002650D03*
X013588Y003150D03*
X013588Y001150D03*
X010588Y001150D03*
X010588Y003150D03*
X013088Y006150D03*
X010338Y007900D03*
X008088Y008650D03*
X007088Y009650D03*
X007713Y011150D03*
X008213Y011150D03*
X008338Y013150D03*
X007838Y014650D03*
X007588Y015650D03*
X006338Y016650D03*
X005338Y016650D03*
X004588Y015150D03*
X004588Y014150D03*
X009088Y017525D03*
X009088Y019150D03*
X012088Y016150D03*
X009838Y013150D03*
X011088Y012650D03*
X012338Y010900D03*
X015588Y011650D03*
X015588Y009650D03*
X007588Y003150D03*
X007588Y001150D03*
X004588Y001150D03*
X004588Y003150D03*
X005588Y008150D03*
X005588Y008650D03*
D29*
X008963Y007525D02*
X009088Y007650D01*
X009140Y007650D01*
X009213Y007650D01*
X009338Y007525D01*
X009140Y007552D02*
X009140Y007650D01*
X009140Y008550D01*
X009809Y006292D02*
X009809Y005583D01*
X011344Y005583D02*
X011344Y006292D01*
X011338Y007400D02*
X011838Y007900D01*
X014088Y007150D02*
X014088Y006485D01*
X004715Y017526D02*
X004715Y018027D01*
X004963Y018275D01*
X004963Y018735D01*
X004923Y018775D02*
X006004Y018775D01*
X006673Y018775D02*
X007838Y018775D01*
D30*
X010713Y008400D02*
X010713Y008150D01*
D31*
X011935Y007282D02*
X012067Y007150D01*
X012588Y007150D01*
X014088Y007150D01*
X014338Y007150D01*
X014338Y007525D01*
X014338Y007150D02*
X014588Y007150D01*
X015588Y007150D01*
X016088Y007150D01*
X017588Y007150D01*
X013588Y004166D02*
X012447Y005307D01*
X012588Y004150D02*
X011970Y004150D01*
X011209Y004912D01*
X010088Y005032D02*
X010088Y004150D01*
X009088Y004150D02*
X009088Y005032D01*
X008588Y007275D02*
X007713Y008150D01*
X007588Y008150D02*
X006588Y008150D01*
X006088Y007650D01*
X006088Y007150D01*
X006088Y005189D01*
X003588Y012275D02*
X004553Y013115D01*
X007428Y013115D01*
X008803Y014490D01*
X009213Y014490D01*
X010338Y014490D01*
X013118Y014490D01*
X013118Y016310D02*
X014123Y016310D01*
X014338Y016400D01*
X014463Y017775D02*
X014338Y019150D01*
X011338Y019150D02*
X010463Y018275D01*
X010357Y018169D01*
X010357Y016150D01*
X013588Y004166D02*
X013588Y004150D01*
D32*
X012447Y005307D02*
X011996Y005711D01*
X011856Y005819D02*
X011856Y005603D01*
X011209Y004912D02*
X010833Y005268D01*
X010833Y005819D01*
X010321Y005819D02*
X010321Y005347D01*
X010088Y005032D01*
X009297Y005398D02*
X009181Y005124D01*
X009297Y005398D02*
X009297Y005819D01*
X011856Y007479D02*
X011856Y008690D01*
D33*
X014338Y007525D02*
X014338Y016400D01*
X014338Y017025D01*
X014463Y017775D01*
X014463Y017900D02*
X014463Y019150D01*
X013213Y019150D02*
X012338Y019150D01*
X011338Y019150D01*
X011213Y019150D02*
X010463Y018275D01*
X010463Y018150D02*
X010463Y016150D01*
D34*
X013118Y014490D02*
X013140Y014469D01*
X013140Y013400D01*
X013140Y010701D01*
X013088Y010650D01*
X011838Y007900D02*
X012588Y007150D01*
X013588Y007275D02*
X014088Y007775D01*
X014588Y007775D01*
X014651Y007713D01*
X015088Y007275D01*
X014588Y007150D02*
X015088Y006650D01*
X015088Y004650D01*
X015588Y004150D01*
X016088Y004150D01*
X017588Y004150D01*
X010338Y008900D02*
X010338Y009400D01*
X006088Y005189D02*
X006088Y004150D01*
X003534Y010524D02*
X003534Y012221D01*
X003588Y012275D01*
X014463Y017775D02*
X015213Y017775D01*
X016037Y017150D01*
D35*
X011935Y007282D02*
X009140Y007276D01*
X009139Y007275D02*
X008588Y007275D01*
D36*
X015088Y006650D02*
X015588Y007150D01*
D37*
X010338Y009400D03*
X007838Y018775D03*
D38*
X013088Y010650D03*
M02*
