  0
SECTION
  2
HEADER
  9
$ACADVER
  1
AC1009
  9
$FILLMODE
 70
0
  9
$EXTMIN
 10
3.8394
 20
-0.1270
 30
0.0000
  9
$EXTMAX
 10
51.5620
 20
51.8795
 30
0.0000
  0
ENDSEC
  0
SECTION
  2
TABLES
  0
TABLE
  2
LTYPE
 70
1
  0
LTYPE
  2
CONTINUOUS
 70
64
  3
Solid line
 72
65
 73
0
 40
0
  0
ENDTAB
  0
TABLE
  2
LAYER
 70
255
  0
LAYER
  2
31
 70
64
 62
253
  6
CONTINUOUS
  0
LAYER
  2
105
 70
64
 62
253
  6
CONTINUOUS
  0
LAYER
  2
209
 70
64
 62
253
  6
CONTINUOUS
  0
LAYER
  2
210
 70
64
 62
253
  6
CONTINUOUS
  0
LAYER
  2
211
 70
64
 62
253
  6
CONTINUOUS
  0
LAYER
  2
212
 70
64
 62
253
  6
CONTINUOUS
  0
LAYER
  2
213
 70
64
 62
253
  6
CONTINUOUS
  0
LAYER
  2
214
 70
64
 62
253
  6
CONTINUOUS
  0
LAYER
  2
215
 70
64
 62
253
  6
CONTINUOUS
  0
LAYER
  2
216
 70
64
 62
253
  6
CONTINUOUS
  0
LAYER
  2
255
 70
64
 62
253
  6
CONTINUOUS
  0
ENDTAB
  0
ENDSEC
  0
SECTION
  2
BLOCKS
  0
BLOCK
  8
0
  2
RECT
 70
64
 10
0.0000
 20
0.0000
 30
0.0000
  3
RECT
  0
SOLID
  8
0
 10
-0.5000
 20
-0.5000
 30
0.0000
 11
0.5000
 21
-0.5000
 31
0.0000
 12
-0.5000
 22
0.5000
 32
0.0000
 13
0.5000
 23
0.5000
 33
0.0000
  0
ENDBLK
  8
0
  0
BLOCK
  8
0
  2
PIE
 70
64
 10
0.0000
 20
0.0000
 30
0.0000
  3
PIE
  0
CIRCLE
  8
0
 10
0.0000
 20
0.0000
 30
0.0000
 40
0.5000
  0
ENDBLK
  8
0
  0
BLOCK
  8
0
  2
OCTAGONP
 70
64
 10
0.0000
 20
0.0000
 30
0.0000
  3
OCTAGONP
  0
POLYLINE
  8
0
 66
1
 10
0.0000
 20
0.0000
 30
0.0000
 40
0.0000
 41
0.0000
 70
1
  0
VERTEX
  8
0
 10
-0.5000
 20
-0.2071
 30
0.0000
  0
VERTEX
  8
0
 10
-0.5000
 20
0.2071
 30
0.0000
  0
VERTEX
  8
0
 10
-0.2071
 20
0.5000
 30
0.0000
  0
VERTEX
  8
0
 10
0.2071
 20
0.5000
 30
0.0000
  0
VERTEX
  8
0
 10
0.5000
 20
0.2071
 30
0.0000
  0
VERTEX
  8
0
 10
0.5000
 20
-0.2071
 30
0.0000
  0
VERTEX
  8
0
 10
0.2071
 20
-0.5000
 30
0.0000
  0
VERTEX
  8
0
 10
-0.2071
 20
-0.5000
 30
0.0000
  0
SEQEND
  8
0
  0
ENDBLK
  8
0
  0
BLOCK
  8
0
  2
SQUAREP
 70
64
 10
0.0000
 20
0.0000
 30
0.0000
  3
SQUAREP
  0
SOLID
  8
0
 10
-0.5000
 20
-0.5000
 30
0.0000
 11
0.5000
 21
-0.5000
 31
0.0000
 12
-0.5000
 22
0.5000
 32
0.0000
 13
0.5000
 23
0.5000
 33
0.0000
  0
ENDBLK
  8
0
  0
BLOCK
  8
0
  2
ROUNDP
 70
64
 10
0.0000
 20
0.0000
 30
0.0000
  3
ROUNDP
  0
CIRCLE
  8
0
 10
0.0000
 20
0.0000
 30
0.0000
 40
0.5000
  0
ENDBLK
  8
0
  0
BLOCK
  8
0
  2
ANNULUSP
 70
64
 10
0.0000
 20
0.0000
 30
0.0000
  3
ANNULUSP
  0
CIRCLE
  8
0
 10
0.0000
 20
0.0000
 30
0.0000
 40
0.5000
  0
ENDBLK
  8
0
  0
BLOCK
  8
0
  2
THERMALP
 70
64
 10
0.0000
 20
0.0000
 30
0.0000
  3
THERMALP
  0
LINE
  8
0
 10
-0.2379
 20
0.4500
 30
0.0000
 11
0.2379
 21
0.4500
 31
0.0000
  0
LINE
  8
0
 10
0.4500
 20
0.2379
 30
0.0000
 11
0.4500
 21
-0.2379
 31
0.0000
  0
LINE
  8
0
 10
0.2379
 20
-0.4500
 30
0.0000
 11
-0.2379
 21
-0.4500
 31
0.0000
  0
LINE
  8
0
 10
-0.4500
 20
-0.2379
 30
0.0000
 11
-0.4500
 21
0.2379
 31
0.0000
  0
ENDBLK
  8
0
  0
BLOCK
  8
0
  2
OCTAGONV
 70
64
 10
0.0000
 20
0.0000
 30
0.0000
  3
OCTAGONV
  0
POLYLINE
  8
0
 66
1
 10
0.0000
 20
0.0000
 30
0.0000
 40
0.0000
 41
0.0000
 70
1
  0
VERTEX
  8
0
 10
-0.5000
 20
-0.2071
 30
0.0000
  0
VERTEX
  8
0
 10
-0.5000
 20
0.2071
 30
0.0000
  0
VERTEX
  8
0
 10
-0.2071
 20
0.5000
 30
0.0000
  0
VERTEX
  8
0
 10
0.2071
 20
0.5000
 30
0.0000
  0
VERTEX
  8
0
 10
0.5000
 20
0.2071
 30
0.0000
  0
VERTEX
  8
0
 10
0.5000
 20
-0.2071
 30
0.0000
  0
VERTEX
  8
0
 10
0.2071
 20
-0.5000
 30
0.0000
  0
VERTEX
  8
0
 10
-0.2071
 20
-0.5000
 30
0.0000
  0
SEQEND
  8
0
  0
ENDBLK
  8
0
  0
BLOCK
  8
0
  2
SQUAREV
 70
64
 10
0.0000
 20
0.0000
 30
0.0000
  3
SQUAREV
  0
SOLID
  8
0
 10
-0.5000
 20
-0.5000
 30
0.0000
 11
0.5000
 21
-0.5000
 31
0.0000
 12
-0.5000
 22
0.5000
 32
0.0000
 13
0.5000
 23
0.5000
 33
0.0000
  0
ENDBLK
  8
0
  0
BLOCK
  8
0
  2
ROUNDV
 70
64
 10
0.0000
 20
0.0000
 30
0.0000
  3
ROUNDV
  0
CIRCLE
  8
0
 10
0.0000
 20
0.0000
 30
0.0000
 40
0.5000
  0
ENDBLK
  8
0
  0
BLOCK
  8
0
  2
ANNULUSV
 70
64
 10
0.0000
 20
0.0000
 30
0.0000
  3
ANNULUSV
  0
CIRCLE
  8
0
 10
0.0000
 20
0.0000
 30
0.0000
 40
0.5000
  0
ENDBLK
  8
0
  0
BLOCK
  8
0
  2
THERMALV
 70
64
 10
0.0000
 20
0.0000
 30
0.0000
  3
THERMALV
  0
LINE
  8
0
 10
-0.2379
 20
0.4500
 30
0.0000
 11
0.2379
 21
0.4500
 31
0.0000
  0
LINE
  8
0
 10
0.4500
 20
0.2379
 30
0.0000
 11
0.4500
 21
-0.2379
 31
0.0000
  0
LINE
  8
0
 10
0.2379
 20
-0.4500
 30
0.0000
 11
-0.2379
 21
-0.4500
 31
0.0000
  0
LINE
  8
0
 10
-0.4500
 20
-0.2379
 30
0.0000
 11
-0.4500
 21
0.2379
 31
0.0000
  0
ENDBLK
  8
0
  0
BLOCK
  8
0
  2
LONGP100
 70
64
 10
0.0000
 20
0.0000
 30
0.0000
  3
LONGP100
  0
POLYLINE
  8
0
 66
1
 10
0.0000
 20
0.0000
 30
0.0000
 40
0.0000
 41
0.0000
 70
1
  0
VERTEX
  8
0
 10
-0.5000
 20
-0.5000
 30
0.0000
  0
VERTEX
  8
0
 10
0.5000
 20
-0.5000
 30
0.0000
 42
1.0000
  0
VERTEX
  8
0
 10
0.5000
 20
0.5000
 30
0.0000
  0
VERTEX
  8
0
 10
-0.5000
 20
0.5000
 30
0.0000
 42
1.0000
  0
SEQEND
  8
0
  0
ENDBLK
  8
0
  0
ENDSEC
  0
SECTION
  2
ENTITIES
  0
INSERT
  8
31
  2
RECT
 10
44.3200
 20
43.1800
 30
0.0000
 41
1.6000
 42
1.8000
 43
1.0000
 50
0.0000
  0
INSERT
  8
31
  2
RECT
 10
47.1200
 20
43.1800
 30
0.0000
 41
1.6000
 42
1.8000
 43
1.0000
 50
0.0000
  0
INSERT
  8
31
  2
RECT
 10
36.9600
 20
33.6550
 30
0.0000
 41
1.6000
 42
1.8000
 43
1.0000
 50
180.0000
  0
INSERT
  8
31
  2
RECT
 10
34.1600
 20
33.6550
 30
0.0000
 41
1.6000
 42
1.8000
 43
1.0000
 50
180.0000
  0
INSERT
  8
31
  2
RECT
 10
39.3700
 20
16.0900
 30
0.0000
 41
1.1000
 42
1.0000
 43
1.0000
 50
270.0000
  0
INSERT
  8
31
  2
RECT
 10
39.3700
 20
14.3900
 30
0.0000
 41
1.1000
 42
1.0000
 43
1.0000
 50
270.0000
  0
INSERT
  8
31
  2
RECT
 10
36.8300
 20
24.6625
 30
0.0000
 41
1.1000
 42
1.0000
 43
1.0000
 50
270.0000
  0
INSERT
  8
31
  2
RECT
 10
36.8300
 20
22.9625
 30
0.0000
 41
1.1000
 42
1.0000
 43
1.0000
 50
270.0000
  0
INSERT
  8
31
  2
RECT
 10
9.7400
 20
23.4950
 30
0.0000
 41
1.1000
 42
1.0000
 43
1.0000
 50
180.0000
  0
INSERT
  8
31
  2
RECT
 10
8.0400
 20
23.4950
 30
0.0000
 41
1.1000
 42
1.0000
 43
1.0000
 50
180.0000
  0
INSERT
  8
31
  2
RECT
 10
18.8350
 20
47.3075
 30
0.0000
 41
1.1000
 42
1.0000
 43
1.0000
 50
0.0000
  0
INSERT
  8
31
  2
RECT
 10
20.5350
 20
47.3075
 30
0.0000
 41
1.1000
 42
1.0000
 43
1.0000
 50
0.0000
  0
INSERT
  8
31
  2
RECT
 10
14.3900
 20
47.3075
 30
0.0000
 41
1.1000
 42
1.0000
 43
1.0000
 50
0.0000
  0
INSERT
  8
31
  2
RECT
 10
16.0900
 20
47.3075
 30
0.0000
 41
1.1000
 42
1.0000
 43
1.0000
 50
0.0000
  0
INSERT
  8
31
  2
RECT
 10
16.9300
 20
23.4950
 30
0.0000
 41
1.1000
 42
1.0000
 43
1.0000
 50
0.0000
  0
INSERT
  8
31
  2
RECT
 10
18.6300
 20
23.4950
 30
0.0000
 41
1.1000
 42
1.0000
 43
1.0000
 50
0.0000
  0
INSERT
  8
31
  2
RECT
 10
13.2325
 20
18.4150
 30
0.0000
 41
1.1000
 42
1.0000
 43
1.0000
 50
180.0000
  0
INSERT
  8
31
  2
RECT
 10
11.5325
 20
18.4150
 30
0.0000
 41
1.1000
 42
1.0000
 43
1.0000
 50
180.0000
  0
INSERT
  8
31
  2
RECT
 10
14.1850
 20
23.4950
 30
0.0000
 41
1.1000
 42
1.0000
 43
1.0000
 50
180.0000
  0
INSERT
  8
31
  2
RECT
 10
12.4850
 20
23.4950
 30
0.0000
 41
1.1000
 42
1.0000
 43
1.0000
 50
180.0000
  0
INSERT
  8
31
  2
RECT
 10
26.9875
 20
32.8050
 30
0.0000
 41
1.1000
 42
1.0000
 43
1.0000
 50
90.0000
  0
INSERT
  8
31
  2
RECT
 10
26.9875
 20
34.5050
 30
0.0000
 41
1.1000
 42
1.0000
 43
1.0000
 50
90.0000
  0
INSERT
  8
31
  2
RECT
 10
30.1625
 20
32.8050
 30
0.0000
 41
1.1000
 42
1.0000
 43
1.0000
 50
90.0000
  0
INSERT
  8
31
  2
RECT
 10
30.1625
 20
34.5050
 30
0.0000
 41
1.1000
 42
1.0000
 43
1.0000
 50
90.0000
  0
INSERT
  8
31
  2
RECT
 10
29.0400
 20
29.6500
 30
0.0000
 41
1.0500
 42
0.6500
 43
1.0000
 50
0.0000
  0
INSERT
  8
31
  2
RECT
 10
33.1900
 20
29.6500
 30
0.0000
 41
1.0500
 42
0.6500
 43
1.0000
 50
0.0000
  0
INSERT
  8
31
  2
RECT
 10
29.0400
 20
27.5000
 30
0.0000
 41
1.0500
 42
0.6500
 43
1.0000
 50
0.0000
  0
INSERT
  8
31
  2
RECT
 10
33.1900
 20
27.5000
 30
0.0000
 41
1.0500
 42
0.6500
 43
1.0000
 50
0.0000
  0
INSERT
  8
31
  2
RECT
 10
13.7750
 20
14.7750
 30
0.0000
 41
1.0500
 42
0.6500
 43
1.0000
 50
270.0000
  0
INSERT
  8
31
  2
RECT
 10
13.7750
 20
10.6250
 30
0.0000
 41
1.0500
 42
0.6500
 43
1.0000
 50
270.0000
  0
INSERT
  8
31
  2
RECT
 10
11.6250
 20
14.7750
 30
0.0000
 41
1.0500
 42
0.6500
 43
1.0000
 50
270.0000
  0
INSERT
  8
31
  2
RECT
 10
11.6250
 20
10.6250
 30
0.0000
 41
1.0500
 42
0.6500
 43
1.0000
 50
270.0000
  0
INSERT
  8
31
  2
RECT
 10
36.9062
 20
41.0464
 30
0.0000
 41
1.2192
 42
2.2352
 43
1.0000
 50
270.0000
  0
INSERT
  8
31
  2
RECT
 10
36.9062
 20
38.7350
 30
0.0000
 41
1.2192
 42
2.2352
 43
1.0000
 50
270.0000
  0
INSERT
  8
31
  2
RECT
 10
36.9062
 20
36.4236
 30
0.0000
 41
1.2192
 42
2.2352
 43
1.0000
 50
270.0000
  0
INSERT
  8
31
  2
RECT
 10
43.1040
 20
38.7350
 30
0.0000
 41
3.6000
 42
2.2000
 43
1.0000
 50
270.0000
  0
INSERT
  8
31
  2
RECT
 10
26.9050
 20
14.1240
 30
0.0000
 41
0.3480
 42
1.3970
 43
1.0000
 50
0.0000
  0
INSERT
  8
31
  2
RECT
 10
27.5550
 20
14.1240
 30
0.0000
 41
0.3480
 42
1.3970
 43
1.0000
 50
0.0000
  0
INSERT
  8
31
  2
RECT
 10
28.2050
 20
14.1240
 30
0.0000
 41
0.3480
 42
1.3970
 43
1.0000
 50
0.0000
  0
INSERT
  8
31
  2
RECT
 10
28.8550
 20
14.1240
 30
0.0000
 41
0.3480
 42
1.3970
 43
1.0000
 50
0.0000
  0
INSERT
  8
31
  2
RECT
 10
29.5050
 20
14.1240
 30
0.0000
 41
0.3480
 42
1.3970
 43
1.0000
 50
0.0000
  0
INSERT
  8
31
  2
RECT
 10
30.1550
 20
14.1240
 30
0.0000
 41
0.3480
 42
1.3970
 43
1.0000
 50
0.0000
  0
INSERT
  8
31
  2
RECT
 10
30.8050
 20
14.1240
 30
0.0000
 41
0.3480
 42
1.3970
 43
1.0000
 50
0.0000
  0
INSERT
  8
31
  2
RECT
 10
31.4550
 20
14.1240
 30
0.0000
 41
0.3480
 42
1.3970
 43
1.0000
 50
0.0000
  0
INSERT
  8
31
  2
RECT
 10
32.1050
 20
14.1240
 30
0.0000
 41
0.3480
 42
1.3970
 43
1.0000
 50
0.0000
  0
INSERT
  8
31
  2
RECT
 10
32.7550
 20
14.1240
 30
0.0000
 41
0.3480
 42
1.3970
 43
1.0000
 50
0.0000
  0
INSERT
  8
31
  2
RECT
 10
33.4050
 20
14.1240
 30
0.0000
 41
0.3480
 42
1.3970
 43
1.0000
 50
0.0000
  0
INSERT
  8
31
  2
RECT
 10
34.0550
 20
14.1240
 30
0.0000
 41
0.3480
 42
1.3970
 43
1.0000
 50
0.0000
  0
INSERT
  8
31
  2
RECT
 10
34.0550
 20
21.4360
 30
0.0000
 41
0.3480
 42
1.3970
 43
1.0000
 50
180.0000
  0
INSERT
  8
31
  2
RECT
 10
33.4050
 20
21.4360
 30
0.0000
 41
0.3480
 42
1.3970
 43
1.0000
 50
180.0000
  0
INSERT
  8
31
  2
RECT
 10
32.7550
 20
21.4360
 30
0.0000
 41
0.3480
 42
1.3970
 43
1.0000
 50
0.0000
  0
INSERT
  8
31
  2
RECT
 10
32.1050
 20
21.4360
 30
0.0000
 41
0.3480
 42
1.3970
 43
1.0000
 50
0.0000
  0
INSERT
  8
31
  2
RECT
 10
31.4550
 20
21.4360
 30
0.0000
 41
0.3480
 42
1.3970
 43
1.0000
 50
0.0000
  0
INSERT
  8
31
  2
RECT
 10
30.8050
 20
21.4360
 30
0.0000
 41
0.3480
 42
1.3970
 43
1.0000
 50
0.0000
  0
INSERT
  8
31
  2
RECT
 10
30.1550
 20
21.4360
 30
0.0000
 41
0.3480
 42
1.3970
 43
1.0000
 50
0.0000
  0
INSERT
  8
31
  2
RECT
 10
29.5050
 20
21.4360
 30
0.0000
 41
0.3480
 42
1.3970
 43
1.0000
 50
0.0000
  0
INSERT
  8
31
  2
RECT
 10
28.8550
 20
21.4360
 30
0.0000
 41
0.3480
 42
1.3970
 43
1.0000
 50
0.0000
  0
INSERT
  8
31
  2
RECT
 10
28.2050
 20
21.4360
 30
0.0000
 41
0.3480
 42
1.3970
 43
1.0000
 50
0.0000
  0
INSERT
  8
31
  2
RECT
 10
27.5550
 20
21.4360
 30
0.0000
 41
0.3480
 42
1.3970
 43
1.0000
 50
0.0000
  0
INSERT
  8
31
  2
RECT
 10
26.9050
 20
21.4360
 30
0.0000
 41
0.3480
 42
1.3970
 43
1.0000
 50
0.0000
  0
INSERT
  8
31
  2
RECT
 10
12.5625
 20
26.3500
 30
0.0000
 41
1.4850
 42
0.9000
 43
1.0000
 50
90.0000
  0
INSERT
  8
31
  2
RECT
 10
14.0625
 20
26.3500
 30
0.0000
 41
1.4850
 42
0.9000
 43
1.0000
 50
90.0000
  0
INSERT
  8
31
  2
RECT
 10
15.5625
 20
26.3500
 30
0.0000
 41
1.4850
 42
0.9000
 43
1.0000
 50
90.0000
  0
INSERT
  8
31
  2
RECT
 10
17.0625
 20
26.3500
 30
0.0000
 41
1.4850
 42
0.9000
 43
1.0000
 50
90.0000
  0
INSERT
  8
31
  2
RECT
 10
18.5625
 20
26.3500
 30
0.0000
 41
1.4850
 42
0.9000
 43
1.0000
 50
90.0000
  0
INSERT
  8
31
  2
RECT
 10
20.0625
 20
26.3500
 30
0.0000
 41
1.4850
 42
0.9000
 43
1.0000
 50
90.0000
  0
INSERT
  8
31
  2
RECT
 10
21.5625
 20
26.3500
 30
0.0000
 41
1.4850
 42
0.9000
 43
1.0000
 50
90.0000
  0
INSERT
  8
31
  2
RECT
 10
23.0625
 20
26.3500
 30
0.0000
 41
1.4850
 42
0.9000
 43
1.0000
 50
90.0000
  0
INSERT
  8
31
  2
RECT
 10
24.5625
 20
26.3500
 30
0.0000
 41
1.4850
 42
0.9000
 43
1.0000
 50
90.0000
  0
INSERT
  8
31
  2
RECT
 10
24.5625
 20
44.1350
 30
0.0000
 41
1.4850
 42
0.9000
 43
1.0000
 50
90.0000
  0
INSERT
  8
31
  2
RECT
 10
23.0625
 20
44.1350
 30
0.0000
 41
1.4850
 42
0.9000
 43
1.0000
 50
90.0000
  0
INSERT
  8
31
  2
RECT
 10
21.5625
 20
44.1350
 30
0.0000
 41
1.4850
 42
0.9000
 43
1.0000
 50
90.0000
  0
INSERT
  8
31
  2
RECT
 10
20.0625
 20
44.1350
 30
0.0000
 41
1.4850
 42
0.9000
 43
1.0000
 50
90.0000
  0
INSERT
  8
31
  2
RECT
 10
18.5625
 20
44.1350
 30
0.0000
 41
1.4850
 42
0.9000
 43
1.0000
 50
90.0000
  0
INSERT
  8
31
  2
RECT
 10
17.0625
 20
44.1350
 30
0.0000
 41
1.4850
 42
0.9000
 43
1.0000
 50
90.0000
  0
INSERT
  8
31
  2
RECT
 10
15.5625
 20
44.1350
 30
0.0000
 41
1.4850
 42
0.9000
 43
1.0000
 50
90.0000
  0
INSERT
  8
31
  2
RECT
 10
14.0625
 20
44.1350
 30
0.0000
 41
1.4850
 42
0.9000
 43
1.0000
 50
90.0000
  0
INSERT
  8
31
  2
RECT
 10
12.5625
 20
44.1350
 30
0.0000
 41
1.4850
 42
0.9000
 43
1.0000
 50
90.0000
  0
ENDSEC
  0
EOF
