%
M48
M72
T01C0.0120
T02C0.0197
T03C0.0236
T04C0.0276
T05C0.0315
T06C0.0354
T07C0.0360
T08C0.0400
T09C0.1260
%
T01
X4588Y1150
X4588Y3150
X7588Y3150
X7588Y1150
X10588Y1150
X10588Y3150
X13088Y6150
X13588Y3150
X13588Y1150
X17088Y2650
X15588Y9650
X15588Y11650
X12338Y10900
X11088Y12650
X9838Y13150
X8338Y13150
X7838Y14650
X7588Y15650
X6338Y16650
X5338Y16650
X4588Y15150
X4588Y14150
X7713Y11150
X8213Y11150
X7088Y9650
X8088Y8650
X10338Y7900
X5588Y8150
X5588Y8650
X12088Y16150
X9088Y17525
X9088Y19150
T02
X16088Y4642
X16088Y4150
X16088Y3650
X17588Y3650
X17588Y4150
X17588Y4642
X6581Y4150
X6088Y4150
X5588Y4150
T03
X10338Y9400
X7838Y18775
T04
X9570Y16150
X10357Y16150
T05
X13088Y10650
T06
X17088Y10650
X17088Y11650
X17088Y12650
X17088Y13650
X14338Y19150
X13338Y19150
X12338Y19150
X12588Y4150
X13588Y4150
X10088Y4150
X9088Y4150
T07
X17088Y15650
T08
X17588Y8150
X17588Y7150
X17588Y6150
X16088Y6150
X16088Y7150
X16088Y8150
X7088Y7150
X6088Y7150
X5088Y7150
X1838Y7150
X1838Y6150
X1838Y5150
X1838Y4150
X1838Y3150
X1838Y8150
T09
X2683Y1292
X16462Y1292
X16462Y19008
X2683Y19008
M30
