G75*
%MOIN*%
%OFA0B0*%
%FSLAX24Y24*%
%IPPOS*%
%LPD*%
%AMOC8*
5,1,8,0,0,1.08239X$1,22.5*
%
%ADD10C,0.0000*%
%ADD11C,0.0540*%
%ADD12C,0.0531*%
%ADD13C,0.0600*%
%ADD14C,0.0317*%
%ADD15C,0.0413*%
%ADD16C,0.0740*%
%ADD17C,0.0100*%
%ADD18C,0.0240*%
%ADD19C,0.0356*%
%ADD20C,0.0240*%
%ADD21C,0.0472*%
%ADD22C,0.0320*%
D10*
X001699Y000307D02*
X000714Y002276D01*
X000714Y018024D01*
X001699Y019993D01*
X017447Y019993D01*
X018431Y018024D01*
X018431Y002276D01*
X017447Y000307D01*
X001699Y000307D01*
X002053Y001292D02*
X002055Y001342D01*
X002061Y001392D01*
X002071Y001441D01*
X002085Y001489D01*
X002102Y001536D01*
X002123Y001581D01*
X002148Y001625D01*
X002176Y001666D01*
X002208Y001705D01*
X002242Y001742D01*
X002279Y001776D01*
X002319Y001806D01*
X002361Y001833D01*
X002405Y001857D01*
X002451Y001878D01*
X002498Y001894D01*
X002546Y001907D01*
X002596Y001916D01*
X002645Y001921D01*
X002696Y001922D01*
X002746Y001919D01*
X002795Y001912D01*
X002844Y001901D01*
X002892Y001886D01*
X002938Y001868D01*
X002983Y001846D01*
X003026Y001820D01*
X003067Y001791D01*
X003106Y001759D01*
X003142Y001724D01*
X003174Y001686D01*
X003204Y001646D01*
X003231Y001603D01*
X003254Y001559D01*
X003273Y001513D01*
X003289Y001465D01*
X003301Y001416D01*
X003309Y001367D01*
X003313Y001317D01*
X003313Y001267D01*
X003309Y001217D01*
X003301Y001168D01*
X003289Y001119D01*
X003273Y001071D01*
X003254Y001025D01*
X003231Y000981D01*
X003204Y000938D01*
X003174Y000898D01*
X003142Y000860D01*
X003106Y000825D01*
X003067Y000793D01*
X003026Y000764D01*
X002983Y000738D01*
X002938Y000716D01*
X002892Y000698D01*
X002844Y000683D01*
X002795Y000672D01*
X002746Y000665D01*
X002696Y000662D01*
X002645Y000663D01*
X002596Y000668D01*
X002546Y000677D01*
X002498Y000690D01*
X002451Y000706D01*
X002405Y000727D01*
X002361Y000751D01*
X002319Y000778D01*
X002279Y000808D01*
X002242Y000842D01*
X002208Y000879D01*
X002176Y000918D01*
X002148Y000959D01*
X002123Y001003D01*
X002102Y001048D01*
X002085Y001095D01*
X002071Y001143D01*
X002061Y001192D01*
X002055Y001242D01*
X002053Y001292D01*
X015832Y001292D02*
X015834Y001342D01*
X015840Y001392D01*
X015850Y001441D01*
X015864Y001489D01*
X015881Y001536D01*
X015902Y001581D01*
X015927Y001625D01*
X015955Y001666D01*
X015987Y001705D01*
X016021Y001742D01*
X016058Y001776D01*
X016098Y001806D01*
X016140Y001833D01*
X016184Y001857D01*
X016230Y001878D01*
X016277Y001894D01*
X016325Y001907D01*
X016375Y001916D01*
X016424Y001921D01*
X016475Y001922D01*
X016525Y001919D01*
X016574Y001912D01*
X016623Y001901D01*
X016671Y001886D01*
X016717Y001868D01*
X016762Y001846D01*
X016805Y001820D01*
X016846Y001791D01*
X016885Y001759D01*
X016921Y001724D01*
X016953Y001686D01*
X016983Y001646D01*
X017010Y001603D01*
X017033Y001559D01*
X017052Y001513D01*
X017068Y001465D01*
X017080Y001416D01*
X017088Y001367D01*
X017092Y001317D01*
X017092Y001267D01*
X017088Y001217D01*
X017080Y001168D01*
X017068Y001119D01*
X017052Y001071D01*
X017033Y001025D01*
X017010Y000981D01*
X016983Y000938D01*
X016953Y000898D01*
X016921Y000860D01*
X016885Y000825D01*
X016846Y000793D01*
X016805Y000764D01*
X016762Y000738D01*
X016717Y000716D01*
X016671Y000698D01*
X016623Y000683D01*
X016574Y000672D01*
X016525Y000665D01*
X016475Y000662D01*
X016424Y000663D01*
X016375Y000668D01*
X016325Y000677D01*
X016277Y000690D01*
X016230Y000706D01*
X016184Y000727D01*
X016140Y000751D01*
X016098Y000778D01*
X016058Y000808D01*
X016021Y000842D01*
X015987Y000879D01*
X015955Y000918D01*
X015927Y000959D01*
X015902Y001003D01*
X015881Y001048D01*
X015864Y001095D01*
X015850Y001143D01*
X015840Y001192D01*
X015834Y001242D01*
X015832Y001292D01*
X015832Y019008D02*
X015834Y019058D01*
X015840Y019108D01*
X015850Y019157D01*
X015864Y019205D01*
X015881Y019252D01*
X015902Y019297D01*
X015927Y019341D01*
X015955Y019382D01*
X015987Y019421D01*
X016021Y019458D01*
X016058Y019492D01*
X016098Y019522D01*
X016140Y019549D01*
X016184Y019573D01*
X016230Y019594D01*
X016277Y019610D01*
X016325Y019623D01*
X016375Y019632D01*
X016424Y019637D01*
X016475Y019638D01*
X016525Y019635D01*
X016574Y019628D01*
X016623Y019617D01*
X016671Y019602D01*
X016717Y019584D01*
X016762Y019562D01*
X016805Y019536D01*
X016846Y019507D01*
X016885Y019475D01*
X016921Y019440D01*
X016953Y019402D01*
X016983Y019362D01*
X017010Y019319D01*
X017033Y019275D01*
X017052Y019229D01*
X017068Y019181D01*
X017080Y019132D01*
X017088Y019083D01*
X017092Y019033D01*
X017092Y018983D01*
X017088Y018933D01*
X017080Y018884D01*
X017068Y018835D01*
X017052Y018787D01*
X017033Y018741D01*
X017010Y018697D01*
X016983Y018654D01*
X016953Y018614D01*
X016921Y018576D01*
X016885Y018541D01*
X016846Y018509D01*
X016805Y018480D01*
X016762Y018454D01*
X016717Y018432D01*
X016671Y018414D01*
X016623Y018399D01*
X016574Y018388D01*
X016525Y018381D01*
X016475Y018378D01*
X016424Y018379D01*
X016375Y018384D01*
X016325Y018393D01*
X016277Y018406D01*
X016230Y018422D01*
X016184Y018443D01*
X016140Y018467D01*
X016098Y018494D01*
X016058Y018524D01*
X016021Y018558D01*
X015987Y018595D01*
X015955Y018634D01*
X015927Y018675D01*
X015902Y018719D01*
X015881Y018764D01*
X015864Y018811D01*
X015850Y018859D01*
X015840Y018908D01*
X015834Y018958D01*
X015832Y019008D01*
X002053Y019008D02*
X002055Y019058D01*
X002061Y019108D01*
X002071Y019157D01*
X002085Y019205D01*
X002102Y019252D01*
X002123Y019297D01*
X002148Y019341D01*
X002176Y019382D01*
X002208Y019421D01*
X002242Y019458D01*
X002279Y019492D01*
X002319Y019522D01*
X002361Y019549D01*
X002405Y019573D01*
X002451Y019594D01*
X002498Y019610D01*
X002546Y019623D01*
X002596Y019632D01*
X002645Y019637D01*
X002696Y019638D01*
X002746Y019635D01*
X002795Y019628D01*
X002844Y019617D01*
X002892Y019602D01*
X002938Y019584D01*
X002983Y019562D01*
X003026Y019536D01*
X003067Y019507D01*
X003106Y019475D01*
X003142Y019440D01*
X003174Y019402D01*
X003204Y019362D01*
X003231Y019319D01*
X003254Y019275D01*
X003273Y019229D01*
X003289Y019181D01*
X003301Y019132D01*
X003309Y019083D01*
X003313Y019033D01*
X003313Y018983D01*
X003309Y018933D01*
X003301Y018884D01*
X003289Y018835D01*
X003273Y018787D01*
X003254Y018741D01*
X003231Y018697D01*
X003204Y018654D01*
X003174Y018614D01*
X003142Y018576D01*
X003106Y018541D01*
X003067Y018509D01*
X003026Y018480D01*
X002983Y018454D01*
X002938Y018432D01*
X002892Y018414D01*
X002844Y018399D01*
X002795Y018388D01*
X002746Y018381D01*
X002696Y018378D01*
X002645Y018379D01*
X002596Y018384D01*
X002546Y018393D01*
X002498Y018406D01*
X002451Y018422D01*
X002405Y018443D01*
X002361Y018467D01*
X002319Y018494D01*
X002279Y018524D01*
X002242Y018558D01*
X002208Y018595D01*
X002176Y018634D01*
X002148Y018675D01*
X002123Y018719D01*
X002102Y018764D01*
X002085Y018811D01*
X002071Y018859D01*
X002061Y018908D01*
X002055Y018958D01*
X002053Y019008D01*
D11*
X017088Y015650D03*
D12*
X017088Y013650D03*
X017088Y012650D03*
X017088Y011650D03*
X017088Y010650D03*
X013588Y004150D03*
X012588Y004150D03*
X010088Y004150D03*
X009088Y004150D03*
X012338Y019150D03*
X013338Y019150D03*
X014338Y019150D03*
D13*
X016088Y008150D03*
X016088Y007150D03*
X016088Y006150D03*
X017588Y006150D03*
X017588Y007150D03*
X017588Y008150D03*
X007088Y007150D03*
X006088Y007150D03*
X005088Y007150D03*
D14*
X005588Y004308D02*
X005588Y003992D01*
X006088Y003992D02*
X006088Y004308D01*
X006581Y004308D02*
X006581Y003992D01*
X015930Y004150D02*
X016247Y004150D01*
X016247Y004642D02*
X015930Y004642D01*
X015930Y003650D02*
X016247Y003650D01*
X017430Y003650D02*
X017747Y003650D01*
X017747Y004150D02*
X017430Y004150D01*
X017430Y004642D02*
X017747Y004642D01*
D15*
X010357Y016150D03*
X009570Y016150D03*
D16*
X001838Y008150D03*
X001838Y007150D03*
X001838Y006150D03*
X001838Y005150D03*
X001838Y004150D03*
X001838Y003150D03*
D17*
X001803Y001234D02*
X001515Y001234D01*
X001466Y001332D02*
X001803Y001332D01*
X001803Y001431D02*
X001417Y001431D01*
X001367Y001529D02*
X001829Y001529D01*
X001803Y001467D02*
X001803Y001117D01*
X001937Y000793D01*
X002173Y000557D01*
X001853Y000557D01*
X000964Y002335D01*
X000964Y010025D01*
X003088Y010025D01*
X003338Y010400D01*
X003338Y018419D01*
X003429Y018510D01*
X003563Y018833D01*
X003563Y019183D01*
X003429Y019507D01*
X003338Y019597D01*
X003338Y019743D01*
X015952Y019743D01*
X015716Y019507D01*
X015583Y019183D01*
X015583Y018833D01*
X015716Y018510D01*
X015964Y018262D01*
X016287Y018128D01*
X016637Y018128D01*
X016961Y018262D01*
X017208Y018510D01*
X017342Y018833D01*
X017342Y019183D01*
X017208Y019507D01*
X016973Y019743D01*
X017292Y019743D01*
X018181Y017965D01*
X018181Y012340D01*
X017788Y012733D01*
X017671Y012850D01*
X017456Y012850D01*
X017441Y012886D01*
X017324Y013002D01*
X017171Y013066D01*
X017006Y013066D01*
X016853Y013002D01*
X016736Y012886D01*
X016721Y012850D01*
X016671Y012850D01*
X016288Y013233D01*
X016288Y017233D01*
X015671Y017850D01*
X009371Y017850D01*
X009323Y017866D01*
X009291Y017850D01*
X009256Y017850D01*
X009220Y017814D01*
X009164Y017786D01*
X009142Y017795D01*
X009035Y017795D01*
X008935Y017754D01*
X008860Y017678D01*
X008818Y017579D01*
X008818Y017471D01*
X008860Y017372D01*
X008882Y017350D01*
X008256Y017350D01*
X007756Y016850D01*
X006520Y016850D01*
X006491Y016879D01*
X006392Y016920D01*
X006285Y016920D01*
X006185Y016879D01*
X006110Y016803D01*
X006068Y016704D01*
X006068Y016596D01*
X006110Y016497D01*
X006185Y016421D01*
X006285Y016380D01*
X006392Y016380D01*
X006491Y016421D01*
X006520Y016450D01*
X007921Y016450D01*
X008038Y016567D01*
X008421Y016950D01*
X015006Y016950D01*
X015388Y016567D01*
X015388Y012567D01*
X015506Y012450D01*
X016506Y011450D01*
X016721Y011450D01*
X016736Y011414D01*
X016853Y011298D01*
X017006Y011234D01*
X017171Y011234D01*
X017207Y011249D01*
X017388Y011067D01*
X017388Y010938D01*
X017324Y011002D01*
X017171Y011066D01*
X017006Y011066D01*
X016853Y011002D01*
X016810Y010960D01*
X013325Y010960D01*
X013307Y010977D01*
X013165Y011036D01*
X013012Y011036D01*
X012870Y010977D01*
X012761Y010869D01*
X012702Y010727D01*
X012702Y010702D01*
X011960Y009960D01*
X010527Y009960D01*
X010413Y009913D01*
X010196Y009696D01*
X010153Y009678D01*
X010060Y009586D01*
X010010Y009465D01*
X010010Y009335D01*
X010060Y009214D01*
X010153Y009122D01*
X010273Y009072D01*
X010404Y009072D01*
X010524Y009122D01*
X010617Y009214D01*
X010635Y009258D01*
X010717Y009340D01*
X012150Y009340D01*
X012264Y009387D01*
X013141Y010264D01*
X013165Y010264D01*
X013307Y010323D01*
X013325Y010340D01*
X016810Y010340D01*
X016853Y010298D01*
X017006Y010234D01*
X017171Y010234D01*
X017324Y010298D01*
X017388Y010362D01*
X017388Y010233D01*
X016388Y009233D01*
X016388Y008486D01*
X016382Y008493D01*
X016324Y008535D01*
X016261Y008567D01*
X016194Y008589D01*
X016138Y008598D01*
X016138Y008200D01*
X016038Y008200D01*
X016038Y008100D01*
X015641Y008100D01*
X015650Y008045D01*
X015671Y007977D01*
X015704Y007914D01*
X015745Y007857D01*
X015795Y007807D01*
X015853Y007765D01*
X015916Y007733D01*
X015983Y007711D01*
X016038Y007702D01*
X016038Y008100D01*
X016138Y008100D01*
X016138Y007702D01*
X016194Y007711D01*
X016261Y007733D01*
X016324Y007765D01*
X016382Y007807D01*
X016388Y007814D01*
X016388Y007486D01*
X016343Y007531D01*
X016178Y007600D01*
X015999Y007600D01*
X015834Y007531D01*
X015707Y007405D01*
X015638Y007240D01*
X015638Y007060D01*
X015707Y006895D01*
X015834Y006769D01*
X015999Y006700D01*
X016178Y006700D01*
X016343Y006769D01*
X016388Y006814D01*
X016388Y006733D01*
X016233Y006577D01*
X016178Y006600D01*
X015999Y006600D01*
X015834Y006531D01*
X015707Y006405D01*
X015638Y006240D01*
X015638Y006060D01*
X015639Y006060D02*
X004288Y006060D01*
X004288Y005962D02*
X015617Y005962D01*
X015661Y006006D02*
X015256Y005600D01*
X015138Y005483D01*
X015138Y003817D01*
X015388Y003567D01*
X015506Y003450D01*
X015694Y003450D01*
X015755Y003389D01*
X015869Y003342D01*
X016308Y003342D01*
X016422Y003389D01*
X016508Y003475D01*
X016555Y003589D01*
X016555Y003711D01*
X016508Y003825D01*
X016433Y003900D01*
X016508Y003975D01*
X016555Y004089D01*
X016555Y004211D01*
X016508Y004325D01*
X016436Y004397D01*
X016443Y004403D01*
X016486Y004446D01*
X016520Y004496D01*
X016543Y004552D01*
X016555Y004612D01*
X016555Y004642D01*
X016088Y004642D01*
X015622Y004642D01*
X015622Y004612D01*
X015633Y004552D01*
X015657Y004496D01*
X015690Y004446D01*
X015733Y004403D01*
X015741Y004397D01*
X015669Y004325D01*
X015622Y004211D01*
X015622Y004089D01*
X015669Y003975D01*
X015744Y003900D01*
X015694Y003850D01*
X015671Y003850D01*
X015538Y003983D01*
X015538Y005317D01*
X015944Y005723D01*
X015999Y005700D01*
X016178Y005700D01*
X016343Y005769D01*
X016470Y005895D01*
X016538Y006060D01*
X017139Y006060D01*
X017138Y006060D02*
X017161Y006006D01*
X016756Y005600D01*
X016638Y005483D01*
X016638Y003817D01*
X016888Y003567D01*
X017006Y003450D01*
X017194Y003450D01*
X017255Y003389D01*
X017369Y003342D01*
X017808Y003342D01*
X017922Y003389D01*
X018008Y003475D01*
X018055Y003589D01*
X018055Y003711D01*
X018008Y003825D01*
X017933Y003900D01*
X018008Y003975D01*
X018055Y004089D01*
X018055Y004211D01*
X018008Y004325D01*
X017936Y004397D01*
X017943Y004403D01*
X017986Y004446D01*
X018020Y004496D01*
X018043Y004552D01*
X018055Y004612D01*
X018055Y004642D01*
X017588Y004642D01*
X017122Y004642D01*
X017122Y004612D01*
X017133Y004552D01*
X017157Y004496D01*
X017190Y004446D01*
X017233Y004403D01*
X017241Y004397D01*
X017169Y004325D01*
X017122Y004211D01*
X017122Y004089D01*
X017169Y003975D01*
X017244Y003900D01*
X017194Y003850D01*
X017171Y003850D01*
X017038Y003983D01*
X017038Y005317D01*
X017444Y005723D01*
X017499Y005700D01*
X017678Y005700D01*
X017843Y005769D01*
X017970Y005895D01*
X018038Y006060D01*
X018181Y006060D01*
X018181Y005962D02*
X017997Y005962D01*
X018038Y006060D02*
X018038Y006240D01*
X017970Y006405D01*
X017843Y006531D01*
X017678Y006600D01*
X017499Y006600D01*
X017444Y006577D01*
X017288Y006733D01*
X017288Y006814D01*
X017334Y006769D01*
X017499Y006700D01*
X017678Y006700D01*
X017843Y006769D01*
X017970Y006895D01*
X018038Y007060D01*
X018038Y007240D01*
X017970Y007405D01*
X017843Y007531D01*
X017678Y007600D01*
X017499Y007600D01*
X017334Y007531D01*
X017288Y007486D01*
X017288Y007814D01*
X017295Y007807D01*
X017353Y007765D01*
X017416Y007733D01*
X017483Y007711D01*
X017538Y007702D01*
X017538Y008100D01*
X017638Y008100D01*
X017638Y007702D01*
X017694Y007711D01*
X017761Y007733D01*
X017824Y007765D01*
X017882Y007807D01*
X017932Y007857D01*
X017973Y007914D01*
X018005Y007977D01*
X018027Y008045D01*
X018036Y008100D01*
X017638Y008100D01*
X017638Y008200D01*
X017538Y008200D01*
X017538Y008598D01*
X017483Y008589D01*
X017416Y008567D01*
X017353Y008535D01*
X017295Y008493D01*
X017288Y008486D01*
X017288Y008567D01*
X018171Y009450D01*
X018181Y009460D01*
X018181Y002335D01*
X017292Y000557D01*
X016973Y000557D01*
X017208Y000793D01*
X017342Y001117D01*
X017342Y001467D01*
X017208Y001790D01*
X016961Y002038D01*
X016637Y002172D01*
X016287Y002172D01*
X015964Y002038D01*
X015716Y001790D01*
X015583Y001467D01*
X015583Y001117D01*
X015716Y000793D01*
X015952Y000557D01*
X003193Y000557D01*
X003429Y000793D01*
X003563Y001117D01*
X003563Y001467D01*
X003429Y001790D01*
X003181Y002038D01*
X002858Y002172D01*
X002508Y002172D01*
X002184Y002038D01*
X001937Y001790D01*
X001803Y001467D01*
X001870Y001628D02*
X001318Y001628D01*
X001269Y001726D02*
X001910Y001726D01*
X001971Y001825D02*
X001220Y001825D01*
X001170Y001923D02*
X002070Y001923D01*
X002168Y002022D02*
X001121Y002022D01*
X001072Y002120D02*
X002383Y002120D01*
X002133Y002709D02*
X001942Y002630D01*
X001735Y002630D01*
X001544Y002709D01*
X001398Y002855D01*
X001318Y003047D01*
X001318Y003253D01*
X001398Y003445D01*
X001544Y003591D01*
X001687Y003650D01*
X001544Y003709D01*
X001398Y003855D01*
X001318Y004047D01*
X001318Y004253D01*
X001398Y004445D01*
X001544Y004591D01*
X001687Y004650D01*
X001544Y004709D01*
X001398Y004855D01*
X001318Y005047D01*
X001318Y005253D01*
X001398Y005445D01*
X001544Y005591D01*
X001687Y005650D01*
X001544Y005709D01*
X001398Y005855D01*
X001318Y006047D01*
X001318Y006253D01*
X001398Y006445D01*
X001544Y006591D01*
X001690Y006651D01*
X001639Y006668D01*
X001566Y006705D01*
X001500Y006753D01*
X001442Y006811D01*
X001394Y006877D01*
X001357Y006950D01*
X001331Y007028D01*
X001320Y007100D01*
X001788Y007100D01*
X001788Y007200D01*
X001320Y007200D01*
X001331Y007272D01*
X001357Y007350D01*
X001394Y007423D01*
X001442Y007489D01*
X001500Y007547D01*
X001566Y007595D01*
X001639Y007632D01*
X001695Y007650D01*
X001639Y007668D01*
X001566Y007705D01*
X001500Y007753D01*
X001442Y007811D01*
X001394Y007877D01*
X001357Y007950D01*
X001331Y008028D01*
X001320Y008100D01*
X001788Y008100D01*
X001788Y008200D01*
X001320Y008200D01*
X001331Y008272D01*
X001357Y008350D01*
X001394Y008423D01*
X001442Y008489D01*
X001500Y008547D01*
X001566Y008595D01*
X001639Y008632D01*
X001717Y008657D01*
X001788Y008669D01*
X001788Y008200D01*
X001888Y008200D01*
X001888Y008669D01*
X001960Y008657D01*
X002038Y008632D01*
X002111Y008595D01*
X002177Y008547D01*
X002235Y008489D01*
X002283Y008423D01*
X002320Y008350D01*
X002346Y008272D01*
X002357Y008200D01*
X001888Y008200D01*
X001888Y008100D01*
X001888Y007631D01*
X001888Y007200D01*
X001788Y007200D01*
X001788Y008100D01*
X001888Y008100D01*
X002357Y008100D01*
X002346Y008028D01*
X002320Y007950D01*
X002283Y007877D01*
X002235Y007811D01*
X002177Y007753D01*
X002111Y007705D01*
X002038Y007668D01*
X001982Y007650D01*
X002038Y007632D01*
X002111Y007595D01*
X002177Y007547D01*
X002235Y007489D01*
X002283Y007423D01*
X002320Y007350D01*
X002346Y007272D01*
X002357Y007200D01*
X001888Y007200D01*
X001888Y007100D01*
X002357Y007100D01*
X002346Y007028D01*
X002320Y006950D01*
X002283Y006877D01*
X002235Y006811D01*
X002177Y006753D01*
X002111Y006705D01*
X002038Y006668D01*
X001987Y006651D01*
X002133Y006591D01*
X002279Y006445D01*
X002358Y006253D01*
X002358Y006047D01*
X002279Y005855D01*
X002133Y005709D01*
X001990Y005650D01*
X002133Y005591D01*
X002279Y005445D01*
X002318Y005350D01*
X003006Y005350D01*
X003388Y005733D01*
X003388Y015233D01*
X003888Y015733D01*
X004006Y015850D01*
X007407Y015850D01*
X007435Y015879D01*
X007535Y015920D01*
X007642Y015920D01*
X007741Y015879D01*
X007817Y015803D01*
X007858Y015704D01*
X007858Y015596D01*
X007817Y015497D01*
X007741Y015421D01*
X007642Y015380D01*
X007535Y015380D01*
X007435Y015421D01*
X007407Y015450D01*
X004171Y015450D01*
X003788Y015067D01*
X003788Y005567D01*
X003671Y005450D01*
X003171Y004950D01*
X002318Y004950D01*
X002279Y004855D01*
X002133Y004709D01*
X001990Y004650D01*
X002133Y004591D01*
X002279Y004445D01*
X002318Y004350D01*
X003506Y004350D01*
X003888Y004733D01*
X003888Y014733D01*
X004318Y015163D01*
X004318Y015204D01*
X004360Y015303D01*
X004435Y015379D01*
X004535Y015420D01*
X004642Y015420D01*
X004741Y015379D01*
X004817Y015303D01*
X004858Y015204D01*
X004858Y015096D01*
X004817Y014997D01*
X004741Y014921D01*
X004642Y014880D01*
X004601Y014880D01*
X004288Y014567D01*
X004288Y004567D01*
X004171Y004450D01*
X003671Y003950D01*
X002318Y003950D01*
X002279Y003855D01*
X002133Y003709D01*
X001990Y003650D01*
X002133Y003591D01*
X002279Y003445D01*
X002358Y003253D01*
X002358Y003047D01*
X002279Y002855D01*
X002133Y002709D01*
X002135Y002711D02*
X018181Y002711D01*
X018181Y002613D02*
X000964Y002613D01*
X000964Y002711D02*
X001542Y002711D01*
X001444Y002810D02*
X000964Y002810D01*
X000964Y002908D02*
X001376Y002908D01*
X001335Y003007D02*
X000964Y003007D01*
X000964Y003105D02*
X001318Y003105D01*
X001318Y003204D02*
X000964Y003204D01*
X000964Y003302D02*
X001339Y003302D01*
X001379Y003401D02*
X000964Y003401D01*
X000964Y003499D02*
X001452Y003499D01*
X001560Y003598D02*
X000964Y003598D01*
X000964Y003696D02*
X001576Y003696D01*
X001459Y003795D02*
X000964Y003795D01*
X000964Y003893D02*
X001382Y003893D01*
X001341Y003992D02*
X000964Y003992D01*
X000964Y004090D02*
X001318Y004090D01*
X001318Y004189D02*
X000964Y004189D01*
X000964Y004287D02*
X001332Y004287D01*
X001373Y004386D02*
X000964Y004386D01*
X000964Y004484D02*
X001437Y004484D01*
X001536Y004583D02*
X000964Y004583D01*
X000964Y004681D02*
X001612Y004681D01*
X001474Y004780D02*
X000964Y004780D01*
X000964Y004878D02*
X001388Y004878D01*
X001347Y004977D02*
X000964Y004977D01*
X000964Y005075D02*
X001318Y005075D01*
X001318Y005174D02*
X000964Y005174D01*
X000964Y005272D02*
X001326Y005272D01*
X001367Y005371D02*
X000964Y005371D01*
X000964Y005469D02*
X001422Y005469D01*
X001521Y005568D02*
X000964Y005568D01*
X000964Y005666D02*
X001648Y005666D01*
X001489Y005765D02*
X000964Y005765D01*
X000964Y005863D02*
X001394Y005863D01*
X001354Y005962D02*
X000964Y005962D01*
X000964Y006060D02*
X001318Y006060D01*
X001318Y006159D02*
X000964Y006159D01*
X000964Y006257D02*
X001320Y006257D01*
X001361Y006356D02*
X000964Y006356D01*
X000964Y006454D02*
X001407Y006454D01*
X001506Y006553D02*
X000964Y006553D01*
X000964Y006651D02*
X001689Y006651D01*
X001505Y006750D02*
X000964Y006750D01*
X000964Y006848D02*
X001415Y006848D01*
X001359Y006947D02*
X000964Y006947D01*
X000964Y007045D02*
X001329Y007045D01*
X001327Y007242D02*
X000964Y007242D01*
X000964Y007144D02*
X001788Y007144D01*
X001788Y007242D02*
X001888Y007242D01*
X001888Y007144D02*
X003388Y007144D01*
X003388Y007242D02*
X002350Y007242D01*
X002323Y007341D02*
X003388Y007341D01*
X003388Y007439D02*
X002271Y007439D01*
X002186Y007538D02*
X003388Y007538D01*
X003388Y007636D02*
X002025Y007636D01*
X001888Y007636D02*
X001788Y007636D01*
X001788Y007538D02*
X001888Y007538D01*
X001888Y007439D02*
X001788Y007439D01*
X001788Y007341D02*
X001888Y007341D01*
X001651Y007636D02*
X000964Y007636D01*
X000964Y007538D02*
X001491Y007538D01*
X001406Y007439D02*
X000964Y007439D01*
X000964Y007341D02*
X001354Y007341D01*
X001526Y007735D02*
X000964Y007735D01*
X000964Y007833D02*
X001426Y007833D01*
X001366Y007932D02*
X000964Y007932D01*
X000964Y008030D02*
X001331Y008030D01*
X001324Y008227D02*
X000964Y008227D01*
X000964Y008129D02*
X001788Y008129D01*
X001788Y008227D02*
X001888Y008227D01*
X001888Y008129D02*
X003388Y008129D01*
X003388Y008227D02*
X002353Y008227D01*
X002328Y008326D02*
X003388Y008326D01*
X003388Y008424D02*
X002282Y008424D01*
X002201Y008523D02*
X003388Y008523D01*
X003388Y008621D02*
X002059Y008621D01*
X001888Y008621D02*
X001788Y008621D01*
X001788Y008523D02*
X001888Y008523D01*
X001888Y008424D02*
X001788Y008424D01*
X001788Y008326D02*
X001888Y008326D01*
X001617Y008621D02*
X000964Y008621D01*
X000964Y008523D02*
X001476Y008523D01*
X001395Y008424D02*
X000964Y008424D01*
X000964Y008326D02*
X001349Y008326D01*
X001788Y008030D02*
X001888Y008030D01*
X001888Y007932D02*
X001788Y007932D01*
X001788Y007833D02*
X001888Y007833D01*
X001888Y007735D02*
X001788Y007735D01*
X002151Y007735D02*
X003388Y007735D01*
X003388Y007833D02*
X002251Y007833D01*
X002311Y007932D02*
X003388Y007932D01*
X003388Y008030D02*
X002346Y008030D01*
X002348Y007045D02*
X003388Y007045D01*
X003388Y006947D02*
X002318Y006947D01*
X002262Y006848D02*
X003388Y006848D01*
X003388Y006750D02*
X002172Y006750D01*
X002171Y006553D02*
X003388Y006553D01*
X003388Y006651D02*
X001988Y006651D01*
X002270Y006454D02*
X003388Y006454D01*
X003388Y006356D02*
X002316Y006356D01*
X002357Y006257D02*
X003388Y006257D01*
X003388Y006159D02*
X002358Y006159D01*
X002358Y006060D02*
X003388Y006060D01*
X003388Y005962D02*
X002323Y005962D01*
X002282Y005863D02*
X003388Y005863D01*
X003388Y005765D02*
X002188Y005765D01*
X002029Y005666D02*
X003322Y005666D01*
X003223Y005568D02*
X002156Y005568D01*
X002255Y005469D02*
X003125Y005469D01*
X003026Y005371D02*
X002310Y005371D01*
X002289Y004878D02*
X003888Y004878D01*
X003888Y004780D02*
X002203Y004780D01*
X002065Y004681D02*
X003837Y004681D01*
X003738Y004583D02*
X002141Y004583D01*
X002240Y004484D02*
X003640Y004484D01*
X003541Y004386D02*
X002304Y004386D01*
X002295Y003893D02*
X005295Y003893D01*
X005280Y003930D02*
X005327Y003817D01*
X005414Y003730D01*
X005527Y003683D01*
X005650Y003683D01*
X005763Y003730D01*
X005838Y003805D01*
X005914Y003730D01*
X006027Y003683D01*
X006150Y003683D01*
X006263Y003730D01*
X006336Y003803D01*
X006341Y003795D01*
X006384Y003752D01*
X006434Y003718D01*
X006491Y003695D01*
X006550Y003683D01*
X006581Y003683D01*
X006611Y003683D01*
X006671Y003695D01*
X006727Y003718D01*
X006777Y003752D01*
X006820Y003795D01*
X006854Y003845D01*
X006877Y003902D01*
X006889Y003961D01*
X006889Y004150D01*
X006889Y004339D01*
X006877Y004398D01*
X006854Y004455D01*
X006820Y004505D01*
X006777Y004548D01*
X006727Y004582D01*
X006671Y004605D01*
X006611Y004617D01*
X006581Y004617D01*
X006581Y004150D01*
X006889Y004150D01*
X006581Y004150D01*
X006581Y004150D01*
X006581Y004150D01*
X006581Y003683D01*
X006581Y004150D01*
X006581Y004150D01*
X006581Y004617D01*
X006550Y004617D01*
X006491Y004605D01*
X006434Y004582D01*
X006384Y004548D01*
X006341Y004505D01*
X006336Y004497D01*
X006263Y004570D01*
X006150Y004617D01*
X006027Y004617D01*
X005914Y004570D01*
X005838Y004495D01*
X005763Y004570D01*
X005650Y004617D01*
X005527Y004617D01*
X005414Y004570D01*
X005327Y004483D01*
X005280Y004370D01*
X005280Y003930D01*
X005280Y003992D02*
X003713Y003992D01*
X003811Y004090D02*
X005280Y004090D01*
X005280Y004189D02*
X003910Y004189D01*
X004008Y004287D02*
X005280Y004287D01*
X005287Y004386D02*
X004107Y004386D01*
X004205Y004484D02*
X005328Y004484D01*
X005444Y004583D02*
X004288Y004583D01*
X004288Y004681D02*
X015138Y004681D01*
X015138Y004583D02*
X006725Y004583D01*
X006581Y004583D02*
X006581Y004583D01*
X006581Y004484D02*
X006581Y004484D01*
X006581Y004386D02*
X006581Y004386D01*
X006581Y004287D02*
X006581Y004287D01*
X006581Y004189D02*
X006581Y004189D01*
X006581Y004090D02*
X006581Y004090D01*
X006581Y003992D02*
X006581Y003992D01*
X006581Y003893D02*
X006581Y003893D01*
X006581Y003795D02*
X006581Y003795D01*
X006581Y003696D02*
X006581Y003696D01*
X006673Y003696D02*
X015260Y003696D01*
X015358Y003598D02*
X002117Y003598D01*
X002101Y003696D02*
X005496Y003696D01*
X005349Y003795D02*
X002218Y003795D01*
X002225Y003499D02*
X015457Y003499D01*
X015588Y003650D02*
X016088Y003650D01*
X015743Y003401D02*
X002298Y003401D01*
X002338Y003302D02*
X018181Y003302D01*
X018181Y003204D02*
X002358Y003204D01*
X002358Y003105D02*
X018181Y003105D01*
X018181Y003007D02*
X002342Y003007D01*
X002301Y002908D02*
X018181Y002908D01*
X018181Y002810D02*
X002233Y002810D01*
X002983Y002120D02*
X016163Y002120D01*
X015948Y002022D02*
X003198Y002022D01*
X003296Y001923D02*
X015849Y001923D01*
X015751Y001825D02*
X003395Y001825D01*
X003455Y001726D02*
X015690Y001726D01*
X015649Y001628D02*
X003496Y001628D01*
X003537Y001529D02*
X015608Y001529D01*
X015583Y001431D02*
X003563Y001431D01*
X003563Y001332D02*
X015583Y001332D01*
X015583Y001234D02*
X003563Y001234D01*
X003563Y001135D02*
X015583Y001135D01*
X015616Y001037D02*
X003530Y001037D01*
X003489Y000938D02*
X015657Y000938D01*
X015697Y000840D02*
X003448Y000840D01*
X003377Y000741D02*
X015769Y000741D01*
X015867Y000643D02*
X003278Y000643D01*
X002088Y000643D02*
X001811Y000643D01*
X001761Y000741D02*
X001989Y000741D01*
X001918Y000840D02*
X001712Y000840D01*
X001663Y000938D02*
X001877Y000938D01*
X001836Y001037D02*
X001614Y001037D01*
X001564Y001135D02*
X001803Y001135D01*
X001023Y002219D02*
X018123Y002219D01*
X018172Y002317D02*
X000973Y002317D01*
X000964Y002416D02*
X018181Y002416D01*
X018181Y002514D02*
X000964Y002514D01*
X001838Y004150D02*
X003588Y004150D01*
X004088Y004650D01*
X004088Y014650D01*
X004588Y015150D01*
X004376Y015319D02*
X004040Y015319D01*
X003942Y015221D02*
X004325Y015221D01*
X004278Y015122D02*
X003843Y015122D01*
X003788Y015024D02*
X004179Y015024D01*
X004081Y014925D02*
X003788Y014925D01*
X003788Y014827D02*
X003982Y014827D01*
X003888Y014728D02*
X003788Y014728D01*
X003788Y014630D02*
X003888Y014630D01*
X003888Y014531D02*
X003788Y014531D01*
X003788Y014433D02*
X003888Y014433D01*
X003888Y014334D02*
X003788Y014334D01*
X003788Y014236D02*
X003888Y014236D01*
X003888Y014137D02*
X003788Y014137D01*
X003788Y014039D02*
X003888Y014039D01*
X003888Y013940D02*
X003788Y013940D01*
X003788Y013842D02*
X003888Y013842D01*
X003888Y013743D02*
X003788Y013743D01*
X003788Y013645D02*
X003888Y013645D01*
X003888Y013546D02*
X003788Y013546D01*
X003788Y013448D02*
X003888Y013448D01*
X003888Y013349D02*
X003788Y013349D01*
X003788Y013251D02*
X003888Y013251D01*
X003888Y013152D02*
X003788Y013152D01*
X003788Y013054D02*
X003888Y013054D01*
X003888Y012955D02*
X003788Y012955D01*
X003788Y012857D02*
X003888Y012857D01*
X003888Y012758D02*
X003788Y012758D01*
X003788Y012660D02*
X003888Y012660D01*
X003888Y012561D02*
X003788Y012561D01*
X003788Y012463D02*
X003888Y012463D01*
X003888Y012364D02*
X003788Y012364D01*
X003788Y012266D02*
X003888Y012266D01*
X003888Y012167D02*
X003788Y012167D01*
X003788Y012069D02*
X003888Y012069D01*
X003888Y011970D02*
X003788Y011970D01*
X003788Y011872D02*
X003888Y011872D01*
X003888Y011773D02*
X003788Y011773D01*
X003788Y011675D02*
X003888Y011675D01*
X003888Y011576D02*
X003788Y011576D01*
X003788Y011478D02*
X003888Y011478D01*
X003888Y011379D02*
X003788Y011379D01*
X003788Y011281D02*
X003888Y011281D01*
X003888Y011182D02*
X003788Y011182D01*
X003788Y011084D02*
X003888Y011084D01*
X003888Y010985D02*
X003788Y010985D01*
X003788Y010887D02*
X003888Y010887D01*
X003888Y010788D02*
X003788Y010788D01*
X003788Y010690D02*
X003888Y010690D01*
X003888Y010591D02*
X003788Y010591D01*
X003788Y010493D02*
X003888Y010493D01*
X003888Y010394D02*
X003788Y010394D01*
X003788Y010296D02*
X003888Y010296D01*
X003888Y010197D02*
X003788Y010197D01*
X003788Y010099D02*
X003888Y010099D01*
X003888Y010000D02*
X003788Y010000D01*
X003788Y009902D02*
X003888Y009902D01*
X003888Y009803D02*
X003788Y009803D01*
X003788Y009705D02*
X003888Y009705D01*
X003888Y009606D02*
X003788Y009606D01*
X003788Y009508D02*
X003888Y009508D01*
X003888Y009409D02*
X003788Y009409D01*
X003788Y009311D02*
X003888Y009311D01*
X003888Y009212D02*
X003788Y009212D01*
X003788Y009114D02*
X003888Y009114D01*
X003888Y009015D02*
X003788Y009015D01*
X003788Y008917D02*
X003888Y008917D01*
X003888Y008818D02*
X003788Y008818D01*
X003788Y008720D02*
X003888Y008720D01*
X003888Y008621D02*
X003788Y008621D01*
X003788Y008523D02*
X003888Y008523D01*
X003888Y008424D02*
X003788Y008424D01*
X003788Y008326D02*
X003888Y008326D01*
X003888Y008227D02*
X003788Y008227D01*
X003788Y008129D02*
X003888Y008129D01*
X003888Y008030D02*
X003788Y008030D01*
X003788Y007932D02*
X003888Y007932D01*
X003888Y007833D02*
X003788Y007833D01*
X003788Y007735D02*
X003888Y007735D01*
X003888Y007636D02*
X003788Y007636D01*
X003788Y007538D02*
X003888Y007538D01*
X003888Y007439D02*
X003788Y007439D01*
X003788Y007341D02*
X003888Y007341D01*
X003888Y007242D02*
X003788Y007242D01*
X003788Y007144D02*
X003888Y007144D01*
X003888Y007045D02*
X003788Y007045D01*
X003788Y006947D02*
X003888Y006947D01*
X003888Y006848D02*
X003788Y006848D01*
X003788Y006750D02*
X003888Y006750D01*
X003888Y006651D02*
X003788Y006651D01*
X003788Y006553D02*
X003888Y006553D01*
X003888Y006454D02*
X003788Y006454D01*
X003788Y006356D02*
X003888Y006356D01*
X003888Y006257D02*
X003788Y006257D01*
X003788Y006159D02*
X003888Y006159D01*
X003888Y006060D02*
X003788Y006060D01*
X003788Y005962D02*
X003888Y005962D01*
X003888Y005863D02*
X003788Y005863D01*
X003788Y005765D02*
X003888Y005765D01*
X003888Y005666D02*
X003788Y005666D01*
X003788Y005568D02*
X003888Y005568D01*
X003888Y005469D02*
X003690Y005469D01*
X003592Y005371D02*
X003888Y005371D01*
X003888Y005272D02*
X003493Y005272D01*
X003395Y005174D02*
X003888Y005174D01*
X003888Y005075D02*
X003296Y005075D01*
X003198Y004977D02*
X003888Y004977D01*
X004288Y004977D02*
X015138Y004977D01*
X015138Y005075D02*
X004288Y005075D01*
X004288Y005174D02*
X015138Y005174D01*
X015138Y005272D02*
X004288Y005272D01*
X004288Y005371D02*
X015138Y005371D01*
X015138Y005469D02*
X004288Y005469D01*
X004288Y005568D02*
X015223Y005568D01*
X015322Y005666D02*
X004288Y005666D01*
X004288Y005765D02*
X015420Y005765D01*
X015519Y005863D02*
X004288Y005863D01*
X004288Y006159D02*
X015638Y006159D01*
X015646Y006257D02*
X004288Y006257D01*
X004288Y006356D02*
X015686Y006356D01*
X015756Y006454D02*
X004288Y006454D01*
X004288Y006553D02*
X015884Y006553D01*
X015879Y006750D02*
X007294Y006750D01*
X007324Y006765D02*
X007382Y006807D01*
X007432Y006857D01*
X007473Y006914D01*
X007505Y006977D01*
X007527Y007045D01*
X015645Y007045D01*
X015638Y007144D02*
X007138Y007144D01*
X007138Y007100D02*
X007138Y007200D01*
X007038Y007200D01*
X007038Y007100D01*
X006641Y007100D01*
X006650Y007045D01*
X006649Y007045D02*
X006532Y007045D01*
X006538Y007060D02*
X006470Y006895D01*
X006343Y006769D01*
X006178Y006700D01*
X005999Y006700D01*
X005834Y006769D01*
X005707Y006895D01*
X005638Y007060D01*
X005638Y007240D01*
X005707Y007405D01*
X005834Y007531D01*
X005999Y007600D01*
X006178Y007600D01*
X006343Y007531D01*
X006470Y007405D01*
X006538Y007240D01*
X006538Y007060D01*
X006538Y007144D02*
X007038Y007144D01*
X007038Y007100D02*
X007138Y007100D01*
X007138Y006702D01*
X007194Y006711D01*
X007261Y006733D01*
X007324Y006765D01*
X007423Y006848D02*
X015754Y006848D01*
X015686Y006947D02*
X007490Y006947D01*
X007527Y007045D02*
X007536Y007100D01*
X007138Y007100D01*
X007138Y007045D02*
X007038Y007045D01*
X007038Y007100D02*
X007038Y006702D01*
X006983Y006711D01*
X006916Y006733D01*
X006853Y006765D01*
X006795Y006807D01*
X006745Y006857D01*
X006704Y006914D01*
X006671Y006977D01*
X006650Y007045D01*
X006687Y006947D02*
X006491Y006947D01*
X006423Y006848D02*
X006754Y006848D01*
X006883Y006750D02*
X006297Y006750D01*
X006641Y007200D02*
X007038Y007200D01*
X007038Y007598D01*
X006983Y007589D01*
X006916Y007567D01*
X006853Y007535D01*
X006795Y007493D01*
X006745Y007443D01*
X006704Y007386D01*
X006671Y007323D01*
X006650Y007255D01*
X006641Y007200D01*
X006647Y007242D02*
X006537Y007242D01*
X006497Y007341D02*
X006680Y007341D01*
X006742Y007439D02*
X006436Y007439D01*
X006329Y007538D02*
X006858Y007538D01*
X007038Y007538D02*
X007138Y007538D01*
X007138Y007598D02*
X007138Y007200D01*
X007536Y007200D01*
X007527Y007255D01*
X007505Y007323D01*
X007473Y007386D01*
X007432Y007443D01*
X007382Y007493D01*
X007324Y007535D01*
X007261Y007567D01*
X007194Y007589D01*
X007138Y007598D01*
X007138Y007439D02*
X007038Y007439D01*
X007038Y007341D02*
X007138Y007341D01*
X007138Y007242D02*
X007038Y007242D01*
X007319Y007538D02*
X015848Y007538D01*
X015741Y007439D02*
X007435Y007439D01*
X007496Y007341D02*
X015680Y007341D01*
X015639Y007242D02*
X007529Y007242D01*
X007138Y006947D02*
X007038Y006947D01*
X007038Y006848D02*
X007138Y006848D01*
X007138Y006750D02*
X007038Y006750D01*
X006421Y007950D02*
X007671Y009200D01*
X007788Y009317D01*
X007788Y010889D01*
X007866Y010921D01*
X007942Y010997D01*
X007983Y011096D01*
X007983Y011204D01*
X007942Y011303D01*
X007913Y011332D01*
X007913Y012554D01*
X008321Y012880D01*
X008392Y012880D01*
X008491Y012921D01*
X008567Y012997D01*
X008608Y013096D01*
X008608Y013204D01*
X008567Y013303D01*
X008491Y013379D01*
X008392Y013420D01*
X008285Y013420D01*
X008185Y013379D01*
X008110Y013303D01*
X008068Y013204D01*
X008068Y013190D01*
X007643Y012850D01*
X007631Y012850D01*
X007580Y012799D01*
X007524Y012754D01*
X007522Y012742D01*
X007513Y012733D01*
X007513Y012661D01*
X007506Y012590D01*
X007513Y012580D01*
X007513Y011332D01*
X007485Y011303D01*
X007443Y011204D01*
X007443Y011163D01*
X007388Y011108D01*
X007388Y009483D01*
X006256Y008350D01*
X005770Y008350D01*
X005741Y008379D01*
X005690Y008400D01*
X005741Y008421D01*
X005770Y008450D01*
X006171Y008450D01*
X007101Y009380D01*
X007142Y009380D01*
X007241Y009421D01*
X007317Y009497D01*
X007358Y009596D01*
X007358Y009704D01*
X007317Y009803D01*
X007388Y009803D01*
X007317Y009803D02*
X007241Y009879D01*
X007142Y009920D01*
X007035Y009920D01*
X006935Y009879D01*
X006860Y009803D01*
X005288Y009803D01*
X005288Y009705D02*
X006819Y009705D01*
X006818Y009704D02*
X006818Y009663D01*
X006006Y008850D01*
X005770Y008850D01*
X005741Y008879D01*
X005642Y008920D01*
X005535Y008920D01*
X005435Y008879D01*
X005360Y008803D01*
X005318Y008704D01*
X005318Y008596D01*
X005360Y008497D01*
X005435Y008421D01*
X005486Y008400D01*
X005435Y008379D01*
X005360Y008303D01*
X005318Y008204D01*
X005318Y008096D01*
X005360Y007997D01*
X005435Y007921D01*
X005535Y007880D01*
X005642Y007880D01*
X005741Y007921D01*
X005770Y007950D01*
X006421Y007950D01*
X006501Y008030D02*
X015654Y008030D01*
X015695Y007932D02*
X005752Y007932D01*
X005588Y008150D02*
X006338Y008150D01*
X007588Y009400D01*
X007588Y011025D01*
X007713Y011150D01*
X007713Y012650D01*
X008338Y013150D01*
X008088Y013251D02*
X005288Y013251D01*
X005288Y013349D02*
X008156Y013349D01*
X008021Y013152D02*
X005288Y013152D01*
X005288Y013054D02*
X007898Y013054D01*
X007775Y012955D02*
X005288Y012955D01*
X005288Y012857D02*
X007651Y012857D01*
X007528Y012758D02*
X005288Y012758D01*
X005288Y012660D02*
X007513Y012660D01*
X007513Y012561D02*
X005288Y012561D01*
X005288Y012463D02*
X007513Y012463D01*
X007513Y012364D02*
X005288Y012364D01*
X005288Y012266D02*
X007513Y012266D01*
X007513Y012167D02*
X005288Y012167D01*
X005288Y012069D02*
X007513Y012069D01*
X007513Y011970D02*
X005288Y011970D01*
X005288Y011872D02*
X007513Y011872D01*
X007513Y011773D02*
X005288Y011773D01*
X005288Y011675D02*
X007513Y011675D01*
X007513Y011576D02*
X005288Y011576D01*
X005288Y011478D02*
X007513Y011478D01*
X007513Y011379D02*
X005288Y011379D01*
X005288Y011281D02*
X007475Y011281D01*
X007443Y011182D02*
X005288Y011182D01*
X005288Y011084D02*
X007388Y011084D01*
X007388Y010985D02*
X005288Y010985D01*
X005288Y010887D02*
X007388Y010887D01*
X007388Y010788D02*
X005288Y010788D01*
X005288Y010690D02*
X007388Y010690D01*
X007388Y010591D02*
X005288Y010591D01*
X005288Y010493D02*
X007388Y010493D01*
X007388Y010394D02*
X005288Y010394D01*
X005288Y010296D02*
X007388Y010296D01*
X007388Y010197D02*
X005288Y010197D01*
X005288Y010099D02*
X007388Y010099D01*
X007388Y010000D02*
X005288Y010000D01*
X005288Y009902D02*
X006990Y009902D01*
X006860Y009803D02*
X006818Y009704D01*
X006762Y009606D02*
X005288Y009606D01*
X005288Y009508D02*
X006663Y009508D01*
X006565Y009409D02*
X005288Y009409D01*
X005288Y009311D02*
X006466Y009311D01*
X006368Y009212D02*
X005288Y009212D01*
X005288Y009114D02*
X006269Y009114D01*
X006171Y009015D02*
X005288Y009015D01*
X005288Y008917D02*
X005526Y008917D01*
X005651Y008917D02*
X006072Y008917D01*
X006088Y008650D02*
X005588Y008650D01*
X005349Y008523D02*
X005288Y008523D01*
X005288Y008621D02*
X005318Y008621D01*
X005325Y008720D02*
X005288Y008720D01*
X005288Y008818D02*
X005375Y008818D01*
X005433Y008424D02*
X005288Y008424D01*
X005288Y008326D02*
X005382Y008326D01*
X005328Y008227D02*
X005288Y008227D01*
X005288Y008129D02*
X005318Y008129D01*
X005346Y008030D02*
X005288Y008030D01*
X005288Y007932D02*
X005425Y007932D01*
X005288Y007833D02*
X015769Y007833D01*
X015913Y007735D02*
X005288Y007735D01*
X005288Y007636D02*
X016388Y007636D01*
X016388Y007538D02*
X016329Y007538D01*
X016388Y007735D02*
X016264Y007735D01*
X016138Y007735D02*
X016038Y007735D01*
X016038Y007833D02*
X016138Y007833D01*
X016138Y007932D02*
X016038Y007932D01*
X016038Y008030D02*
X016138Y008030D01*
X016038Y008129D02*
X006600Y008129D01*
X006698Y008227D02*
X015645Y008227D01*
X015641Y008200D02*
X016038Y008200D01*
X016038Y008598D01*
X015983Y008589D01*
X015916Y008567D01*
X015853Y008535D01*
X015795Y008493D01*
X015745Y008443D01*
X015704Y008386D01*
X015671Y008323D01*
X015650Y008255D01*
X015641Y008200D01*
X015673Y008326D02*
X006797Y008326D01*
X006895Y008424D02*
X015731Y008424D01*
X015836Y008523D02*
X006994Y008523D01*
X007092Y008621D02*
X016388Y008621D01*
X016388Y008523D02*
X016341Y008523D01*
X016388Y008720D02*
X007191Y008720D01*
X007289Y008818D02*
X016388Y008818D01*
X016388Y008917D02*
X007388Y008917D01*
X007486Y009015D02*
X016388Y009015D01*
X016388Y009114D02*
X010504Y009114D01*
X010614Y009212D02*
X016388Y009212D01*
X016466Y009311D02*
X010687Y009311D01*
X010303Y009803D02*
X007788Y009803D01*
X007788Y009705D02*
X010205Y009705D01*
X010080Y009606D02*
X007788Y009606D01*
X007788Y009508D02*
X010028Y009508D01*
X010010Y009409D02*
X007788Y009409D01*
X007782Y009311D02*
X010020Y009311D01*
X010062Y009212D02*
X007683Y009212D01*
X007585Y009114D02*
X010173Y009114D01*
X010402Y009902D02*
X007788Y009902D01*
X007788Y010000D02*
X012000Y010000D01*
X012099Y010099D02*
X007788Y010099D01*
X007788Y010197D02*
X012197Y010197D01*
X012296Y010296D02*
X007788Y010296D01*
X007788Y010394D02*
X012394Y010394D01*
X012493Y010493D02*
X007788Y010493D01*
X007788Y010591D02*
X012591Y010591D01*
X012690Y010690D02*
X007788Y010690D01*
X007788Y010788D02*
X012728Y010788D01*
X012779Y010887D02*
X007788Y010887D01*
X007930Y010985D02*
X012888Y010985D01*
X013289Y010985D02*
X016836Y010985D01*
X016894Y011281D02*
X007952Y011281D01*
X007983Y011182D02*
X017274Y011182D01*
X017372Y011084D02*
X007978Y011084D01*
X007913Y011379D02*
X016771Y011379D01*
X016588Y011650D02*
X015588Y012650D01*
X015588Y016650D01*
X015088Y017150D01*
X008338Y017150D01*
X007838Y016650D01*
X006338Y016650D01*
X006230Y016403D02*
X005869Y016403D01*
X005921Y016350D02*
X005608Y016663D01*
X005608Y016704D01*
X005567Y016803D01*
X005491Y016879D01*
X005392Y016920D01*
X005285Y016920D01*
X005185Y016879D01*
X005110Y016803D01*
X005068Y016704D01*
X005068Y016596D01*
X005110Y016497D01*
X005185Y016421D01*
X005285Y016380D01*
X005326Y016380D01*
X005638Y016067D01*
X005756Y015950D01*
X007756Y015950D01*
X008138Y015567D01*
X008138Y013817D01*
X008888Y013067D01*
X009006Y012950D01*
X009657Y012950D01*
X009685Y012921D01*
X009785Y012880D01*
X009892Y012880D01*
X009991Y012921D01*
X010067Y012997D01*
X010108Y013096D01*
X010108Y013204D01*
X010067Y013303D01*
X009991Y013379D01*
X009892Y013420D01*
X009785Y013420D01*
X009685Y013379D01*
X009657Y013350D01*
X009171Y013350D01*
X008538Y013983D01*
X008538Y015733D01*
X008421Y015850D01*
X007921Y016350D01*
X005921Y016350D01*
X005770Y016501D02*
X006108Y016501D01*
X006068Y016600D02*
X005672Y016600D01*
X005608Y016698D02*
X006068Y016698D01*
X006107Y016797D02*
X005570Y016797D01*
X005452Y016895D02*
X006224Y016895D01*
X006452Y016895D02*
X007801Y016895D01*
X007899Y016994D02*
X003338Y016994D01*
X003338Y017092D02*
X007998Y017092D01*
X008096Y017191D02*
X003338Y017191D01*
X003338Y017289D02*
X008195Y017289D01*
X008366Y016895D02*
X015061Y016895D01*
X015159Y016797D02*
X008268Y016797D01*
X008169Y016698D02*
X015258Y016698D01*
X015356Y016600D02*
X008071Y016600D01*
X007972Y016501D02*
X009506Y016501D01*
X009535Y016507D02*
X009466Y016493D01*
X009401Y016466D01*
X009342Y016427D01*
X009293Y016377D01*
X009254Y016319D01*
X009227Y016254D01*
X009213Y016185D01*
X009213Y016169D01*
X009551Y016169D01*
X009551Y016507D01*
X009535Y016507D01*
X009551Y016501D02*
X009589Y016501D01*
X009589Y016507D02*
X009605Y016507D01*
X009674Y016493D01*
X009739Y016466D01*
X009797Y016427D01*
X009847Y016377D01*
X009886Y016319D01*
X009913Y016254D01*
X009926Y016185D01*
X009926Y016169D01*
X009589Y016169D01*
X009589Y016131D01*
X009926Y016131D01*
X009926Y016115D01*
X009913Y016046D01*
X009886Y015981D01*
X009847Y015923D01*
X009797Y015873D01*
X009739Y015834D01*
X009674Y015807D01*
X009605Y015793D01*
X009589Y015793D01*
X009589Y016131D01*
X009551Y016131D01*
X009551Y015793D01*
X009535Y015793D01*
X009466Y015807D01*
X009401Y015834D01*
X009342Y015873D01*
X009293Y015923D01*
X009254Y015981D01*
X009227Y016046D01*
X009213Y016115D01*
X009213Y016131D01*
X009551Y016131D01*
X009551Y016169D01*
X009589Y016169D01*
X009589Y016507D01*
X009633Y016501D02*
X010273Y016501D01*
X010286Y016507D02*
X010155Y016452D01*
X010055Y016352D01*
X010000Y016221D01*
X010000Y016079D01*
X010055Y015948D01*
X010155Y015848D01*
X010286Y015793D01*
X010428Y015793D01*
X010559Y015848D01*
X010660Y015948D01*
X010714Y016079D01*
X010714Y016221D01*
X010660Y016352D01*
X010559Y016452D01*
X010428Y016507D01*
X010286Y016507D01*
X010442Y016501D02*
X015388Y016501D01*
X015388Y016403D02*
X010609Y016403D01*
X010679Y016304D02*
X015388Y016304D01*
X015388Y016206D02*
X010714Y016206D01*
X010714Y016107D02*
X015388Y016107D01*
X015388Y016009D02*
X010685Y016009D01*
X010622Y015910D02*
X015388Y015910D01*
X015388Y015812D02*
X010472Y015812D01*
X010242Y015812D02*
X009685Y015812D01*
X009589Y015812D02*
X009551Y015812D01*
X009455Y015812D02*
X008460Y015812D01*
X008538Y015713D02*
X015388Y015713D01*
X015388Y015615D02*
X008538Y015615D01*
X008538Y015516D02*
X015388Y015516D01*
X015388Y015418D02*
X008538Y015418D01*
X008538Y015319D02*
X015388Y015319D01*
X015388Y015221D02*
X008538Y015221D01*
X008538Y015122D02*
X015388Y015122D01*
X015388Y015024D02*
X008538Y015024D01*
X008538Y014925D02*
X015388Y014925D01*
X015388Y014827D02*
X008538Y014827D01*
X008538Y014728D02*
X015388Y014728D01*
X015388Y014630D02*
X008538Y014630D01*
X008538Y014531D02*
X015388Y014531D01*
X015388Y014433D02*
X008538Y014433D01*
X008538Y014334D02*
X015388Y014334D01*
X015388Y014236D02*
X008538Y014236D01*
X008538Y014137D02*
X015388Y014137D01*
X015388Y014039D02*
X008538Y014039D01*
X008581Y013940D02*
X015388Y013940D01*
X015388Y013842D02*
X008680Y013842D01*
X008778Y013743D02*
X015388Y013743D01*
X015388Y013645D02*
X008877Y013645D01*
X008975Y013546D02*
X015388Y013546D01*
X015388Y013448D02*
X009074Y013448D01*
X009088Y013150D02*
X009838Y013150D01*
X010025Y012955D02*
X015388Y012955D01*
X015388Y012857D02*
X008292Y012857D01*
X008169Y012758D02*
X015388Y012758D01*
X015388Y012660D02*
X008046Y012660D01*
X007922Y012561D02*
X015395Y012561D01*
X015493Y012463D02*
X007913Y012463D01*
X007913Y012364D02*
X015592Y012364D01*
X015690Y012266D02*
X007913Y012266D01*
X007913Y012167D02*
X015789Y012167D01*
X015887Y012069D02*
X007913Y012069D01*
X007913Y011970D02*
X015986Y011970D01*
X016084Y011872D02*
X007913Y011872D01*
X007913Y011773D02*
X016183Y011773D01*
X016281Y011675D02*
X007913Y011675D01*
X007913Y011576D02*
X016380Y011576D01*
X016478Y011478D02*
X007913Y011478D01*
X008525Y012955D02*
X009001Y012955D01*
X008902Y013054D02*
X008591Y013054D01*
X008608Y013152D02*
X008804Y013152D01*
X008705Y013251D02*
X008589Y013251D01*
X008607Y013349D02*
X008521Y013349D01*
X008508Y013448D02*
X005288Y013448D01*
X005288Y013546D02*
X008410Y013546D01*
X008311Y013645D02*
X005288Y013645D01*
X005288Y013733D02*
X005171Y013850D01*
X004858Y014163D01*
X004858Y014204D01*
X004817Y014303D01*
X004741Y014379D01*
X004642Y014420D01*
X004535Y014420D01*
X004435Y014379D01*
X004360Y014303D01*
X004318Y014204D01*
X004318Y014096D01*
X004360Y013997D01*
X004435Y013921D01*
X004535Y013880D01*
X004576Y013880D01*
X004888Y013567D01*
X004888Y007554D01*
X004834Y007531D01*
X004707Y007405D01*
X004638Y007240D01*
X004638Y007060D01*
X004707Y006895D01*
X004834Y006769D01*
X004999Y006700D01*
X005178Y006700D01*
X005343Y006769D01*
X005470Y006895D01*
X005538Y007060D01*
X005538Y007240D01*
X005470Y007405D01*
X005343Y007531D01*
X005288Y007554D01*
X005288Y013733D01*
X005278Y013743D02*
X008213Y013743D01*
X008138Y013842D02*
X005180Y013842D01*
X005081Y013940D02*
X008138Y013940D01*
X008138Y014039D02*
X004983Y014039D01*
X004884Y014137D02*
X008138Y014137D01*
X008138Y014236D02*
X004845Y014236D01*
X004786Y014334D02*
X008138Y014334D01*
X008138Y014433D02*
X004288Y014433D01*
X004288Y014531D02*
X008138Y014531D01*
X008138Y014630D02*
X004351Y014630D01*
X004449Y014728D02*
X008138Y014728D01*
X008138Y014827D02*
X004548Y014827D01*
X004745Y014925D02*
X008138Y014925D01*
X008138Y015024D02*
X004828Y015024D01*
X004858Y015122D02*
X008138Y015122D01*
X008138Y015221D02*
X004851Y015221D01*
X004801Y015319D02*
X008138Y015319D01*
X008138Y015418D02*
X007733Y015418D01*
X007825Y015516D02*
X008138Y015516D01*
X008091Y015615D02*
X007858Y015615D01*
X007855Y015713D02*
X007993Y015713D01*
X007894Y015812D02*
X007809Y015812D01*
X007796Y015910D02*
X007666Y015910D01*
X007511Y015910D02*
X003338Y015910D01*
X003338Y015812D02*
X003967Y015812D01*
X003869Y015713D02*
X003338Y015713D01*
X003338Y015615D02*
X003770Y015615D01*
X003672Y015516D02*
X003338Y015516D01*
X003338Y015418D02*
X003573Y015418D01*
X003475Y015319D02*
X003338Y015319D01*
X003338Y015221D02*
X003388Y015221D01*
X003388Y015122D02*
X003338Y015122D01*
X003338Y015024D02*
X003388Y015024D01*
X003388Y014925D02*
X003338Y014925D01*
X003338Y014827D02*
X003388Y014827D01*
X003388Y014728D02*
X003338Y014728D01*
X003338Y014630D02*
X003388Y014630D01*
X003388Y014531D02*
X003338Y014531D01*
X003338Y014433D02*
X003388Y014433D01*
X003388Y014334D02*
X003338Y014334D01*
X003338Y014236D02*
X003388Y014236D01*
X003388Y014137D02*
X003338Y014137D01*
X003338Y014039D02*
X003388Y014039D01*
X003388Y013940D02*
X003338Y013940D01*
X003338Y013842D02*
X003388Y013842D01*
X003388Y013743D02*
X003338Y013743D01*
X003338Y013645D02*
X003388Y013645D01*
X003388Y013546D02*
X003338Y013546D01*
X003338Y013448D02*
X003388Y013448D01*
X003388Y013349D02*
X003338Y013349D01*
X003338Y013251D02*
X003388Y013251D01*
X003388Y013152D02*
X003338Y013152D01*
X003338Y013054D02*
X003388Y013054D01*
X003388Y012955D02*
X003338Y012955D01*
X003338Y012857D02*
X003388Y012857D01*
X003388Y012758D02*
X003338Y012758D01*
X003338Y012660D02*
X003388Y012660D01*
X003388Y012561D02*
X003338Y012561D01*
X003338Y012463D02*
X003388Y012463D01*
X003388Y012364D02*
X003338Y012364D01*
X003338Y012266D02*
X003388Y012266D01*
X003388Y012167D02*
X003338Y012167D01*
X003338Y012069D02*
X003388Y012069D01*
X003388Y011970D02*
X003338Y011970D01*
X003338Y011872D02*
X003388Y011872D01*
X003388Y011773D02*
X003338Y011773D01*
X003338Y011675D02*
X003388Y011675D01*
X003388Y011576D02*
X003338Y011576D01*
X003338Y011478D02*
X003388Y011478D01*
X003388Y011379D02*
X003338Y011379D01*
X003338Y011281D02*
X003388Y011281D01*
X003388Y011182D02*
X003338Y011182D01*
X003338Y011084D02*
X003388Y011084D01*
X003388Y010985D02*
X003338Y010985D01*
X003338Y010887D02*
X003388Y010887D01*
X003388Y010788D02*
X003338Y010788D01*
X003338Y010690D02*
X003388Y010690D01*
X003388Y010591D02*
X003338Y010591D01*
X003338Y010493D02*
X003388Y010493D01*
X003388Y010394D02*
X003334Y010394D01*
X003388Y010296D02*
X003269Y010296D01*
X003203Y010197D02*
X003388Y010197D01*
X003388Y010099D02*
X003137Y010099D01*
X003388Y010000D02*
X000964Y010000D01*
X000964Y009902D02*
X003388Y009902D01*
X003388Y009803D02*
X000964Y009803D01*
X000964Y009705D02*
X003388Y009705D01*
X003388Y009606D02*
X000964Y009606D01*
X000964Y009508D02*
X003388Y009508D01*
X003388Y009409D02*
X000964Y009409D01*
X000964Y009311D02*
X003388Y009311D01*
X003388Y009212D02*
X000964Y009212D01*
X000964Y009114D02*
X003388Y009114D01*
X003388Y009015D02*
X000964Y009015D01*
X000964Y008917D02*
X003388Y008917D01*
X003388Y008818D02*
X000964Y008818D01*
X000964Y008720D02*
X003388Y008720D01*
X004288Y008720D02*
X004888Y008720D01*
X004888Y008818D02*
X004288Y008818D01*
X004288Y008917D02*
X004888Y008917D01*
X004888Y009015D02*
X004288Y009015D01*
X004288Y009114D02*
X004888Y009114D01*
X004888Y009212D02*
X004288Y009212D01*
X004288Y009311D02*
X004888Y009311D01*
X004888Y009409D02*
X004288Y009409D01*
X004288Y009508D02*
X004888Y009508D01*
X004888Y009606D02*
X004288Y009606D01*
X004288Y009705D02*
X004888Y009705D01*
X004888Y009803D02*
X004288Y009803D01*
X004288Y009902D02*
X004888Y009902D01*
X004888Y010000D02*
X004288Y010000D01*
X004288Y010099D02*
X004888Y010099D01*
X004888Y010197D02*
X004288Y010197D01*
X004288Y010296D02*
X004888Y010296D01*
X004888Y010394D02*
X004288Y010394D01*
X004288Y010493D02*
X004888Y010493D01*
X004888Y010591D02*
X004288Y010591D01*
X004288Y010690D02*
X004888Y010690D01*
X004888Y010788D02*
X004288Y010788D01*
X004288Y010887D02*
X004888Y010887D01*
X004888Y010985D02*
X004288Y010985D01*
X004288Y011084D02*
X004888Y011084D01*
X004888Y011182D02*
X004288Y011182D01*
X004288Y011281D02*
X004888Y011281D01*
X004888Y011379D02*
X004288Y011379D01*
X004288Y011478D02*
X004888Y011478D01*
X004888Y011576D02*
X004288Y011576D01*
X004288Y011675D02*
X004888Y011675D01*
X004888Y011773D02*
X004288Y011773D01*
X004288Y011872D02*
X004888Y011872D01*
X004888Y011970D02*
X004288Y011970D01*
X004288Y012069D02*
X004888Y012069D01*
X004888Y012167D02*
X004288Y012167D01*
X004288Y012266D02*
X004888Y012266D01*
X004888Y012364D02*
X004288Y012364D01*
X004288Y012463D02*
X004888Y012463D01*
X004888Y012561D02*
X004288Y012561D01*
X004288Y012660D02*
X004888Y012660D01*
X004888Y012758D02*
X004288Y012758D01*
X004288Y012857D02*
X004888Y012857D01*
X004888Y012955D02*
X004288Y012955D01*
X004288Y013054D02*
X004888Y013054D01*
X004888Y013152D02*
X004288Y013152D01*
X004288Y013251D02*
X004888Y013251D01*
X004888Y013349D02*
X004288Y013349D01*
X004288Y013448D02*
X004888Y013448D01*
X004888Y013546D02*
X004288Y013546D01*
X004288Y013645D02*
X004811Y013645D01*
X004713Y013743D02*
X004288Y013743D01*
X004288Y013842D02*
X004614Y013842D01*
X004417Y013940D02*
X004288Y013940D01*
X004288Y014039D02*
X004342Y014039D01*
X004318Y014137D02*
X004288Y014137D01*
X004288Y014236D02*
X004332Y014236D01*
X004288Y014334D02*
X004391Y014334D01*
X004588Y014150D02*
X005088Y013650D01*
X005088Y007150D01*
X004754Y006848D02*
X004288Y006848D01*
X004288Y006750D02*
X004879Y006750D01*
X004686Y006947D02*
X004288Y006947D01*
X004288Y007045D02*
X004645Y007045D01*
X004638Y007144D02*
X004288Y007144D01*
X004288Y007242D02*
X004639Y007242D01*
X004680Y007341D02*
X004288Y007341D01*
X004288Y007439D02*
X004741Y007439D01*
X004848Y007538D02*
X004288Y007538D01*
X004288Y007636D02*
X004888Y007636D01*
X004888Y007735D02*
X004288Y007735D01*
X004288Y007833D02*
X004888Y007833D01*
X004888Y007932D02*
X004288Y007932D01*
X004288Y008030D02*
X004888Y008030D01*
X004888Y008129D02*
X004288Y008129D01*
X004288Y008227D02*
X004888Y008227D01*
X004888Y008326D02*
X004288Y008326D01*
X004288Y008424D02*
X004888Y008424D01*
X004888Y008523D02*
X004288Y008523D01*
X004288Y008621D02*
X004888Y008621D01*
X005744Y008424D02*
X006330Y008424D01*
X006244Y008523D02*
X006428Y008523D01*
X006342Y008621D02*
X006527Y008621D01*
X006441Y008720D02*
X006625Y008720D01*
X006539Y008818D02*
X006724Y008818D01*
X006638Y008917D02*
X006822Y008917D01*
X006736Y009015D02*
X006921Y009015D01*
X006835Y009114D02*
X007019Y009114D01*
X006933Y009212D02*
X007118Y009212D01*
X007032Y009311D02*
X007216Y009311D01*
X007212Y009409D02*
X007315Y009409D01*
X007322Y009508D02*
X007388Y009508D01*
X007388Y009606D02*
X007358Y009606D01*
X007358Y009705D02*
X007388Y009705D01*
X007388Y009902D02*
X007187Y009902D01*
X007088Y009650D02*
X006088Y008650D01*
X005848Y007538D02*
X005329Y007538D01*
X005436Y007439D02*
X005741Y007439D01*
X005680Y007341D02*
X005497Y007341D01*
X005537Y007242D02*
X005639Y007242D01*
X005638Y007144D02*
X005538Y007144D01*
X005532Y007045D02*
X005645Y007045D01*
X005686Y006947D02*
X005491Y006947D01*
X005423Y006848D02*
X005754Y006848D01*
X005879Y006750D02*
X005297Y006750D01*
X004288Y006651D02*
X016307Y006651D01*
X016297Y006750D02*
X016388Y006750D01*
X016588Y006650D02*
X016588Y009150D01*
X017588Y010150D01*
X017588Y011150D01*
X017088Y011650D01*
X016588Y011650D01*
X016671Y011850D02*
X015788Y012733D01*
X015788Y016733D01*
X015288Y017233D01*
X015171Y017350D01*
X009295Y017350D01*
X009317Y017372D01*
X009340Y017427D01*
X009386Y017450D01*
X015506Y017450D01*
X015888Y017067D01*
X015888Y013067D01*
X016006Y012950D01*
X016506Y012450D01*
X016721Y012450D01*
X016736Y012414D01*
X016853Y012298D01*
X017006Y012234D01*
X017171Y012234D01*
X017324Y012298D01*
X017441Y012414D01*
X017456Y012450D01*
X017506Y012450D01*
X017888Y012067D01*
X017888Y009733D01*
X016888Y008733D01*
X016888Y006567D01*
X017006Y006450D01*
X017161Y006294D01*
X017138Y006240D01*
X017138Y006060D01*
X017138Y006159D02*
X016538Y006159D01*
X016538Y006240D02*
X016538Y006060D01*
X016497Y005962D02*
X017117Y005962D01*
X017019Y005863D02*
X016438Y005863D01*
X016334Y005765D02*
X016920Y005765D01*
X016822Y005666D02*
X015887Y005666D01*
X015789Y005568D02*
X016723Y005568D01*
X016638Y005469D02*
X015690Y005469D01*
X015592Y005371D02*
X016638Y005371D01*
X016638Y005272D02*
X015538Y005272D01*
X015538Y005174D02*
X016638Y005174D01*
X016638Y005075D02*
X015538Y005075D01*
X015538Y004977D02*
X016638Y004977D01*
X016638Y004878D02*
X016447Y004878D01*
X016443Y004882D02*
X016393Y004915D01*
X016337Y004939D01*
X016277Y004951D01*
X016088Y004951D01*
X015900Y004951D01*
X015840Y004939D01*
X015784Y004915D01*
X015733Y004882D01*
X015690Y004839D01*
X015657Y004788D01*
X015633Y004732D01*
X015622Y004673D01*
X015622Y004642D01*
X016088Y004642D01*
X016088Y004642D01*
X016088Y004951D01*
X016088Y004642D01*
X016088Y004642D01*
X016088Y004642D01*
X016555Y004642D01*
X016555Y004673D01*
X016543Y004732D01*
X016520Y004788D01*
X016486Y004839D01*
X016443Y004882D01*
X016524Y004780D02*
X016638Y004780D01*
X016638Y004681D02*
X016554Y004681D01*
X016549Y004583D02*
X016638Y004583D01*
X016638Y004484D02*
X016512Y004484D01*
X016448Y004386D02*
X016638Y004386D01*
X016638Y004287D02*
X016524Y004287D01*
X016555Y004189D02*
X016638Y004189D01*
X016638Y004090D02*
X016555Y004090D01*
X016515Y003992D02*
X016638Y003992D01*
X016638Y003893D02*
X016440Y003893D01*
X016521Y003795D02*
X016661Y003795D01*
X016760Y003696D02*
X016555Y003696D01*
X016555Y003598D02*
X016858Y003598D01*
X016957Y003499D02*
X016518Y003499D01*
X016434Y003401D02*
X017243Y003401D01*
X017088Y003650D02*
X017588Y003650D01*
X017934Y003401D02*
X018181Y003401D01*
X018181Y003499D02*
X018018Y003499D01*
X018055Y003598D02*
X018181Y003598D01*
X018181Y003696D02*
X018055Y003696D01*
X018021Y003795D02*
X018181Y003795D01*
X018181Y003893D02*
X017940Y003893D01*
X018015Y003992D02*
X018181Y003992D01*
X018181Y004090D02*
X018055Y004090D01*
X018055Y004189D02*
X018181Y004189D01*
X018181Y004287D02*
X018024Y004287D01*
X017948Y004386D02*
X018181Y004386D01*
X018181Y004484D02*
X018012Y004484D01*
X018049Y004583D02*
X018181Y004583D01*
X018181Y004681D02*
X018054Y004681D01*
X018055Y004673D02*
X018043Y004732D01*
X018020Y004788D01*
X017986Y004839D01*
X017943Y004882D01*
X017893Y004915D01*
X017837Y004939D01*
X017777Y004951D01*
X017588Y004951D01*
X017400Y004951D01*
X017340Y004939D01*
X017284Y004915D01*
X017233Y004882D01*
X017190Y004839D01*
X017157Y004788D01*
X017133Y004732D01*
X017122Y004673D01*
X017122Y004642D01*
X017588Y004642D01*
X017588Y004642D01*
X017588Y004951D01*
X017588Y004642D01*
X017588Y004642D01*
X017588Y004642D01*
X018055Y004642D01*
X018055Y004673D01*
X018024Y004780D02*
X018181Y004780D01*
X018181Y004878D02*
X017947Y004878D01*
X018181Y004977D02*
X017038Y004977D01*
X017038Y005075D02*
X018181Y005075D01*
X018181Y005174D02*
X017038Y005174D01*
X017038Y005272D02*
X018181Y005272D01*
X018181Y005371D02*
X017092Y005371D01*
X017190Y005469D02*
X018181Y005469D01*
X018181Y005568D02*
X017289Y005568D01*
X017387Y005666D02*
X018181Y005666D01*
X018181Y005765D02*
X017834Y005765D01*
X017938Y005863D02*
X018181Y005863D01*
X018181Y006159D02*
X018038Y006159D01*
X018031Y006257D02*
X018181Y006257D01*
X018181Y006356D02*
X017990Y006356D01*
X017921Y006454D02*
X018181Y006454D01*
X018181Y006553D02*
X017793Y006553D01*
X017797Y006750D02*
X018181Y006750D01*
X018181Y006848D02*
X017923Y006848D01*
X017991Y006947D02*
X018181Y006947D01*
X018181Y007045D02*
X018032Y007045D01*
X018038Y007144D02*
X018181Y007144D01*
X018181Y007242D02*
X018037Y007242D01*
X017997Y007341D02*
X018181Y007341D01*
X018181Y007439D02*
X017936Y007439D01*
X017829Y007538D02*
X018181Y007538D01*
X018181Y007636D02*
X017288Y007636D01*
X017288Y007538D02*
X017348Y007538D01*
X017288Y007735D02*
X017413Y007735D01*
X017538Y007735D02*
X017638Y007735D01*
X017638Y007833D02*
X017538Y007833D01*
X017538Y007932D02*
X017638Y007932D01*
X017638Y008030D02*
X017538Y008030D01*
X017638Y008129D02*
X018181Y008129D01*
X018181Y008227D02*
X018032Y008227D01*
X018036Y008200D02*
X018027Y008255D01*
X018005Y008323D01*
X017973Y008386D01*
X017932Y008443D01*
X017882Y008493D01*
X017824Y008535D01*
X017761Y008567D01*
X017694Y008589D01*
X017638Y008598D01*
X017638Y008200D01*
X018036Y008200D01*
X018004Y008326D02*
X018181Y008326D01*
X018181Y008424D02*
X017946Y008424D01*
X017841Y008523D02*
X018181Y008523D01*
X018181Y008621D02*
X017342Y008621D01*
X017336Y008523D02*
X017288Y008523D01*
X017441Y008720D02*
X018181Y008720D01*
X018181Y008818D02*
X017539Y008818D01*
X017638Y008917D02*
X018181Y008917D01*
X018181Y009015D02*
X017736Y009015D01*
X017835Y009114D02*
X018181Y009114D01*
X018181Y009212D02*
X017933Y009212D01*
X018032Y009311D02*
X018181Y009311D01*
X018181Y009409D02*
X018130Y009409D01*
X018088Y009650D02*
X018088Y012150D01*
X017588Y012650D01*
X017088Y012650D01*
X016588Y012650D01*
X016088Y013150D01*
X016088Y017150D01*
X015588Y017650D01*
X009338Y017650D01*
X009088Y017525D01*
X008853Y017388D02*
X003338Y017388D01*
X003338Y017486D02*
X008818Y017486D01*
X008821Y017585D02*
X003338Y017585D01*
X003338Y017683D02*
X008865Y017683D01*
X009002Y017782D02*
X003338Y017782D01*
X003338Y017880D02*
X018181Y017880D01*
X018181Y017782D02*
X015740Y017782D01*
X015838Y017683D02*
X018181Y017683D01*
X018181Y017585D02*
X015937Y017585D01*
X016035Y017486D02*
X018181Y017486D01*
X018181Y017388D02*
X016134Y017388D01*
X016232Y017289D02*
X018181Y017289D01*
X018181Y017191D02*
X016288Y017191D01*
X016288Y017092D02*
X018181Y017092D01*
X018181Y016994D02*
X016288Y016994D01*
X016288Y016895D02*
X018181Y016895D01*
X018181Y016797D02*
X016288Y016797D01*
X016288Y016698D02*
X018181Y016698D01*
X018181Y016600D02*
X016288Y016600D01*
X016288Y016501D02*
X018181Y016501D01*
X018181Y016403D02*
X016288Y016403D01*
X016288Y016304D02*
X018181Y016304D01*
X018181Y016206D02*
X016288Y016206D01*
X016288Y016107D02*
X018181Y016107D01*
X018181Y016009D02*
X017309Y016009D01*
X017250Y016039D01*
X017187Y016060D01*
X017128Y016069D01*
X017128Y015690D01*
X017048Y015690D01*
X017048Y015610D01*
X016670Y015610D01*
X016679Y015552D01*
X016699Y015489D01*
X016729Y015430D01*
X016768Y015376D01*
X016815Y015330D01*
X016868Y015291D01*
X016927Y015261D01*
X016990Y015240D01*
X017048Y015231D01*
X017048Y015610D01*
X017128Y015610D01*
X017128Y015231D01*
X017187Y015240D01*
X017250Y015261D01*
X017309Y015291D01*
X017362Y015330D01*
X017409Y015376D01*
X017448Y015430D01*
X017478Y015489D01*
X017498Y015552D01*
X017507Y015610D01*
X017128Y015610D01*
X017128Y015690D01*
X017507Y015690D01*
X017498Y015748D01*
X017478Y015811D01*
X017448Y015870D01*
X017409Y015924D01*
X017362Y015970D01*
X017309Y016009D01*
X017419Y015910D02*
X018181Y015910D01*
X018181Y015812D02*
X017478Y015812D01*
X017504Y015713D02*
X018181Y015713D01*
X018181Y015615D02*
X017128Y015615D01*
X017048Y015615D02*
X016288Y015615D01*
X016288Y015713D02*
X016673Y015713D01*
X016670Y015690D02*
X016679Y015748D01*
X016699Y015811D01*
X016729Y015870D01*
X016768Y015924D01*
X016815Y015970D01*
X016868Y016009D01*
X016927Y016039D01*
X016990Y016060D01*
X017048Y016069D01*
X017048Y015690D01*
X016670Y015690D01*
X016699Y015812D02*
X016288Y015812D01*
X016288Y015910D02*
X016758Y015910D01*
X016867Y016009D02*
X016288Y016009D01*
X015888Y016009D02*
X015788Y016009D01*
X015788Y016107D02*
X015888Y016107D01*
X015888Y016206D02*
X015788Y016206D01*
X015788Y016304D02*
X015888Y016304D01*
X015888Y016403D02*
X015788Y016403D01*
X015788Y016501D02*
X015888Y016501D01*
X015888Y016600D02*
X015788Y016600D01*
X015788Y016698D02*
X015888Y016698D01*
X015888Y016797D02*
X015725Y016797D01*
X015626Y016895D02*
X015888Y016895D01*
X015888Y016994D02*
X015528Y016994D01*
X015429Y017092D02*
X015864Y017092D01*
X015765Y017191D02*
X015331Y017191D01*
X015232Y017289D02*
X015667Y017289D01*
X015568Y017388D02*
X009324Y017388D01*
X009318Y016403D02*
X006447Y016403D01*
X005838Y016150D02*
X007838Y016150D01*
X008338Y015650D01*
X008338Y013900D01*
X009088Y013150D01*
X010021Y013349D02*
X015388Y013349D01*
X015388Y013251D02*
X010089Y013251D01*
X010108Y013152D02*
X015388Y013152D01*
X015388Y013054D02*
X010091Y013054D01*
X010093Y015910D02*
X009834Y015910D01*
X009897Y016009D02*
X010030Y016009D01*
X010000Y016107D02*
X009925Y016107D01*
X009922Y016206D02*
X010000Y016206D01*
X010035Y016304D02*
X009892Y016304D01*
X009822Y016403D02*
X010105Y016403D01*
X009589Y016403D02*
X009551Y016403D01*
X009551Y016304D02*
X009589Y016304D01*
X009589Y016206D02*
X009551Y016206D01*
X009551Y016107D02*
X009589Y016107D01*
X009589Y016009D02*
X009551Y016009D01*
X009551Y015910D02*
X009589Y015910D01*
X009305Y015910D02*
X008361Y015910D01*
X008263Y016009D02*
X009242Y016009D01*
X009215Y016107D02*
X008164Y016107D01*
X008066Y016206D02*
X009217Y016206D01*
X009247Y016304D02*
X007967Y016304D01*
X007588Y015650D02*
X004088Y015650D01*
X003588Y015150D01*
X003588Y005650D01*
X003088Y005150D01*
X001838Y005150D01*
X004288Y004878D02*
X015138Y004878D01*
X015138Y004780D02*
X004288Y004780D01*
X005681Y003696D02*
X005996Y003696D01*
X005849Y003795D02*
X005828Y003795D01*
X006181Y003696D02*
X006488Y003696D01*
X006341Y003795D02*
X006328Y003795D01*
X006820Y003795D02*
X008860Y003795D01*
X008853Y003798D02*
X009006Y003734D01*
X009171Y003734D01*
X009324Y003798D01*
X009441Y003914D01*
X009504Y004067D01*
X009504Y004233D01*
X009441Y004386D01*
X009736Y004386D01*
X009673Y004233D01*
X009673Y004067D01*
X009736Y003914D01*
X009853Y003798D01*
X010006Y003734D01*
X010171Y003734D01*
X010324Y003798D01*
X010441Y003914D01*
X010504Y004067D01*
X010504Y004233D01*
X010441Y004386D01*
X012236Y004386D01*
X012173Y004233D01*
X012173Y004067D01*
X012236Y003914D01*
X012353Y003798D01*
X012506Y003734D01*
X012671Y003734D01*
X012824Y003798D01*
X012941Y003914D01*
X013004Y004067D01*
X013004Y004233D01*
X012941Y004386D01*
X013236Y004386D01*
X013173Y004233D01*
X013173Y004067D01*
X013236Y003914D01*
X013353Y003798D01*
X013506Y003734D01*
X013671Y003734D01*
X013824Y003798D01*
X013941Y003914D01*
X014004Y004067D01*
X014004Y004233D01*
X013941Y004386D01*
X015138Y004386D01*
X015138Y004484D02*
X013842Y004484D01*
X013824Y004502D02*
X013671Y004566D01*
X013506Y004566D01*
X013353Y004502D01*
X013236Y004386D01*
X013195Y004287D02*
X012982Y004287D01*
X013004Y004189D02*
X013173Y004189D01*
X013173Y004090D02*
X013004Y004090D01*
X012973Y003992D02*
X013204Y003992D01*
X013257Y003893D02*
X012919Y003893D01*
X012817Y003795D02*
X013360Y003795D01*
X013817Y003795D02*
X015161Y003795D01*
X015138Y003893D02*
X013919Y003893D01*
X013973Y003992D02*
X015138Y003992D01*
X015138Y004090D02*
X014004Y004090D01*
X014004Y004189D02*
X015138Y004189D01*
X015138Y004287D02*
X013982Y004287D01*
X013941Y004386D02*
X013824Y004502D01*
X013334Y004484D02*
X012842Y004484D01*
X012824Y004502D02*
X012671Y004566D01*
X012506Y004566D01*
X012353Y004502D01*
X012236Y004386D01*
X012195Y004287D02*
X010482Y004287D01*
X010504Y004189D02*
X012173Y004189D01*
X012173Y004090D02*
X010504Y004090D01*
X010473Y003992D02*
X012204Y003992D01*
X012257Y003893D02*
X010419Y003893D01*
X010317Y003795D02*
X012360Y003795D01*
X012334Y004484D02*
X010342Y004484D01*
X010324Y004502D02*
X010171Y004566D01*
X010006Y004566D01*
X009853Y004502D01*
X009736Y004386D01*
X009695Y004287D02*
X009482Y004287D01*
X009504Y004189D02*
X009673Y004189D01*
X009673Y004090D02*
X009504Y004090D01*
X009473Y003992D02*
X009704Y003992D01*
X009757Y003893D02*
X009419Y003893D01*
X009317Y003795D02*
X009860Y003795D01*
X009834Y004484D02*
X009342Y004484D01*
X009324Y004502D02*
X009171Y004566D01*
X009006Y004566D01*
X008853Y004502D01*
X008736Y004386D01*
X006880Y004386D01*
X006889Y004287D02*
X008695Y004287D01*
X008673Y004233D02*
X008673Y004067D01*
X008736Y003914D01*
X008853Y003798D01*
X008757Y003893D02*
X006874Y003893D01*
X006889Y003992D02*
X008704Y003992D01*
X008673Y004090D02*
X006889Y004090D01*
X006889Y004189D02*
X008673Y004189D01*
X008673Y004233D02*
X008736Y004386D01*
X008834Y004484D02*
X006834Y004484D01*
X006436Y004583D02*
X006233Y004583D01*
X005944Y004583D02*
X005733Y004583D01*
X009324Y004502D02*
X009441Y004386D01*
X010324Y004502D02*
X010441Y004386D01*
X012824Y004502D02*
X012941Y004386D01*
X015338Y003900D02*
X015588Y003650D01*
X015628Y003893D02*
X015737Y003893D01*
X015662Y003992D02*
X015538Y003992D01*
X015538Y004090D02*
X015622Y004090D01*
X015622Y004189D02*
X015538Y004189D01*
X015538Y004287D02*
X015653Y004287D01*
X015729Y004386D02*
X015538Y004386D01*
X015538Y004484D02*
X015665Y004484D01*
X015627Y004583D02*
X015538Y004583D01*
X015538Y004681D02*
X015623Y004681D01*
X015653Y004780D02*
X015538Y004780D01*
X015538Y004878D02*
X015730Y004878D01*
X016088Y004878D02*
X016088Y004878D01*
X016088Y004780D02*
X016088Y004780D01*
X016088Y004681D02*
X016088Y004681D01*
X015338Y005400D02*
X015338Y003900D01*
X015338Y005400D02*
X016088Y006150D01*
X016588Y006650D01*
X016788Y006651D02*
X016888Y006651D01*
X016888Y006750D02*
X016788Y006750D01*
X016788Y006848D02*
X016888Y006848D01*
X016888Y006947D02*
X016788Y006947D01*
X016788Y007045D02*
X016888Y007045D01*
X016888Y007144D02*
X016788Y007144D01*
X016788Y007242D02*
X016888Y007242D01*
X016888Y007341D02*
X016788Y007341D01*
X016788Y007439D02*
X016888Y007439D01*
X016888Y007538D02*
X016788Y007538D01*
X016788Y007636D02*
X016888Y007636D01*
X016888Y007735D02*
X016788Y007735D01*
X016788Y007833D02*
X016888Y007833D01*
X016888Y007932D02*
X016788Y007932D01*
X016788Y008030D02*
X016888Y008030D01*
X016888Y008129D02*
X016788Y008129D01*
X016788Y008227D02*
X016888Y008227D01*
X016888Y008326D02*
X016788Y008326D01*
X016788Y008424D02*
X016888Y008424D01*
X016888Y008523D02*
X016788Y008523D01*
X016788Y008621D02*
X016888Y008621D01*
X016888Y008720D02*
X016788Y008720D01*
X016788Y008818D02*
X016974Y008818D01*
X017072Y008917D02*
X016788Y008917D01*
X016788Y009015D02*
X017171Y009015D01*
X017269Y009114D02*
X016835Y009114D01*
X016788Y009067D02*
X017671Y009950D01*
X017788Y010067D01*
X017788Y011233D01*
X017489Y011532D01*
X017504Y011567D01*
X017504Y011733D01*
X017441Y011886D01*
X017324Y012002D01*
X017171Y012066D01*
X017006Y012066D01*
X016853Y012002D01*
X016736Y011886D01*
X016721Y011850D01*
X016671Y011850D01*
X016650Y011872D02*
X016730Y011872D01*
X016821Y011970D02*
X016551Y011970D01*
X016453Y012069D02*
X017887Y012069D01*
X017888Y011970D02*
X017356Y011970D01*
X017447Y011872D02*
X017888Y011872D01*
X017888Y011773D02*
X017487Y011773D01*
X017504Y011675D02*
X017888Y011675D01*
X017888Y011576D02*
X017504Y011576D01*
X017544Y011478D02*
X017888Y011478D01*
X017888Y011379D02*
X017642Y011379D01*
X017741Y011281D02*
X017888Y011281D01*
X017888Y011182D02*
X017788Y011182D01*
X017788Y011084D02*
X017888Y011084D01*
X017888Y010985D02*
X017788Y010985D01*
X017788Y010887D02*
X017888Y010887D01*
X017888Y010788D02*
X017788Y010788D01*
X017788Y010690D02*
X017888Y010690D01*
X017888Y010591D02*
X017788Y010591D01*
X017788Y010493D02*
X017888Y010493D01*
X017888Y010394D02*
X017788Y010394D01*
X017788Y010296D02*
X017888Y010296D01*
X017888Y010197D02*
X017788Y010197D01*
X017788Y010099D02*
X017888Y010099D01*
X017888Y010000D02*
X017721Y010000D01*
X017623Y009902D02*
X017888Y009902D01*
X017888Y009803D02*
X017524Y009803D01*
X017426Y009705D02*
X017860Y009705D01*
X017762Y009606D02*
X017327Y009606D01*
X017229Y009508D02*
X017663Y009508D01*
X017565Y009409D02*
X017130Y009409D01*
X017032Y009311D02*
X017466Y009311D01*
X017368Y009212D02*
X016933Y009212D01*
X016788Y009067D02*
X016788Y006567D01*
X016671Y006450D01*
X016516Y006294D01*
X016538Y006240D01*
X016531Y006257D02*
X017146Y006257D01*
X017100Y006356D02*
X016577Y006356D01*
X016675Y006454D02*
X017002Y006454D01*
X016903Y006553D02*
X016774Y006553D01*
X017088Y006650D02*
X017088Y008650D01*
X018088Y009650D01*
X017353Y010197D02*
X013074Y010197D01*
X012975Y010099D02*
X017254Y010099D01*
X017156Y010000D02*
X012877Y010000D01*
X012778Y009902D02*
X017057Y009902D01*
X016959Y009803D02*
X012680Y009803D01*
X012581Y009705D02*
X016860Y009705D01*
X016762Y009606D02*
X012483Y009606D01*
X012384Y009508D02*
X016663Y009508D01*
X016565Y009409D02*
X012286Y009409D01*
X013242Y010296D02*
X016858Y010296D01*
X017319Y010296D02*
X017388Y010296D01*
X017388Y010985D02*
X017341Y010985D01*
X017789Y012167D02*
X016354Y012167D01*
X016256Y012266D02*
X016930Y012266D01*
X016786Y012364D02*
X016157Y012364D01*
X016059Y012463D02*
X016493Y012463D01*
X016395Y012561D02*
X015960Y012561D01*
X015862Y012660D02*
X016296Y012660D01*
X016198Y012758D02*
X015788Y012758D01*
X015788Y012857D02*
X016099Y012857D01*
X016006Y012950D02*
X016006Y012950D01*
X016001Y012955D02*
X015788Y012955D01*
X015788Y013054D02*
X015902Y013054D01*
X015888Y013152D02*
X015788Y013152D01*
X015788Y013251D02*
X015888Y013251D01*
X015888Y013349D02*
X015788Y013349D01*
X015788Y013448D02*
X015888Y013448D01*
X015888Y013546D02*
X015788Y013546D01*
X015788Y013645D02*
X015888Y013645D01*
X015888Y013743D02*
X015788Y013743D01*
X015788Y013842D02*
X015888Y013842D01*
X015888Y013940D02*
X015788Y013940D01*
X015788Y014039D02*
X015888Y014039D01*
X015888Y014137D02*
X015788Y014137D01*
X015788Y014236D02*
X015888Y014236D01*
X015888Y014334D02*
X015788Y014334D01*
X015788Y014433D02*
X015888Y014433D01*
X015888Y014531D02*
X015788Y014531D01*
X015788Y014630D02*
X015888Y014630D01*
X015888Y014728D02*
X015788Y014728D01*
X015788Y014827D02*
X015888Y014827D01*
X015888Y014925D02*
X015788Y014925D01*
X015788Y015024D02*
X015888Y015024D01*
X015888Y015122D02*
X015788Y015122D01*
X015788Y015221D02*
X015888Y015221D01*
X015888Y015319D02*
X015788Y015319D01*
X015788Y015418D02*
X015888Y015418D01*
X015888Y015516D02*
X015788Y015516D01*
X015788Y015615D02*
X015888Y015615D01*
X015888Y015713D02*
X015788Y015713D01*
X015788Y015812D02*
X015888Y015812D01*
X015888Y015910D02*
X015788Y015910D01*
X016288Y015516D02*
X016690Y015516D01*
X016738Y015418D02*
X016288Y015418D01*
X016288Y015319D02*
X016829Y015319D01*
X017048Y015319D02*
X017128Y015319D01*
X017128Y015418D02*
X017048Y015418D01*
X017048Y015516D02*
X017128Y015516D01*
X017128Y015713D02*
X017048Y015713D01*
X017048Y015812D02*
X017128Y015812D01*
X017128Y015910D02*
X017048Y015910D01*
X017048Y016009D02*
X017128Y016009D01*
X017487Y015516D02*
X018181Y015516D01*
X018181Y015418D02*
X017439Y015418D01*
X017347Y015319D02*
X018181Y015319D01*
X018181Y015221D02*
X016288Y015221D01*
X016288Y015122D02*
X018181Y015122D01*
X018181Y015024D02*
X016288Y015024D01*
X016288Y014925D02*
X018181Y014925D01*
X018181Y014827D02*
X016288Y014827D01*
X016288Y014728D02*
X018181Y014728D01*
X018181Y014630D02*
X016288Y014630D01*
X016288Y014531D02*
X018181Y014531D01*
X018181Y014433D02*
X016288Y014433D01*
X016288Y014334D02*
X018181Y014334D01*
X018181Y014236D02*
X016288Y014236D01*
X016288Y014137D02*
X018181Y014137D01*
X018181Y014039D02*
X017238Y014039D01*
X017248Y014035D02*
X017186Y014056D01*
X017127Y014065D01*
X017127Y013689D01*
X017050Y013689D01*
X017050Y014065D01*
X016991Y014056D01*
X016929Y014035D01*
X016871Y014006D01*
X016818Y013967D01*
X016771Y013921D01*
X016733Y013868D01*
X016703Y013810D01*
X016683Y013747D01*
X016674Y013689D01*
X017050Y013689D01*
X017050Y013611D01*
X017127Y013611D01*
X017127Y013235D01*
X017186Y013244D01*
X017248Y013265D01*
X017306Y013294D01*
X017359Y013333D01*
X017406Y013379D01*
X017444Y013432D01*
X017474Y013490D01*
X017494Y013553D01*
X017503Y013611D01*
X017127Y013611D01*
X017127Y013689D01*
X017503Y013689D01*
X017494Y013747D01*
X017474Y013810D01*
X017444Y013868D01*
X017406Y013921D01*
X017359Y013967D01*
X017306Y014006D01*
X017248Y014035D01*
X017127Y014039D02*
X017050Y014039D01*
X017050Y013940D02*
X017127Y013940D01*
X017127Y013842D02*
X017050Y013842D01*
X017050Y013743D02*
X017127Y013743D01*
X017127Y013645D02*
X018181Y013645D01*
X018181Y013743D02*
X017495Y013743D01*
X017457Y013842D02*
X018181Y013842D01*
X018181Y013940D02*
X017386Y013940D01*
X017492Y013546D02*
X018181Y013546D01*
X018181Y013448D02*
X017452Y013448D01*
X017375Y013349D02*
X018181Y013349D01*
X018181Y013251D02*
X017204Y013251D01*
X017127Y013251D02*
X017050Y013251D01*
X017050Y013235D02*
X017050Y013611D01*
X016674Y013611D01*
X016683Y013553D01*
X016703Y013490D01*
X016733Y013432D01*
X016771Y013379D01*
X016818Y013333D01*
X016871Y013294D01*
X016929Y013265D01*
X016991Y013244D01*
X017050Y013235D01*
X016972Y013251D02*
X016288Y013251D01*
X016288Y013349D02*
X016801Y013349D01*
X016725Y013448D02*
X016288Y013448D01*
X016288Y013546D02*
X016685Y013546D01*
X016682Y013743D02*
X016288Y013743D01*
X016288Y013645D02*
X017050Y013645D01*
X017050Y013546D02*
X017127Y013546D01*
X017127Y013448D02*
X017050Y013448D01*
X017050Y013349D02*
X017127Y013349D01*
X017201Y013054D02*
X018181Y013054D01*
X018181Y013152D02*
X016369Y013152D01*
X016468Y013054D02*
X016976Y013054D01*
X016806Y012955D02*
X016566Y012955D01*
X016665Y012857D02*
X016724Y012857D01*
X017371Y012955D02*
X018181Y012955D01*
X018181Y012857D02*
X017453Y012857D01*
X017763Y012758D02*
X018181Y012758D01*
X018181Y012660D02*
X017862Y012660D01*
X017960Y012561D02*
X018181Y012561D01*
X018181Y012463D02*
X018059Y012463D01*
X018157Y012364D02*
X018181Y012364D01*
X017690Y012266D02*
X017247Y012266D01*
X017390Y012364D02*
X017592Y012364D01*
X016719Y013842D02*
X016288Y013842D01*
X016288Y013940D02*
X016791Y013940D01*
X016939Y014039D02*
X016288Y014039D01*
X018174Y017979D02*
X003338Y017979D01*
X003338Y018077D02*
X018125Y018077D01*
X018076Y018176D02*
X016751Y018176D01*
X016973Y018274D02*
X018026Y018274D01*
X017977Y018373D02*
X017071Y018373D01*
X017170Y018471D02*
X017928Y018471D01*
X017879Y018570D02*
X017233Y018570D01*
X017274Y018668D02*
X017829Y018668D01*
X017780Y018767D02*
X017315Y018767D01*
X017342Y018865D02*
X017731Y018865D01*
X017682Y018964D02*
X017342Y018964D01*
X017342Y019062D02*
X017632Y019062D01*
X017583Y019161D02*
X017342Y019161D01*
X017311Y019259D02*
X017534Y019259D01*
X017485Y019358D02*
X017270Y019358D01*
X017229Y019456D02*
X017435Y019456D01*
X017386Y019555D02*
X017161Y019555D01*
X017062Y019653D02*
X017337Y019653D01*
X015952Y018274D02*
X013844Y018274D01*
X013746Y018176D02*
X016173Y018176D01*
X015854Y018373D02*
X013943Y018373D01*
X014041Y018471D02*
X015755Y018471D01*
X015692Y018570D02*
X014140Y018570D01*
X014238Y018668D02*
X015651Y018668D01*
X015610Y018767D02*
X014499Y018767D01*
X014574Y018798D02*
X014691Y018914D01*
X014754Y019067D01*
X014754Y019233D01*
X014691Y019386D01*
X014574Y019502D01*
X014421Y019566D01*
X014256Y019566D01*
X014103Y019502D01*
X013986Y019386D01*
X013923Y019233D01*
X013923Y019116D01*
X013477Y018670D01*
X008325Y018670D01*
X008167Y018829D01*
X008167Y018840D01*
X008117Y018961D01*
X008024Y019053D01*
X007904Y019103D01*
X007773Y019103D01*
X007653Y019053D01*
X007560Y018961D01*
X007510Y018840D01*
X007510Y018710D01*
X007560Y018589D01*
X007653Y018497D01*
X007773Y018447D01*
X007785Y018447D01*
X007985Y018247D01*
X008060Y018171D01*
X008160Y018130D01*
X013642Y018130D01*
X013741Y018171D01*
X014305Y018734D01*
X014421Y018734D01*
X014574Y018798D01*
X014641Y018865D02*
X015583Y018865D01*
X015583Y018964D02*
X014711Y018964D01*
X014752Y019062D02*
X015583Y019062D01*
X015583Y019161D02*
X014754Y019161D01*
X014743Y019259D02*
X015614Y019259D01*
X015655Y019358D02*
X014702Y019358D01*
X014620Y019456D02*
X015696Y019456D01*
X015764Y019555D02*
X014448Y019555D01*
X014229Y019555D02*
X013448Y019555D01*
X013421Y019566D02*
X013256Y019566D01*
X013103Y019502D01*
X012986Y019386D01*
X012923Y019233D01*
X012923Y019067D01*
X012986Y018914D01*
X013103Y018798D01*
X013256Y018734D01*
X013421Y018734D01*
X013574Y018798D01*
X013691Y018914D01*
X013754Y019067D01*
X013754Y019233D01*
X013691Y019386D01*
X013574Y019502D01*
X013421Y019566D01*
X013229Y019555D02*
X012448Y019555D01*
X012421Y019566D02*
X012256Y019566D01*
X012103Y019502D01*
X011986Y019386D01*
X011923Y019233D01*
X011923Y019067D01*
X011986Y018914D01*
X012103Y018798D01*
X012256Y018734D01*
X012421Y018734D01*
X012574Y018798D01*
X012691Y018914D01*
X012754Y019067D01*
X012754Y019233D01*
X012691Y019386D01*
X012574Y019502D01*
X012421Y019566D01*
X012229Y019555D02*
X003381Y019555D01*
X003338Y019653D02*
X015863Y019653D01*
X014057Y019456D02*
X013620Y019456D01*
X013702Y019358D02*
X013974Y019358D01*
X013934Y019259D02*
X013743Y019259D01*
X013754Y019161D02*
X013923Y019161D01*
X013869Y019062D02*
X013752Y019062D01*
X013770Y018964D02*
X013711Y018964D01*
X013672Y018865D02*
X013641Y018865D01*
X013573Y018767D02*
X013499Y018767D01*
X013178Y018767D02*
X012499Y018767D01*
X012641Y018865D02*
X013035Y018865D01*
X012966Y018964D02*
X012711Y018964D01*
X012752Y019062D02*
X012925Y019062D01*
X012923Y019161D02*
X012754Y019161D01*
X012743Y019259D02*
X012934Y019259D01*
X012974Y019358D02*
X012702Y019358D01*
X012620Y019456D02*
X013057Y019456D01*
X012178Y018767D02*
X008229Y018767D01*
X008156Y018865D02*
X012035Y018865D01*
X011966Y018964D02*
X008114Y018964D01*
X008003Y019062D02*
X011925Y019062D01*
X011923Y019161D02*
X003563Y019161D01*
X003563Y019062D02*
X007674Y019062D01*
X007563Y018964D02*
X003563Y018964D01*
X003563Y018865D02*
X007521Y018865D01*
X007510Y018767D02*
X003535Y018767D01*
X003494Y018668D02*
X007528Y018668D01*
X007580Y018570D02*
X003454Y018570D01*
X003390Y018471D02*
X007715Y018471D01*
X007859Y018373D02*
X003338Y018373D01*
X003338Y018274D02*
X007958Y018274D01*
X008056Y018176D02*
X003338Y018176D01*
X003531Y019259D02*
X011934Y019259D01*
X011974Y019358D02*
X003491Y019358D01*
X003450Y019456D02*
X012057Y019456D01*
X007444Y015418D02*
X004648Y015418D01*
X004529Y015418D02*
X004139Y015418D01*
X003338Y016009D02*
X005697Y016009D01*
X005599Y016107D02*
X003338Y016107D01*
X003338Y016206D02*
X005500Y016206D01*
X005402Y016304D02*
X003338Y016304D01*
X003338Y016403D02*
X005230Y016403D01*
X005108Y016501D02*
X003338Y016501D01*
X003338Y016600D02*
X005068Y016600D01*
X005068Y016698D02*
X003338Y016698D01*
X003338Y016797D02*
X005107Y016797D01*
X005224Y016895D02*
X003338Y016895D01*
X005338Y016650D02*
X005838Y016150D01*
X015638Y006060D02*
X015661Y006006D01*
X016838Y005400D02*
X016838Y003900D01*
X017088Y003650D01*
X017128Y003893D02*
X017237Y003893D01*
X017162Y003992D02*
X017038Y003992D01*
X017038Y004090D02*
X017122Y004090D01*
X017122Y004189D02*
X017038Y004189D01*
X017038Y004287D02*
X017153Y004287D01*
X017229Y004386D02*
X017038Y004386D01*
X017038Y004484D02*
X017165Y004484D01*
X017127Y004583D02*
X017038Y004583D01*
X017038Y004681D02*
X017123Y004681D01*
X017153Y004780D02*
X017038Y004780D01*
X017038Y004878D02*
X017230Y004878D01*
X017588Y004878D02*
X017588Y004878D01*
X017588Y004780D02*
X017588Y004780D01*
X017588Y004681D02*
X017588Y004681D01*
X016838Y005400D02*
X017588Y006150D01*
X017088Y006650D01*
X017288Y006750D02*
X017379Y006750D01*
X017370Y006651D02*
X018181Y006651D01*
X018181Y007735D02*
X017764Y007735D01*
X017908Y007833D02*
X018181Y007833D01*
X018181Y007932D02*
X017982Y007932D01*
X018023Y008030D02*
X018181Y008030D01*
X017638Y008227D02*
X017538Y008227D01*
X017538Y008326D02*
X017638Y008326D01*
X017638Y008424D02*
X017538Y008424D01*
X017538Y008523D02*
X017638Y008523D01*
X016138Y008523D02*
X016038Y008523D01*
X016038Y008424D02*
X016138Y008424D01*
X016138Y008326D02*
X016038Y008326D01*
X016038Y008227D02*
X016138Y008227D01*
X016762Y002120D02*
X018073Y002120D01*
X018024Y002022D02*
X016977Y002022D01*
X017076Y001923D02*
X017975Y001923D01*
X017926Y001825D02*
X017174Y001825D01*
X017235Y001726D02*
X017876Y001726D01*
X017827Y001628D02*
X017276Y001628D01*
X017317Y001529D02*
X017778Y001529D01*
X017729Y001431D02*
X017342Y001431D01*
X017342Y001332D02*
X017679Y001332D01*
X017630Y001234D02*
X017342Y001234D01*
X017342Y001135D02*
X017581Y001135D01*
X017532Y001037D02*
X017309Y001037D01*
X017268Y000938D02*
X017482Y000938D01*
X017433Y000840D02*
X017228Y000840D01*
X017156Y000741D02*
X017384Y000741D01*
X017335Y000643D02*
X017058Y000643D01*
D18*
X017088Y002650D03*
X013588Y003150D03*
X013588Y001150D03*
X010588Y001150D03*
X010588Y003150D03*
X013088Y006150D03*
X010338Y007900D03*
X008088Y008650D03*
X007088Y009650D03*
X007713Y011150D03*
X008213Y011150D03*
X008338Y013150D03*
X007838Y014650D03*
X007588Y015650D03*
X006338Y016650D03*
X005338Y016650D03*
X004588Y015150D03*
X004588Y014150D03*
X009088Y017525D03*
X009088Y019150D03*
X012088Y016150D03*
X009838Y013150D03*
X011088Y012650D03*
X012338Y010900D03*
X015588Y011650D03*
X015588Y009650D03*
X007588Y003150D03*
X007588Y001150D03*
X004588Y001150D03*
X004588Y003150D03*
X005588Y008150D03*
X005588Y008650D03*
D19*
X010338Y009400D03*
X007838Y018775D03*
D20*
X008213Y018400D01*
X013588Y018400D01*
X014338Y019150D01*
D21*
X013088Y010650D03*
D22*
X017088Y010650D01*
X013088Y010650D02*
X012088Y009650D01*
X010588Y009650D01*
X010338Y009400D01*
M02*
