G75*
%MOIN*%
%OFA0B0*%
%FSLAX24Y24*%
%IPPOS*%
%LPD*%
%AMOC8*
5,1,8,0,0,1.08239X$1,22.5*
%
%ADD10C,0.0000*%
%ADD11C,0.1260*%
%ADD12C,0.0540*%
%ADD13C,0.0531*%
%ADD14C,0.0600*%
%ADD15C,0.0317*%
%ADD16C,0.0413*%
%ADD17C,0.0740*%
D10*
X001699Y000307D02*
X000714Y002276D01*
X000714Y018024D01*
X001699Y019993D01*
X017447Y019993D01*
X018431Y018024D01*
X018431Y002276D01*
X017447Y000307D01*
X001699Y000307D01*
X002053Y001292D02*
X002055Y001342D01*
X002061Y001392D01*
X002071Y001441D01*
X002085Y001489D01*
X002102Y001536D01*
X002123Y001581D01*
X002148Y001625D01*
X002176Y001666D01*
X002208Y001705D01*
X002242Y001742D01*
X002279Y001776D01*
X002319Y001806D01*
X002361Y001833D01*
X002405Y001857D01*
X002451Y001878D01*
X002498Y001894D01*
X002546Y001907D01*
X002596Y001916D01*
X002645Y001921D01*
X002696Y001922D01*
X002746Y001919D01*
X002795Y001912D01*
X002844Y001901D01*
X002892Y001886D01*
X002938Y001868D01*
X002983Y001846D01*
X003026Y001820D01*
X003067Y001791D01*
X003106Y001759D01*
X003142Y001724D01*
X003174Y001686D01*
X003204Y001646D01*
X003231Y001603D01*
X003254Y001559D01*
X003273Y001513D01*
X003289Y001465D01*
X003301Y001416D01*
X003309Y001367D01*
X003313Y001317D01*
X003313Y001267D01*
X003309Y001217D01*
X003301Y001168D01*
X003289Y001119D01*
X003273Y001071D01*
X003254Y001025D01*
X003231Y000981D01*
X003204Y000938D01*
X003174Y000898D01*
X003142Y000860D01*
X003106Y000825D01*
X003067Y000793D01*
X003026Y000764D01*
X002983Y000738D01*
X002938Y000716D01*
X002892Y000698D01*
X002844Y000683D01*
X002795Y000672D01*
X002746Y000665D01*
X002696Y000662D01*
X002645Y000663D01*
X002596Y000668D01*
X002546Y000677D01*
X002498Y000690D01*
X002451Y000706D01*
X002405Y000727D01*
X002361Y000751D01*
X002319Y000778D01*
X002279Y000808D01*
X002242Y000842D01*
X002208Y000879D01*
X002176Y000918D01*
X002148Y000959D01*
X002123Y001003D01*
X002102Y001048D01*
X002085Y001095D01*
X002071Y001143D01*
X002061Y001192D01*
X002055Y001242D01*
X002053Y001292D01*
X015832Y001292D02*
X015834Y001342D01*
X015840Y001392D01*
X015850Y001441D01*
X015864Y001489D01*
X015881Y001536D01*
X015902Y001581D01*
X015927Y001625D01*
X015955Y001666D01*
X015987Y001705D01*
X016021Y001742D01*
X016058Y001776D01*
X016098Y001806D01*
X016140Y001833D01*
X016184Y001857D01*
X016230Y001878D01*
X016277Y001894D01*
X016325Y001907D01*
X016375Y001916D01*
X016424Y001921D01*
X016475Y001922D01*
X016525Y001919D01*
X016574Y001912D01*
X016623Y001901D01*
X016671Y001886D01*
X016717Y001868D01*
X016762Y001846D01*
X016805Y001820D01*
X016846Y001791D01*
X016885Y001759D01*
X016921Y001724D01*
X016953Y001686D01*
X016983Y001646D01*
X017010Y001603D01*
X017033Y001559D01*
X017052Y001513D01*
X017068Y001465D01*
X017080Y001416D01*
X017088Y001367D01*
X017092Y001317D01*
X017092Y001267D01*
X017088Y001217D01*
X017080Y001168D01*
X017068Y001119D01*
X017052Y001071D01*
X017033Y001025D01*
X017010Y000981D01*
X016983Y000938D01*
X016953Y000898D01*
X016921Y000860D01*
X016885Y000825D01*
X016846Y000793D01*
X016805Y000764D01*
X016762Y000738D01*
X016717Y000716D01*
X016671Y000698D01*
X016623Y000683D01*
X016574Y000672D01*
X016525Y000665D01*
X016475Y000662D01*
X016424Y000663D01*
X016375Y000668D01*
X016325Y000677D01*
X016277Y000690D01*
X016230Y000706D01*
X016184Y000727D01*
X016140Y000751D01*
X016098Y000778D01*
X016058Y000808D01*
X016021Y000842D01*
X015987Y000879D01*
X015955Y000918D01*
X015927Y000959D01*
X015902Y001003D01*
X015881Y001048D01*
X015864Y001095D01*
X015850Y001143D01*
X015840Y001192D01*
X015834Y001242D01*
X015832Y001292D01*
X015832Y019008D02*
X015834Y019058D01*
X015840Y019108D01*
X015850Y019157D01*
X015864Y019205D01*
X015881Y019252D01*
X015902Y019297D01*
X015927Y019341D01*
X015955Y019382D01*
X015987Y019421D01*
X016021Y019458D01*
X016058Y019492D01*
X016098Y019522D01*
X016140Y019549D01*
X016184Y019573D01*
X016230Y019594D01*
X016277Y019610D01*
X016325Y019623D01*
X016375Y019632D01*
X016424Y019637D01*
X016475Y019638D01*
X016525Y019635D01*
X016574Y019628D01*
X016623Y019617D01*
X016671Y019602D01*
X016717Y019584D01*
X016762Y019562D01*
X016805Y019536D01*
X016846Y019507D01*
X016885Y019475D01*
X016921Y019440D01*
X016953Y019402D01*
X016983Y019362D01*
X017010Y019319D01*
X017033Y019275D01*
X017052Y019229D01*
X017068Y019181D01*
X017080Y019132D01*
X017088Y019083D01*
X017092Y019033D01*
X017092Y018983D01*
X017088Y018933D01*
X017080Y018884D01*
X017068Y018835D01*
X017052Y018787D01*
X017033Y018741D01*
X017010Y018697D01*
X016983Y018654D01*
X016953Y018614D01*
X016921Y018576D01*
X016885Y018541D01*
X016846Y018509D01*
X016805Y018480D01*
X016762Y018454D01*
X016717Y018432D01*
X016671Y018414D01*
X016623Y018399D01*
X016574Y018388D01*
X016525Y018381D01*
X016475Y018378D01*
X016424Y018379D01*
X016375Y018384D01*
X016325Y018393D01*
X016277Y018406D01*
X016230Y018422D01*
X016184Y018443D01*
X016140Y018467D01*
X016098Y018494D01*
X016058Y018524D01*
X016021Y018558D01*
X015987Y018595D01*
X015955Y018634D01*
X015927Y018675D01*
X015902Y018719D01*
X015881Y018764D01*
X015864Y018811D01*
X015850Y018859D01*
X015840Y018908D01*
X015834Y018958D01*
X015832Y019008D01*
X002053Y019008D02*
X002055Y019058D01*
X002061Y019108D01*
X002071Y019157D01*
X002085Y019205D01*
X002102Y019252D01*
X002123Y019297D01*
X002148Y019341D01*
X002176Y019382D01*
X002208Y019421D01*
X002242Y019458D01*
X002279Y019492D01*
X002319Y019522D01*
X002361Y019549D01*
X002405Y019573D01*
X002451Y019594D01*
X002498Y019610D01*
X002546Y019623D01*
X002596Y019632D01*
X002645Y019637D01*
X002696Y019638D01*
X002746Y019635D01*
X002795Y019628D01*
X002844Y019617D01*
X002892Y019602D01*
X002938Y019584D01*
X002983Y019562D01*
X003026Y019536D01*
X003067Y019507D01*
X003106Y019475D01*
X003142Y019440D01*
X003174Y019402D01*
X003204Y019362D01*
X003231Y019319D01*
X003254Y019275D01*
X003273Y019229D01*
X003289Y019181D01*
X003301Y019132D01*
X003309Y019083D01*
X003313Y019033D01*
X003313Y018983D01*
X003309Y018933D01*
X003301Y018884D01*
X003289Y018835D01*
X003273Y018787D01*
X003254Y018741D01*
X003231Y018697D01*
X003204Y018654D01*
X003174Y018614D01*
X003142Y018576D01*
X003106Y018541D01*
X003067Y018509D01*
X003026Y018480D01*
X002983Y018454D01*
X002938Y018432D01*
X002892Y018414D01*
X002844Y018399D01*
X002795Y018388D01*
X002746Y018381D01*
X002696Y018378D01*
X002645Y018379D01*
X002596Y018384D01*
X002546Y018393D01*
X002498Y018406D01*
X002451Y018422D01*
X002405Y018443D01*
X002361Y018467D01*
X002319Y018494D01*
X002279Y018524D01*
X002242Y018558D01*
X002208Y018595D01*
X002176Y018634D01*
X002148Y018675D01*
X002123Y018719D01*
X002102Y018764D01*
X002085Y018811D01*
X002071Y018859D01*
X002061Y018908D01*
X002055Y018958D01*
X002053Y019008D01*
D11*
X002683Y019008D03*
X016462Y019008D03*
X016462Y001292D03*
X002683Y001292D03*
D12*
X017088Y015650D03*
D13*
X017088Y013650D03*
X017088Y012650D03*
X017088Y011650D03*
X017088Y010650D03*
X013588Y004150D03*
X012588Y004150D03*
X010088Y004150D03*
X009088Y004150D03*
X012338Y019150D03*
X013338Y019150D03*
X014338Y019150D03*
D14*
X016088Y008150D03*
X016088Y007150D03*
X016088Y006150D03*
X017588Y006150D03*
X017588Y007150D03*
X017588Y008150D03*
X007088Y007150D03*
X006088Y007150D03*
X005088Y007150D03*
D15*
X005588Y004308D02*
X005588Y003992D01*
X006088Y003992D02*
X006088Y004308D01*
X006581Y004308D02*
X006581Y003992D01*
X015930Y004150D02*
X016247Y004150D01*
X016247Y004642D02*
X015930Y004642D01*
X015930Y003650D02*
X016247Y003650D01*
X017430Y003650D02*
X017747Y003650D01*
X017747Y004150D02*
X017430Y004150D01*
X017430Y004642D02*
X017747Y004642D01*
D16*
X010357Y016150D03*
X009570Y016150D03*
D17*
X001838Y008150D03*
X001838Y007150D03*
X001838Y006150D03*
X001838Y005150D03*
X001838Y004150D03*
X001838Y003150D03*
M02*
