G75*
%MOIN*%
%OFA0B0*%
%FSLAX24Y24*%
%IPPOS*%
%LPD*%
%AMOC8*
5,1,8,0,0,1.08239X$1,22.5*
%
%ADD10C,0.0000*%
%ADD11C,0.0040*%
%ADD12C,0.0050*%
%ADD13C,0.0060*%
%ADD14C,0.0080*%
%ADD15C,0.0030*%
%ADD16R,0.0180X0.0300*%
%ADD17R,0.0300X0.0180*%
D10*
X001699Y000307D02*
X000714Y002276D01*
X000714Y018024D01*
X001699Y019993D01*
X017447Y019993D01*
X018431Y018024D01*
X018431Y002276D01*
X017447Y000307D01*
X001699Y000307D01*
X002053Y001292D02*
X002055Y001342D01*
X002061Y001392D01*
X002071Y001441D01*
X002085Y001489D01*
X002102Y001536D01*
X002123Y001581D01*
X002148Y001625D01*
X002176Y001666D01*
X002208Y001705D01*
X002242Y001742D01*
X002279Y001776D01*
X002319Y001806D01*
X002361Y001833D01*
X002405Y001857D01*
X002451Y001878D01*
X002498Y001894D01*
X002546Y001907D01*
X002596Y001916D01*
X002645Y001921D01*
X002696Y001922D01*
X002746Y001919D01*
X002795Y001912D01*
X002844Y001901D01*
X002892Y001886D01*
X002938Y001868D01*
X002983Y001846D01*
X003026Y001820D01*
X003067Y001791D01*
X003106Y001759D01*
X003142Y001724D01*
X003174Y001686D01*
X003204Y001646D01*
X003231Y001603D01*
X003254Y001559D01*
X003273Y001513D01*
X003289Y001465D01*
X003301Y001416D01*
X003309Y001367D01*
X003313Y001317D01*
X003313Y001267D01*
X003309Y001217D01*
X003301Y001168D01*
X003289Y001119D01*
X003273Y001071D01*
X003254Y001025D01*
X003231Y000981D01*
X003204Y000938D01*
X003174Y000898D01*
X003142Y000860D01*
X003106Y000825D01*
X003067Y000793D01*
X003026Y000764D01*
X002983Y000738D01*
X002938Y000716D01*
X002892Y000698D01*
X002844Y000683D01*
X002795Y000672D01*
X002746Y000665D01*
X002696Y000662D01*
X002645Y000663D01*
X002596Y000668D01*
X002546Y000677D01*
X002498Y000690D01*
X002451Y000706D01*
X002405Y000727D01*
X002361Y000751D01*
X002319Y000778D01*
X002279Y000808D01*
X002242Y000842D01*
X002208Y000879D01*
X002176Y000918D01*
X002148Y000959D01*
X002123Y001003D01*
X002102Y001048D01*
X002085Y001095D01*
X002071Y001143D01*
X002061Y001192D01*
X002055Y001242D01*
X002053Y001292D01*
X015832Y001292D02*
X015834Y001342D01*
X015840Y001392D01*
X015850Y001441D01*
X015864Y001489D01*
X015881Y001536D01*
X015902Y001581D01*
X015927Y001625D01*
X015955Y001666D01*
X015987Y001705D01*
X016021Y001742D01*
X016058Y001776D01*
X016098Y001806D01*
X016140Y001833D01*
X016184Y001857D01*
X016230Y001878D01*
X016277Y001894D01*
X016325Y001907D01*
X016375Y001916D01*
X016424Y001921D01*
X016475Y001922D01*
X016525Y001919D01*
X016574Y001912D01*
X016623Y001901D01*
X016671Y001886D01*
X016717Y001868D01*
X016762Y001846D01*
X016805Y001820D01*
X016846Y001791D01*
X016885Y001759D01*
X016921Y001724D01*
X016953Y001686D01*
X016983Y001646D01*
X017010Y001603D01*
X017033Y001559D01*
X017052Y001513D01*
X017068Y001465D01*
X017080Y001416D01*
X017088Y001367D01*
X017092Y001317D01*
X017092Y001267D01*
X017088Y001217D01*
X017080Y001168D01*
X017068Y001119D01*
X017052Y001071D01*
X017033Y001025D01*
X017010Y000981D01*
X016983Y000938D01*
X016953Y000898D01*
X016921Y000860D01*
X016885Y000825D01*
X016846Y000793D01*
X016805Y000764D01*
X016762Y000738D01*
X016717Y000716D01*
X016671Y000698D01*
X016623Y000683D01*
X016574Y000672D01*
X016525Y000665D01*
X016475Y000662D01*
X016424Y000663D01*
X016375Y000668D01*
X016325Y000677D01*
X016277Y000690D01*
X016230Y000706D01*
X016184Y000727D01*
X016140Y000751D01*
X016098Y000778D01*
X016058Y000808D01*
X016021Y000842D01*
X015987Y000879D01*
X015955Y000918D01*
X015927Y000959D01*
X015902Y001003D01*
X015881Y001048D01*
X015864Y001095D01*
X015850Y001143D01*
X015840Y001192D01*
X015834Y001242D01*
X015832Y001292D01*
X015832Y019008D02*
X015834Y019058D01*
X015840Y019108D01*
X015850Y019157D01*
X015864Y019205D01*
X015881Y019252D01*
X015902Y019297D01*
X015927Y019341D01*
X015955Y019382D01*
X015987Y019421D01*
X016021Y019458D01*
X016058Y019492D01*
X016098Y019522D01*
X016140Y019549D01*
X016184Y019573D01*
X016230Y019594D01*
X016277Y019610D01*
X016325Y019623D01*
X016375Y019632D01*
X016424Y019637D01*
X016475Y019638D01*
X016525Y019635D01*
X016574Y019628D01*
X016623Y019617D01*
X016671Y019602D01*
X016717Y019584D01*
X016762Y019562D01*
X016805Y019536D01*
X016846Y019507D01*
X016885Y019475D01*
X016921Y019440D01*
X016953Y019402D01*
X016983Y019362D01*
X017010Y019319D01*
X017033Y019275D01*
X017052Y019229D01*
X017068Y019181D01*
X017080Y019132D01*
X017088Y019083D01*
X017092Y019033D01*
X017092Y018983D01*
X017088Y018933D01*
X017080Y018884D01*
X017068Y018835D01*
X017052Y018787D01*
X017033Y018741D01*
X017010Y018697D01*
X016983Y018654D01*
X016953Y018614D01*
X016921Y018576D01*
X016885Y018541D01*
X016846Y018509D01*
X016805Y018480D01*
X016762Y018454D01*
X016717Y018432D01*
X016671Y018414D01*
X016623Y018399D01*
X016574Y018388D01*
X016525Y018381D01*
X016475Y018378D01*
X016424Y018379D01*
X016375Y018384D01*
X016325Y018393D01*
X016277Y018406D01*
X016230Y018422D01*
X016184Y018443D01*
X016140Y018467D01*
X016098Y018494D01*
X016058Y018524D01*
X016021Y018558D01*
X015987Y018595D01*
X015955Y018634D01*
X015927Y018675D01*
X015902Y018719D01*
X015881Y018764D01*
X015864Y018811D01*
X015850Y018859D01*
X015840Y018908D01*
X015834Y018958D01*
X015832Y019008D01*
X002053Y019008D02*
X002055Y019058D01*
X002061Y019108D01*
X002071Y019157D01*
X002085Y019205D01*
X002102Y019252D01*
X002123Y019297D01*
X002148Y019341D01*
X002176Y019382D01*
X002208Y019421D01*
X002242Y019458D01*
X002279Y019492D01*
X002319Y019522D01*
X002361Y019549D01*
X002405Y019573D01*
X002451Y019594D01*
X002498Y019610D01*
X002546Y019623D01*
X002596Y019632D01*
X002645Y019637D01*
X002696Y019638D01*
X002746Y019635D01*
X002795Y019628D01*
X002844Y019617D01*
X002892Y019602D01*
X002938Y019584D01*
X002983Y019562D01*
X003026Y019536D01*
X003067Y019507D01*
X003106Y019475D01*
X003142Y019440D01*
X003174Y019402D01*
X003204Y019362D01*
X003231Y019319D01*
X003254Y019275D01*
X003273Y019229D01*
X003289Y019181D01*
X003301Y019132D01*
X003309Y019083D01*
X003313Y019033D01*
X003313Y018983D01*
X003309Y018933D01*
X003301Y018884D01*
X003289Y018835D01*
X003273Y018787D01*
X003254Y018741D01*
X003231Y018697D01*
X003204Y018654D01*
X003174Y018614D01*
X003142Y018576D01*
X003106Y018541D01*
X003067Y018509D01*
X003026Y018480D01*
X002983Y018454D01*
X002938Y018432D01*
X002892Y018414D01*
X002844Y018399D01*
X002795Y018388D01*
X002746Y018381D01*
X002696Y018378D01*
X002645Y018379D01*
X002596Y018384D01*
X002546Y018393D01*
X002498Y018406D01*
X002451Y018422D01*
X002405Y018443D01*
X002361Y018467D01*
X002319Y018494D01*
X002279Y018524D01*
X002242Y018558D01*
X002208Y018595D01*
X002176Y018634D01*
X002148Y018675D01*
X002123Y018719D01*
X002102Y018764D01*
X002085Y018811D01*
X002071Y018859D01*
X002061Y018908D01*
X002055Y018958D01*
X002053Y019008D01*
D11*
X009733Y010505D02*
X009964Y010505D01*
X010040Y010429D01*
X010040Y010275D01*
X009964Y010198D01*
X009733Y010198D01*
X009733Y010045D02*
X009733Y010505D01*
X009887Y010198D02*
X010040Y010045D01*
X010194Y010045D02*
X010501Y010045D01*
X010654Y010122D02*
X010731Y010045D01*
X010884Y010045D01*
X010961Y010122D01*
X010961Y010198D01*
X010884Y010275D01*
X010731Y010275D01*
X010654Y010352D01*
X010654Y010429D01*
X010731Y010505D01*
X010884Y010505D01*
X010961Y010429D01*
X011115Y010505D02*
X011115Y010045D01*
X011422Y010045D01*
X011268Y010275D02*
X011115Y010275D01*
X011115Y010505D02*
X011422Y010505D01*
X011575Y010505D02*
X011882Y010505D01*
X011728Y010505D02*
X011728Y010045D01*
X010501Y010505D02*
X010194Y010505D01*
X010194Y010045D01*
X010194Y010275D02*
X010347Y010275D01*
X008108Y005880D02*
X008108Y005420D01*
X008415Y005420D01*
X007040Y005304D02*
X007040Y004997D01*
X006964Y004920D01*
X006810Y004920D01*
X006733Y004997D01*
X007040Y005304D01*
X006964Y005380D01*
X006810Y005380D01*
X006733Y005304D01*
X006733Y004997D01*
X004547Y003880D02*
X004240Y003880D01*
X004393Y003880D02*
X004393Y003420D01*
X004086Y003497D02*
X004086Y003804D01*
X004009Y003880D01*
X003856Y003880D01*
X003779Y003804D01*
X003779Y003497D01*
X003856Y003420D01*
X004009Y003420D01*
X004086Y003497D01*
X003626Y003497D02*
X003626Y003804D01*
X003549Y003880D01*
X003396Y003880D01*
X003319Y003804D01*
X003319Y003497D01*
X003396Y003420D01*
X003549Y003420D01*
X003626Y003497D01*
X003529Y003005D02*
X003836Y002545D01*
X003836Y003005D01*
X003529Y003005D02*
X003529Y002545D01*
X003376Y002545D02*
X003222Y002698D01*
X003299Y002698D02*
X003069Y002698D01*
X003069Y002545D02*
X003069Y003005D01*
X003299Y003005D01*
X003376Y002929D01*
X003376Y002775D01*
X003299Y002698D01*
X002915Y002622D02*
X002915Y002775D01*
X002762Y002775D01*
X002915Y002622D02*
X002839Y002545D01*
X002685Y002545D01*
X002608Y002622D01*
X002608Y002929D01*
X002685Y003005D01*
X002839Y003005D01*
X002915Y002929D01*
X002858Y003420D02*
X003089Y003420D01*
X003165Y003497D01*
X003165Y003573D01*
X003089Y003650D01*
X002858Y003650D01*
X002858Y003420D02*
X002858Y003880D01*
X003089Y003880D01*
X003165Y003804D01*
X003165Y003727D01*
X003089Y003650D01*
X005067Y007926D02*
X004990Y008003D01*
X005067Y007926D02*
X005221Y007926D01*
X005297Y008003D01*
X005297Y008079D01*
X005221Y008156D01*
X005067Y008156D01*
X004990Y008233D01*
X004990Y008310D01*
X005067Y008386D01*
X005221Y008386D01*
X005297Y008310D01*
X003836Y008295D02*
X003606Y008525D01*
X003529Y008448D02*
X003836Y008755D01*
X003529Y008755D02*
X003529Y008295D01*
X003376Y008295D02*
X003069Y008295D01*
X003069Y008755D01*
X002915Y008679D02*
X002915Y008602D01*
X002839Y008525D01*
X002608Y008525D01*
X002608Y008295D02*
X002839Y008295D01*
X002915Y008372D01*
X002915Y008448D01*
X002839Y008525D01*
X002915Y008679D02*
X002839Y008755D01*
X002608Y008755D01*
X002608Y008295D01*
X013108Y005880D02*
X013108Y005420D01*
X013108Y005573D02*
X013339Y005573D01*
X013415Y005650D01*
X013415Y005804D01*
X013339Y005880D01*
X013108Y005880D01*
X013262Y005573D02*
X013415Y005420D01*
X014858Y005997D02*
X014935Y005920D01*
X015012Y005920D01*
X015088Y005997D01*
X015088Y006150D01*
X015165Y006227D01*
X015242Y006227D01*
X015318Y006150D01*
X015318Y005997D01*
X015242Y005920D01*
X014858Y005997D02*
X014858Y006150D01*
X014935Y006227D01*
X015983Y002698D02*
X016443Y002698D01*
X016443Y002545D02*
X016443Y002852D01*
X016137Y002545D02*
X015983Y002698D01*
X017483Y002622D02*
X017560Y002545D01*
X017483Y002622D02*
X017483Y002775D01*
X017560Y002852D01*
X017637Y002852D01*
X017943Y002545D01*
X017943Y002852D01*
D12*
X018218Y003150D02*
X017088Y003150D01*
X016718Y003150D02*
X015588Y003150D01*
X014588Y003520D02*
X011588Y003520D01*
X011588Y005016D01*
X011088Y005016D02*
X011088Y003520D01*
X008088Y003520D01*
X008088Y005016D01*
X007088Y004650D02*
X007088Y003520D01*
X005088Y003520D01*
X005088Y004650D01*
X006159Y007948D02*
X006159Y008355D01*
X005956Y008152D02*
X006363Y008152D01*
X006956Y008152D02*
X007363Y008152D01*
X008782Y015520D02*
X008782Y017016D01*
X008782Y015520D02*
X011145Y015520D01*
X011145Y017016D01*
X011370Y018363D02*
X015307Y018363D01*
X015307Y019937D01*
X011370Y019937D01*
X011370Y018363D01*
X016222Y014650D02*
X017718Y014650D01*
X017718Y009650D01*
X016222Y009650D01*
X015008Y008332D02*
X015008Y007925D01*
X015008Y007332D02*
X015008Y006925D01*
X014805Y007129D02*
X015212Y007129D01*
X015588Y005150D02*
X016718Y005150D01*
X016718Y003150D01*
X018218Y003150D02*
X018218Y005150D01*
X017088Y005150D01*
X014588Y005016D02*
X014588Y003520D01*
D13*
X015688Y005650D02*
X016488Y005650D01*
X016588Y005750D01*
X016588Y006550D01*
X016488Y006650D01*
X016588Y006750D01*
X016588Y007550D01*
X016488Y007650D01*
X016588Y007750D01*
X016588Y008550D01*
X016488Y008650D01*
X015688Y008650D01*
X015588Y008550D01*
X015588Y007750D01*
X015688Y007650D01*
X015588Y007550D01*
X015588Y006750D01*
X015688Y006650D01*
X015588Y006550D01*
X015588Y005750D01*
X015688Y005650D01*
X017088Y005750D02*
X017188Y005650D01*
X017988Y005650D01*
X018088Y005750D01*
X018088Y006550D01*
X017988Y006650D01*
X018088Y006750D01*
X018088Y007550D01*
X017988Y007650D01*
X018088Y007750D01*
X018088Y008550D01*
X017988Y008650D01*
X017188Y008650D01*
X017088Y008550D01*
X017088Y007750D01*
X017188Y007650D01*
X017088Y007550D01*
X017088Y006750D01*
X017188Y006650D01*
X017088Y006550D01*
X017088Y005750D01*
X007588Y006750D02*
X007488Y006650D01*
X006688Y006650D01*
X006588Y006750D01*
X006488Y006650D01*
X005688Y006650D01*
X005588Y006750D01*
X005488Y006650D01*
X004688Y006650D01*
X004588Y006750D01*
X004588Y007550D01*
X004688Y007650D01*
X005488Y007650D01*
X005588Y007550D01*
X005688Y007650D01*
X006488Y007650D01*
X006588Y007550D01*
X006688Y007650D01*
X007488Y007650D01*
X007588Y007550D01*
X007588Y006750D01*
X011600Y017555D02*
X011814Y017555D01*
X011920Y017662D01*
X011920Y018089D01*
X011814Y018196D01*
X011600Y018196D01*
X011493Y018089D01*
X011493Y017662D01*
X011600Y017555D01*
X012138Y017555D02*
X012138Y018196D01*
X012565Y018196D01*
X012783Y018196D02*
X013210Y018196D01*
X012996Y017875D02*
X012783Y017875D01*
X012783Y017555D02*
X012783Y018196D01*
X012352Y017875D02*
X012138Y017875D01*
X014118Y017662D02*
X014225Y017555D01*
X014439Y017555D01*
X014545Y017662D01*
X014545Y018089D01*
X014439Y018196D01*
X014225Y018196D01*
X014118Y018089D01*
X014118Y017662D01*
X014763Y017555D02*
X014763Y018196D01*
X015190Y017555D01*
X015190Y018196D01*
D14*
X015038Y016690D02*
X013638Y016690D01*
X013638Y014110D01*
X015038Y014110D01*
X015038Y016690D01*
X008613Y017568D02*
X008613Y010482D01*
X000739Y010482D01*
X000739Y017568D01*
X008613Y017568D01*
X002088Y008650D02*
X001588Y008650D01*
X001338Y008400D01*
X001338Y007900D01*
X001588Y007650D01*
X001338Y007400D01*
X001338Y006900D01*
X001588Y006650D01*
X001338Y006400D01*
X001338Y005900D01*
X001588Y005650D01*
X001338Y005400D01*
X001338Y004900D01*
X001588Y004650D01*
X001338Y004400D01*
X001338Y003900D01*
X001588Y003650D01*
X001338Y003400D01*
X001338Y002900D01*
X001588Y002650D01*
X002088Y002650D01*
X002338Y002900D01*
X002338Y003400D01*
X002088Y003650D01*
X002338Y003900D01*
X002338Y004400D01*
X002088Y004650D01*
X002338Y004900D01*
X002338Y005400D01*
X002088Y005650D01*
X002338Y005900D01*
X002338Y006400D01*
X002088Y006650D01*
X002338Y006900D01*
X002338Y007400D01*
X002088Y007650D01*
X002338Y007900D01*
X002338Y008400D01*
X002088Y008650D01*
X008915Y008134D02*
X008915Y006166D01*
X012262Y006166D01*
X012262Y008134D01*
X008915Y008134D01*
X009100Y006450D02*
X009102Y006468D01*
X009108Y006486D01*
X009117Y006502D01*
X009129Y006515D01*
X009144Y006526D01*
X009161Y006534D01*
X009179Y006538D01*
X009197Y006538D01*
X009215Y006534D01*
X009232Y006526D01*
X009247Y006515D01*
X009259Y006502D01*
X009268Y006486D01*
X009274Y006468D01*
X009276Y006450D01*
X009274Y006432D01*
X009268Y006414D01*
X009259Y006398D01*
X009247Y006385D01*
X009232Y006374D01*
X009215Y006366D01*
X009197Y006362D01*
X009179Y006362D01*
X009161Y006366D01*
X009144Y006374D01*
X009129Y006385D01*
X009117Y006398D01*
X009108Y006414D01*
X009102Y006432D01*
X009100Y006450D01*
D15*
X006494Y008777D02*
X006432Y008715D01*
X006308Y008715D01*
X006247Y008777D01*
X006125Y008715D02*
X006002Y008838D01*
X006064Y008838D02*
X005878Y008838D01*
X005878Y008715D02*
X005878Y009085D01*
X006064Y009085D01*
X006125Y009024D01*
X006125Y008900D01*
X006064Y008838D01*
X006247Y009024D02*
X006308Y009085D01*
X006432Y009085D01*
X006494Y009024D01*
X006494Y008962D01*
X006432Y008900D01*
X006494Y008838D01*
X006494Y008777D01*
X006432Y008900D02*
X006370Y008900D01*
X004707Y008900D02*
X004707Y008777D01*
X004645Y008715D01*
X004522Y008715D01*
X004460Y008777D01*
X004460Y008900D02*
X004584Y008962D01*
X004645Y008962D01*
X004707Y008900D01*
X004707Y009085D02*
X004460Y009085D01*
X004460Y008900D01*
X004339Y008900D02*
X004277Y008838D01*
X004092Y008838D01*
X004092Y008715D02*
X004092Y009085D01*
X004277Y009085D01*
X004339Y009024D01*
X004339Y008900D01*
X004215Y008838D02*
X004339Y008715D01*
X003520Y006960D02*
X003335Y006775D01*
X003582Y006775D01*
X003520Y006590D02*
X003520Y006960D01*
X003214Y006899D02*
X003214Y006775D01*
X003152Y006713D01*
X002967Y006713D01*
X002967Y006590D02*
X002967Y006960D01*
X003152Y006960D01*
X003214Y006899D01*
X003090Y006713D02*
X003214Y006590D01*
X002045Y009840D02*
X001922Y009840D01*
X001860Y009902D01*
X001739Y009902D02*
X001677Y009840D01*
X001554Y009840D01*
X001492Y009902D01*
X001492Y010149D01*
X001554Y010210D01*
X001677Y010210D01*
X001739Y010149D01*
X001860Y010210D02*
X001860Y010025D01*
X001984Y010087D01*
X002045Y010087D01*
X002107Y010025D01*
X002107Y009902D01*
X002045Y009840D01*
X002107Y010210D02*
X001860Y010210D01*
X009528Y013565D02*
X009528Y013750D01*
X009590Y013812D01*
X009713Y013812D01*
X009775Y013750D01*
X009775Y013565D01*
X009898Y013565D02*
X009528Y013565D01*
X009775Y013688D02*
X009898Y013812D01*
X009837Y013933D02*
X009898Y013995D01*
X009898Y014118D01*
X009837Y014180D01*
X009775Y014180D01*
X009713Y014118D01*
X009713Y013933D01*
X009837Y013933D01*
X009713Y013933D02*
X009590Y014057D01*
X009528Y014180D01*
X010778Y014180D02*
X010778Y013933D01*
X010840Y013812D02*
X010778Y013750D01*
X010778Y013565D01*
X011148Y013565D01*
X011025Y013565D02*
X011025Y013750D01*
X010963Y013812D01*
X010840Y013812D01*
X011025Y013688D02*
X011148Y013812D01*
X011148Y013933D02*
X011087Y013933D01*
X010840Y014180D01*
X010778Y014180D01*
X012242Y012749D02*
X012242Y012502D01*
X012304Y012440D01*
X012427Y012440D01*
X012489Y012502D01*
X012610Y012440D02*
X012857Y012687D01*
X012857Y012749D01*
X012795Y012810D01*
X012672Y012810D01*
X012610Y012749D01*
X012489Y012749D02*
X012427Y012810D01*
X012304Y012810D01*
X012242Y012749D01*
X012610Y012440D02*
X012857Y012440D01*
X013713Y009544D02*
X013713Y009297D01*
X013528Y009482D01*
X013898Y009482D01*
X013837Y009175D02*
X013898Y009114D01*
X013898Y008990D01*
X013837Y008928D01*
X013590Y008928D01*
X013528Y008990D01*
X013528Y009114D01*
X013590Y009175D01*
X013587Y006919D02*
X013648Y006857D01*
X013648Y006733D01*
X013587Y006672D01*
X013587Y006550D02*
X013648Y006489D01*
X013648Y006365D01*
X013587Y006303D01*
X013340Y006303D01*
X013278Y006365D01*
X013278Y006489D01*
X013340Y006550D01*
X013340Y006672D02*
X013278Y006733D01*
X013278Y006857D01*
X013340Y006919D01*
X013402Y006919D01*
X013463Y006857D01*
X013525Y006919D01*
X013587Y006919D01*
X013463Y006857D02*
X013463Y006795D01*
X017415Y016240D02*
X017539Y016240D01*
X017600Y016302D01*
X017722Y016240D02*
X017969Y016240D01*
X017845Y016240D02*
X017845Y016610D01*
X017722Y016487D01*
X017600Y016549D02*
X017539Y016610D01*
X017415Y016610D01*
X017353Y016549D01*
X017353Y016302D01*
X017415Y016240D01*
X006494Y019215D02*
X006247Y019215D01*
X006125Y019215D02*
X006002Y019338D01*
X006064Y019338D02*
X005878Y019338D01*
X005878Y019215D02*
X005878Y019585D01*
X006064Y019585D01*
X006125Y019524D01*
X006125Y019400D01*
X006064Y019338D01*
X006247Y019462D02*
X006370Y019585D01*
X006370Y019215D01*
X004744Y019215D02*
X004497Y019215D01*
X004744Y019462D01*
X004744Y019524D01*
X004682Y019585D01*
X004558Y019585D01*
X004497Y019524D01*
X004375Y019524D02*
X004375Y019400D01*
X004314Y019338D01*
X004128Y019338D01*
X004128Y019215D02*
X004128Y019585D01*
X004314Y019585D01*
X004375Y019524D01*
X004252Y019338D02*
X004375Y019215D01*
D16*
X004588Y018775D03*
X006338Y018775D03*
X005588Y009400D03*
X003838Y009400D03*
X003463Y007400D03*
D17*
X009213Y013400D03*
X010463Y013400D03*
M02*
